<?xml version="1.0" encoding="UTF-8" standalone="no"?>
<svg width="329px" height="157px" viewBox="0 0 329 157" version="1.1" xmlns="http://www.w3.org/2000/svg" xmlns:xlink="http://www.w3.org/1999/xlink" xmlns:sketch="http://www.bohemiancoding.com/sketch/ns">
    <!-- Generator: Sketch Beta 3.1 (8657) - http://www.bohemiancoding.com/sketch -->
    <title>illustration-barrel</title>
    <desc>Created with Sketch Beta.</desc>
    <defs></defs>
    <g id="Page-1" stroke="none" stroke-width="1" fill="none" fill-rule="evenodd" sketch:type="MSPage">
        <g id="Group" sketch:type="MSLayerGroup" fill="#665F89">
            <path d="M237.555593,0.0795690915 C186.409577,-1.84414375 144.385427,11.6070483 143.67849,30.1309232 C142.974523,48.6518385 183.864009,65.2312836 235.007055,67.157956 C286.14713,69.0816688 328.17722,55.6334363 328.881187,37.1095615 C329.582184,18.5856866 288.695668,2.00624149 237.555593,0.0795690915 L237.555593,0.0795690915 Z M235.378345,64.4440411 C186.647203,62.6061555 147.676547,47.3022799 148.324078,30.2552246 C148.968638,13.2111289 189.771984,1.41432985 237.70708,3.21966036 C285.630293,5.02499087 325.423729,19.8582966 324.779169,36.9053519 C324.128668,53.9494477 284.106517,66.2789672 235.378345,64.4440411 L235.378345,64.4440411 Z" id="Fill-1" sketch:type="MSShapeGroup"></path>
            <path d="M167.357916,8.60013719 L160.077651,6.3331156 C159.299426,8.91385036 158.524172,11.488666 157.757828,14.0457243 L158.776649,14.3979117 L166.603454,11.3436476 L167.357916,8.60013719" id="Fill-2" sketch:type="MSShapeGroup"></path>
            <path d="M139.570532,94.1698438 L139.766573,89.8755248 L135.590297,88.0909112 C135.590297,88.0909112 136.119015,86.3092572 137.063578,83.1454895 L140.461629,84.1606179 L140.740839,81.4792582 L137.871506,80.4345341 C138.352699,78.8245345 138.896268,77.0014466 139.505184,74.9593514 L141.153715,75.4417594 L141.709165,72.8551055 L140.316083,72.2454366 C140.420044,71.9080469 142.439865,65.3437468 142.543826,64.9974785 L143.206209,48.7199083 L130.392229,91.0504694 L139.570532,94.1698438" id="Fill-3" sketch:type="MSShapeGroup"></path>
            <path d="M143.886413,28.0000413 L137.286352,124.167926 C137.286352,124.167926 171.932216,152.112074 220.880192,156.222901 C269.825197,160.333727 305.935431,144.461617 326.3475,125.999892 L328.881187,37.1095615 L325.096994,41.152318 L322.22469,124.715444 C322.22469,124.715444 302.861145,142.372168 262.146909,150.33634 C228.900068,156.838489 177.09761,149.182112 141.902236,121.510243 L146.084453,35.9434955 L143.886413,28.0000413" id="Fill-4" sketch:type="MSShapeGroup"></path>
            <path d="M142.820067,76.0928622 C142.820067,76.0928622 176.509486,102.240559 234.561506,105.463518 C234.561506,105.463518 285.469896,106.573352 324.078172,85.2941287 L324.912834,82.3138536 C324.912834,82.3138536 281.465899,108.517782 218.495021,101.663445 C218.495021,101.663445 178.315443,97.7716261 143.527004,73.1214658 L142.820067,76.0928622" id="Fill-5" sketch:type="MSShapeGroup"></path>
            <path d="M142.273527,69.1497387 C142.273527,69.1497387 175.835222,95.5933913 234.032788,99.3224346 C234.032788,99.3224346 285.086724,100.879162 323.997974,79.9343688 L324.865308,76.9629723 C324.865308,76.9629723 281.050053,102.785118 217.951452,95.3832627 C217.951452,95.3832627 177.685734,91.1422157 143.007197,66.1872209 L142.273527,69.1497387" id="Fill-6" sketch:type="MSShapeGroup"></path>
            <path d="M159.471705,46.9619307 L157.392478,46.591986 L155.224141,75.9419248 L157.401389,77.0103253 L159.471705,46.9619307" id="Fill-7" sketch:type="MSShapeGroup"></path>
            <path d="M151.074598,132.182409 L153.661751,131.404046 L156.946929,83.630857 L154.737008,82.5506183 L151.074598,132.182409" id="Fill-8" sketch:type="MSShapeGroup"></path>
            <path d="M174.917392,85.3355625 L176.922361,56.2105502 L174.843134,55.8406054 L172.725293,84.5305627 L172.879749,84.6104708 L174.917392,85.3355625" id="Fill-9" sketch:type="MSShapeGroup"></path>
            <path d="M168.525254,141.431029 L171.112406,140.652665 L174.486695,91.5713517 C173.70847,91.2694767 172.954008,90.9764805 172.267863,90.7071607 L168.525254,141.431029" id="Fill-10" sketch:type="MSShapeGroup"></path>
            <path d="M197.343341,62.3753099 L195.264114,62.0053651 L193.12251,91.0149547 L195.326491,91.6512598 L197.343341,62.3753099" id="Fill-11" sketch:type="MSShapeGroup"></path>
            <path d="M188.946234,148.090035 L191.533387,147.311671 L194.880942,98.6802105 C194.070044,98.4967179 193.324492,98.3161849 192.632407,98.1504496 L188.946234,148.090035" id="Fill-12" sketch:type="MSShapeGroup"></path>
            <path d="M219.249484,65.0892248 L217.170257,64.71928 L214.963306,96.3036853 L217.093028,96.5552477 L219.249484,65.0892248" id="Fill-13" sketch:type="MSShapeGroup"></path>
            <path d="M210.962279,153.571137 L213.190022,153.571137 L216.665301,102.844309 L214.511816,102.791037 L210.962279,153.571137" id="Fill-14" sketch:type="MSShapeGroup"></path>
            <path d="M243.814066,66.0688386 L241.719988,65.7817614 L240.787306,97.9639974 L242.925939,98.0320673 L243.814066,66.0688386" id="Fill-15" sketch:type="MSShapeGroup"></path>
            <path d="M239.135806,154.811192 L241.360579,154.722405 L242.783364,103.412544 L240.629879,103.388868 L239.135806,154.811192" id="Fill-16" sketch:type="MSShapeGroup"></path>
            <path d="M266.144965,65.6545004 L264.050887,65.4118166 L263.575635,95.8360751 C264.270691,95.7413692 264.992479,95.6437038 265.717239,95.5460384 L266.144965,65.6545004" id="Fill-17" sketch:type="MSShapeGroup"></path>
            <path d="M262.693448,152.215659 L264.915251,152.088398 L265.616248,102.823592 L263.459792,103.226092 L262.693448,152.215659" id="Fill-18" sketch:type="MSShapeGroup"></path>
            <path d="M286.640204,62.6623871 L284.540184,62.4611371 L284.483748,92.1691824 C285.190685,91.9975281 285.903563,91.8199546 286.622382,91.636462 L286.640204,62.6623871" id="Fill-19" sketch:type="MSShapeGroup"></path>
            <path d="M284.373846,147.412296 L286.589708,147.25248 L286.616441,98.9169752 L284.468897,99.313556 L284.373846,147.412296" id="Fill-20" sketch:type="MSShapeGroup"></path>
            <path d="M305.977016,136.677978 L308.192878,136.518162 L308.385949,91.5506348 L306.232463,92.2816457 L305.977016,136.677978" id="Fill-21" sketch:type="MSShapeGroup"></path>
            <path d="M308.543376,54.8817085 L306.446327,54.6922968 L306.268107,85.9274742 C306.998807,85.6966286 307.711685,85.4687427 308.412682,85.2378971 L308.543376,54.8817085" id="Fill-22" sketch:type="MSShapeGroup"></path>
            <path d="M184.107576,56.7699067 L170.862899,18.7869366 L158.488528,22.9806305 L156.011277,33.8333305 L162.201433,30.5038275 L169.749028,53.5617456 L172.226278,54.7958813 L163.437088,27.2956664 L158.117237,30.9951142 L159.845966,24.706053 L169.49952,21.5008514 L181.508542,56.6456052 L183.979852,58.1253843 L184.107576,56.7699067" id="Fill-23" sketch:type="MSShapeGroup"></path>
            <path d="M158.488528,22.9806305 L154.775622,27.1743245 L152.791446,37.2841754 L159.602399,34.6945619 L163.558871,49.3710111 L165.664831,50.9721321 L160.838054,32.5991947 L154.775622,34.9431648 L156.13306,27.7899126 L158.23902,24.8303544 L158.488528,22.9806305" id="Fill-24" sketch:type="MSShapeGroup"></path>
            <path d="M157.374656,31.6136619 L154.154824,35.0645067 L154.276608,35.8043963 L155.76177,35.3131096 L158.732094,31.6136619 L157.374656,31.6136619" id="Fill-25" sketch:type="MSShapeGroup"></path>
            <path d="M162.201433,30.5038275 L160.34498,33.2147828 L160.588547,34.9431648 L163.065798,31.6136619 L162.201433,30.5038275" id="Fill-26" sketch:type="MSShapeGroup"></path>
            <path d="M219.130671,63.4910634 L211.88902,38.8882559 L203.349337,39.4446529 L198.151269,50.5429962 L204.279049,49.4331619 L207.062243,62.5647216 L209.848407,63.3046112 L205.948371,46.4736036 L202.051305,47.583438 L204.834499,41.4778694 L210.032567,41.1079246 L216.902927,63.674556 L219.130671,63.4910634" id="Fill-27" sketch:type="MSShapeGroup"></path>
            <path d="M211.88902,38.8882559 L217.458378,42.5877037 L224.512899,64.0445007 L222.285155,64.4144455 L216.344506,44.0674828 L212.07615,41.2943768 L211.88902,38.8882559" id="Fill-28" sketch:type="MSShapeGroup"></path>
            <path d="M221.236631,56.0300171 C221.236631,56.0300171 229.65156,55.1658261 233.117928,65.5242799 L231.261476,64.9086917 C231.261476,64.9086917 228.534718,57.142811 221.358414,57.2641529 L221.236631,56.0300171" id="Fill-29" sketch:type="MSShapeGroup"></path>
            <path d="M219.380178,50.8507902 C219.380178,50.8507902 232.250594,47.5183277 240.543739,65.1543351 L242.771483,65.0329932 C242.771483,65.0329932 233.489219,45.3016186 219.008887,49.4953126 L219.380178,50.8507902" id="Fill-30" sketch:type="MSShapeGroup"></path>
            <path d="M221.979212,58.9895753 C221.979212,58.9895753 227.052526,59.6051634 229.776313,64.9086917 L228.537688,64.9086917 C228.537688,64.9086917 225.44261,61.0849425 222.721793,60.7149978 L221.979212,58.9895753" id="Fill-31" sketch:type="MSShapeGroup"></path>
            <path d="M260.343922,35.9286977 C258.85876,32.4778528 252.668604,27.2956664 244.749719,34.4489186 C244.749719,34.4489186 240.790276,38.5183112 239.058577,43.5761961 C237.873418,47.0240815 237.202124,52.821856 240.418986,56.2756604 C243.635847,59.7294649 251.186412,61.3305859 256.880524,54.0559918 C262.571665,46.7813977 261.829084,39.3795426 260.343922,35.9286977 L260.343922,35.9286977 Z M255.885465,52.3808818 C251.207204,58.5456416 244.999226,57.1872044 242.352667,54.2572417 C239.706108,51.3302387 240.264529,46.4144125 241.232855,43.4962881 C242.661581,39.2078882 246.32102,35.0319516 246.32102,35.0319516 C252.831971,28.9648572 257.513203,34.0878525 258.731036,37.0148556 C259.954809,39.9418587 260.563726,46.210203 255.885465,52.3808818 L255.885465,52.3808818 Z" id="Fill-32" sketch:type="MSShapeGroup"></path>
            <path d="M256.218141,40.1371895 C255.38051,38.1898002 252.163648,34.7774296 247.69331,38.8172265 C247.69331,38.8172265 245.177445,41.5992113 244.197238,44.4551849 C243.531886,46.4025742 243.154654,49.6788052 244.969523,51.6261945 C246.784391,53.5765433 251.046806,54.4821682 254.263668,50.3713418 C257.477559,46.2664346 257.055773,42.0845788 256.218141,40.1371895 L256.218141,40.1371895 Z M253.114152,49.0129046 C250.824032,52.031654 247.788361,51.3657534 246.496269,49.9333272 C245.198238,48.500901 245.468537,46.0977397 245.943789,44.6682731 C246.641815,42.5699464 248.432921,40.5248916 248.432921,40.5248916 C251.620079,37.5594143 253.910199,40.0661601 254.507234,41.4985863 C255.10427,42.9310125 255.401302,46.0000743 253.114152,49.0129046 L253.114152,49.0129046 Z" id="Fill-33" sketch:type="MSShapeGroup"></path>
            <path d="M241.901178,57.598583 L250.229967,61.6087843 C250.229967,61.6087843 256.696363,62.0083247 261.950867,55.2901276 C268.512314,46.9056991 264.431088,37.2604989 264.431088,37.2604989 L257.002307,32.22925 L257.623105,34.4489186 L263.133056,38.4827965 C263.133056,38.4827965 266.444968,57.1280132 251.527999,60.1822773 L246.359634,58.0040424 L241.901178,57.598583" id="Fill-34" sketch:type="MSShapeGroup"></path>
            <path d="M248.043808,51.2710475 C248.043808,51.2710475 246.751717,47.6011953 248.183414,44.7422621 C249.61511,41.8833288 251.323047,40.0484028 253.847822,39.5719139 L254.397332,40.2496527 C254.397332,40.2496527 246.478447,42.907336 249.344811,51.3391173 L248.043808,51.2710475" id="Fill-35" sketch:type="MSShapeGroup"></path>
            <path d="M239.058577,60.0994096 C239.058577,60.0994096 242.028902,58.7409724 244.627935,58.1253843 L246.977462,59.6051634 C246.977462,59.6051634 242.150685,60.7179573 240.665523,61.9491335 L239.058577,60.0994096" id="Fill-36" sketch:type="MSShapeGroup"></path>
            <path d="M256.137942,59.7294649 C256.137942,59.7294649 260.222138,61.5762292 259.601341,64.4144455 L256.137942,65.2786365 C256.137942,65.2786365 258.116178,62.6860635 254.896347,60.345053 L256.137942,59.7294649" id="Fill-37" sketch:type="MSShapeGroup"></path>
            <path d="M241.529887,63.9231589 C241.529887,63.9231589 251.554732,60.0964501 252.297313,64.7843903 L246.977462,65.8942246 L241.719988,65.7817614 L241.529887,63.9231589" id="Fill-38" sketch:type="MSShapeGroup"></path>
            <path d="M263.314246,37.2871349 C263.314246,37.2871349 266.035063,34.0789738 274.946037,32.7234962 C283.85701,31.3680185 295.369987,34.4518782 295.866031,42.096417 C296.359105,49.7409559 283.485719,52.6975546 276.802489,51.8363231 C270.119259,50.9750917 264.549901,48.755423 264.549901,48.755423 L264.677625,47.027041 C264.677625,47.027041 276.309415,51.7149812 283.485719,50.2352021 C290.667964,48.755423 295.245233,45.42592 294.131362,40.4923365 C293.01749,35.5587529 276.680706,29.6425961 264.306335,38.3969693 L263.314246,37.2871349" id="Fill-39" sketch:type="MSShapeGroup"></path>
            <path d="M278.596565,36.6685873 C272.548985,36.6685873 267.644979,38.9859214 267.644979,41.8478142 C267.644979,44.7097069 272.548985,47.027041 278.596565,47.027041 C284.644146,47.027041 289.551122,44.7097069 289.551122,41.8478142 C289.551122,38.9859214 284.644146,36.6685873 278.596565,36.6685873 L278.596565,36.6685873 Z M278.783696,45.4229605 C273.858898,45.4229605 269.872722,43.8218395 269.872722,41.8478142 C269.872722,39.8737888 273.858898,38.2726678 278.783696,38.2726678 C283.705523,38.2726678 287.697639,39.8737888 287.697639,41.8478142 C287.697639,43.8218395 283.705523,45.4229605 278.783696,45.4229605 L278.783696,45.4229605 Z" id="Fill-40" sketch:type="MSShapeGroup"></path>
            <path d="M269.875693,43.2062514 C269.875693,43.2062514 278.165868,36.7958483 288.44022,42.8363066 L287.819422,43.8218395 C287.819422,43.8218395 277.298533,38.8912155 270.86184,44.3160857 L269.875693,43.2062514" id="Fill-41" sketch:type="MSShapeGroup"></path>
            <path d="M295.866031,42.5877037 L295.367017,53.686047 C295.367017,53.686047 286.084753,63.3046112 262.322158,54.0559918 L262.571665,52.5762127 C262.571665,52.5762127 281.878774,61.3335454 294.009579,52.8248156 L294.380869,45.6715634 L295.866031,42.5877037" id="Fill-42" sketch:type="MSShapeGroup"></path>
            <path d="M208.363245,39.0125574 C208.363245,39.0125574 209.477116,32.3505918 204.772123,28.035556 C200.073069,23.7205201 195.739366,22.7349872 191.034372,24.0904649 C186.335319,25.4459425 178.906538,29.7609784 177.296622,40.2437336 L178.660001,43.0819499 C178.660001,43.0819499 179.031291,34.4518782 185.964028,29.0240484 C192.890825,23.5962187 205.764211,23.5962187 207.12759,39.8737888 L208.363245,39.0125574" id="Fill-43" sketch:type="MSShapeGroup"></path>
            <path d="M201.929522,43.8218395 C201.929522,43.8218395 203.411714,36.7928887 199.202764,33.4633857 C194.996785,30.1338827 190.294761,30.9980737 187.820481,34.2032753 C185.343231,37.4084768 182.126369,47.3940262 186.70661,50.9721321 C191.283879,54.550238 198.460183,52.3305693 201.059217,48.6311216 L201.801798,45.5472619 C201.801798,45.5472619 197.967109,49.3680516 194.625494,49.8622978 C191.283879,50.356544 186.70661,51.0964336 186.457102,45.1773171 C186.207595,39.2582007 187.820481,35.3131096 191.283879,33.8333305 C194.747278,32.3535514 199.205735,35.5557934 199.701779,40.6136784 C200.194853,45.6715634 197.474035,49.7409559 197.474035,49.7409559 L199.945345,48.3825187 C199.945345,48.3825187 201.804768,45.7958648 201.929522,43.8218395" id="Fill-44" sketch:type="MSShapeGroup"></path>
            <path d="M205.143413,49.492353 C205.143413,49.492353 204.772123,58.2496858 192.026461,58.8652739 L194.875002,60.0994096 C194.875002,60.0994096 202.91567,61.4519278 206.257285,52.821856 L205.143413,49.492353" id="Fill-45" sketch:type="MSShapeGroup"></path>
            <path d="M192.148244,51.220735 C192.148244,51.220735 187.321467,44.8044128 189.427427,39.8737888 C191.533387,34.9431648 192.397751,33.3390843 196.481947,33.7090291 L198.587907,35.0645067 C198.587907,35.0645067 193.511623,35.1888082 191.65517,38.5183112 C189.798717,41.8478142 190.912589,47.6426291 194.625494,49.8622978 L192.148244,51.220735" id="Fill-46" sketch:type="MSShapeGroup"></path>
            <path d="M199.202764,24.4604096 C199.202764,24.4604096 213.81082,29.3939932 211.583076,40.1223917 L209.97019,39.8737888 C209.97019,39.8737888 211.208816,32.7205366 204.029541,28.7754455 L199.202764,24.4604096" id="Fill-47" sketch:type="MSShapeGroup"></path>
            <path d="M201.026543,61.161891 C201.026543,61.161891 204.347366,60.8836926 206.284018,57.0214691 L207.255314,58.4006232 C207.255314,58.4006232 205.734508,61.0227918 203.37904,62.4019459 L201.026543,61.161891" id="Fill-48" sketch:type="MSShapeGroup"></path>
            <path d="M257.094387,33.2976505 L267.202401,10.9500264 L278.554981,14.1226728 L280.631237,26.9493981 L273.431171,21.4327816 L268.586572,35.0881832 L265.262779,36.7455358 L272.32324,18.1239955 L278.278741,23.0871746 L277.034175,15.5018269 L268.307362,13.4330957 L259.449854,34.4015657 L257.094387,33.2976505" id="Fill-49" sketch:type="MSShapeGroup"></path>
            <path d="M267.202401,10.9500264 L262.354831,12.8796584 L253.497324,31.08982 L254.881495,31.6402979 L263.741973,14.2588125 L266.789526,13.1578568 L267.202401,10.9500264" id="Fill-50" sketch:type="MSShapeGroup"></path>
            <path d="M192.858151,24.1910899 C192.858151,24.1910899 192.029431,19.0858519 199.089892,14.8122499 C206.150353,10.5356883 215.839551,15.2236285 218.607894,21.4327816 L217.639568,23.0871746 C217.639568,23.0871746 212.794969,17.7066978 209.471176,15.9161651 C206.150353,14.1226728 197.1473,15.0874888 194.658168,24.0549502 L192.858151,24.1910899" id="Fill-51" sketch:type="MSShapeGroup"></path>
            <path d="M200.610698,25.570244 C200.610698,25.570244 202.82656,20.4679656 207.671159,21.9832594 C212.515758,23.5015128 214.871226,29.2963278 210.994952,34.673845 L209.331571,32.6051139 C209.331571,32.6051139 211.268222,29.9859048 210.579107,26.9493981 C209.887021,23.9158509 204.486971,22.951035 202.689925,26.6741592 L200.610698,25.570244" id="Fill-52" sketch:type="MSShapeGroup"></path>
            <path d="M226.63668,14.3979117 C226.63668,14.3979117 218.334624,18.6744733 215.839551,23.640612 C213.344479,28.6067507 212.794969,33.4367497 214.73162,37.9885502 C216.671242,42.5403508 221.239601,45.1595598 229.131753,40.8829982 C237.020935,36.6064366 240.897208,26.8132584 240.620968,22.2614579 C240.344728,17.7096574 236.468454,9.84611119 226.63668,14.3979117 L226.63668,14.3979117 Z M228.712937,39.0895059 C221.102966,43.7774461 217.087088,38.814267 216.255397,36.3311976 C215.423706,33.8481283 215.423706,28.0533133 217.363328,24.0549502 C219.30295,20.0536275 228.023822,16.0552643 228.023822,16.0552643 C236.192214,11.7787027 238.268471,21.2966419 238.268471,24.0549502 C238.268471,26.8102989 236.331819,34.4015657 228.712937,39.0895059 L228.712937,39.0895059 Z" id="Fill-53" sketch:type="MSShapeGroup"></path>
            <path d="M239.376402,17.845797 L243.66555,29.1572285 C243.66555,29.1572285 241.452659,38.9533662 235.084283,43.3660675 C228.712937,47.7787688 220.544545,47.7817284 218.747499,46.9530521 L216.807877,43.7804057 L215.287071,42.1230531 L213.9029,35.6416206 L215.979157,37.849451 L219.85543,45.1566002 C219.85543,45.1566002 227.195101,45.4347987 231.76049,43.3660675 C236.331819,41.2973363 240.897208,34.1233672 241.589294,29.5715667 L239.513037,24.3301891 L239.376402,17.845797" id="Fill-54" sketch:type="MSShapeGroup"></path>
            <path d="M228.023822,21.4327816 C228.023822,21.4327816 222.347532,23.2233143 220.271275,27.9142141 C218.192048,32.6051139 220.68415,35.0881832 223.455463,35.7807198 C226.223805,36.4702969 232.868421,29.8468056 233.008026,25.9845821 C233.144661,22.1223587 230.379289,20.1897671 228.023822,21.4327816 L228.023822,21.4327816 Z M228.992148,29.9859048 C226.63668,32.1907757 223.455463,34.673845 222.347532,33.019452 C221.239601,31.3620994 221.512871,29.2963278 222.760407,27.0884973 C224.007943,24.8806669 228.023822,23.640612 228.023822,23.640612 C232.03673,22.4005571 231.347615,27.7780744 228.992148,29.9859048 L228.992148,29.9859048 Z" id="Fill-55" sketch:type="MSShapeGroup"></path>
            <path d="M231.516923,25.1618249 C231.513953,25.1618249 224.596068,26.0615306 222.210897,33.3657203 L223.033677,34.1855179 C223.033677,34.1855179 226.491135,27.1328907 231.766431,26.3930012 L231.516923,25.1618249" id="Fill-56" sketch:type="MSShapeGroup"></path>
            <path d="M240.294232,23.1670827 C240.294232,23.1670827 242.706135,18.4495469 247.996283,17.15622 C253.289401,15.8599335 257.465677,20.7609619 258.671629,22.8888842 L257.929048,23.9987186 C257.929048,23.9987186 249.668576,12.252232 240.849683,24.3686633 L240.294232,23.1670827" id="Fill-57" sketch:type="MSShapeGroup"></path>
            <path d="M255.517145,28.2545633 C255.517145,28.2545633 252.82306,24.3686633 249.760656,23.815226 C246.698251,23.258829 244.007138,26.0348946 243.264556,29.1779454 C242.521975,32.3239558 243.356637,36.1151499 243.356637,36.1151499 L244.933879,35.283514 C244.933879,35.283514 243.912087,29.5478902 245.86359,27.0500231 C247.812123,24.5551155 252.35969,25.0168066 254.774564,29.4561439 L255.517145,28.2545633" id="Fill-58" sketch:type="MSShapeGroup"></path>
            <path d="M250.503237,25.570244 C250.503237,25.570244 245.58438,28.1598574 247.161622,33.0638454 L248.462624,32.5074484 C248.462624,32.5074484 247.348753,27.6981663 251.617109,26.0348946 L250.503237,25.570244" id="Fill-59" sketch:type="MSShapeGroup"></path>
            <path d="M239.456601,37.8731275 L240.386312,41.0161783 L239.480363,43.3512697 L238.559563,39.2848367 L239.456601,37.8731275" id="Fill-60" sketch:type="MSShapeGroup"></path>
            <path d="M251.875527,17.3515508 L257.03201,18.502819 C257.03201,18.502819 258.647867,19.1154475 259.342922,20.2637561 L259.188466,21.1101898 C259.188466,21.1101898 257.109239,19.3433335 254.263668,19.1894365" id="Fill-61" sketch:type="MSShapeGroup"></path>
            <path d="M230.47731,51.3302387 C230.47731,51.3302387 232.785252,43.9668578 239.560562,45.807703 L239.17442,47.1128682 C239.17442,47.1128682 234.092195,45.8846516 231.707024,51.9428672 L230.47731,51.3302387" id="Fill-62" sketch:type="MSShapeGroup"></path>
            <path d="M238.942734,52.1766723 C238.942734,52.1766723 236.24865,52.8662494 235.633793,56.0122598 L236.094193,56.6248883 C236.091223,56.6248883 237.478365,53.8636205 239.406105,53.4788779 L238.942734,52.1766723" id="Fill-63" sketch:type="MSShapeGroup"></path>
            <path d="M281.136193,32.7856469 C281.136193,32.7856469 282.526304,25.6649498 288.654084,23.0753364 C294.778893,20.485723 307.310691,21.9655021 309.354274,34.8188634 L307.869112,35.6534588 C307.869112,35.6534588 306.939401,29.1779454 303.597786,26.6800783 C300.256171,24.1851707 288.003583,19.7458334 283.084725,32.5991947 L281.136193,32.7856469" id="Fill-64" sketch:type="MSShapeGroup"></path>
            <path d="M295.058103,41.8478142 L312.137468,32.8773932 L317.522667,38.8882559 L315.015713,50.356544 L311.674098,43.8839902 L294.873943,53.4108081 L294.873943,51.374632 L312.324599,41.2943768 L314.457292,45.1773171 L315.666214,39.4446529 L311.766178,35.1888082 L295.245233,44.3456813 L295.058103,41.8478142" id="Fill-65" sketch:type="MSShapeGroup"></path>
            <path d="M289.767955,56.0004215 L288.838244,59.6998693 L310.373096,48.2315812 L313.06718,52.3927201 L314.552342,51.8363231 L311.302807,46.9352947 L312.324599,43.5140454 L311.582018,43.1441006 L310.281016,46.1954052 L290.881827,57.2937485 L291.808568,54.7958813 L289.767955,56.0004215" id="Fill-66" sketch:type="MSShapeGroup"></path>
            <path d="M317.522667,38.8882559 L318.170197,48.5068201 L317.056326,50.1730514 L316.592955,41.7560678 L317.522667,38.8882559" id="Fill-67" sketch:type="MSShapeGroup"></path>
            <path d="M288.838244,59.6998693 L286.797631,57.01555 L287.819422,56.4621126 L289.488745,58.4953291 L288.838244,59.6998693" id="Fill-68" sketch:type="MSShapeGroup"></path>
            <path d="M286.705551,33.8037349 C286.705551,33.8037349 288.466953,28.4380559 291.995699,28.0681111 C295.521474,27.6981663 304.061156,28.4380559 302.204704,38.2430722 L300.814592,39.5363992 C300.814592,39.5363992 301.833413,34.4489186 300.164091,31.8593052 C298.491798,29.2696917 290.881827,27.1447289 287.911503,33.9872275 L286.705551,33.8037349" id="Fill-69" sketch:type="MSShapeGroup"></path>
            <path d="M280.485692,41.4778694 C280.485692,41.4778694 280.114401,43.8839902 281.228273,45.7337141 L283.176805,45.272023 C283.176805,45.272023 281.783723,43.5140454 281.783723,41.94252 L280.485692,41.4778694" id="Fill-70" sketch:type="MSShapeGroup"></path>
            <path d="M258.116178,61.4548873 C258.116178,61.4548873 261.549873,55.260532 270.181636,55.8139694 C278.813399,56.3703663 283.735226,62.6594275 283.735226,62.6594275 L282.155014,62.9346664 C282.155014,62.9346664 277.978738,59.051726 273.710382,57.9418917 C269.439055,56.8320574 263.869697,57.2020022 258.579549,62.4729753 L258.116178,61.4548873" id="Fill-71" sketch:type="MSShapeGroup"></path>
            <path d="M264.333067,64.0445007 C264.333067,64.0445007 269.626186,59.9751082 275.287624,62.7511738 C275.287624,62.7511738 270.181636,64.692644 269.902426,64.692644 C269.626186,64.692644 264.333067,64.0445007 264.333067,64.0445007" id="Fill-72" sketch:type="MSShapeGroup"></path>
            <path d="M290.231326,35.4670066 C290.231326,35.4670066 291.532328,29.3643976 297.472977,29.5478902 L295.337314,29.2696917 C295.337314,29.2696917 291.345198,29.1779454 289.304585,34.3571723 L290.231326,35.4670066" id="Fill-73" sketch:type="MSShapeGroup"></path>
            <path d="M301.090832,23.4452812 C301.090832,23.4452812 306.012659,23.9987186 308.982984,27.3282216 C311.953308,30.6577245 313.25134,34.5436245 313.25134,34.5436245 L312.324599,34.3571723 C312.324599,34.3571723 308.240403,26.6800783 303.597786,25.3867514 L301.090832,23.4452812" id="Fill-74" sketch:type="MSShapeGroup"></path>
            <path d="M270.523224,26.4640306 C270.523224,26.4640306 275.471784,29.4265483 276.956946,33.0756836 L275.673766,32.9750586 C275.673766,32.9750586 272.706412,29.2312175 270.523224,28.242725 L270.523224,26.4640306" id="Fill-75" sketch:type="MSShapeGroup"></path>
            <path d="M293.887795,38.2016384 C293.887795,38.2016384 297.351194,34.2595069 301.705689,36.2305727 L301.80668,37.2161055 C301.80668,37.2161055 297.351194,36.6271535 294.977904,39.3854617 L293.887795,38.2016384" id="Fill-76" sketch:type="MSShapeGroup"></path>
            <path d="M295.568999,55.5594474 C295.568999,55.5594474 299.430421,56.6485648 300.61558,58.0277189 L302.397775,57.0392265 C302.397775,57.0392265 299.531412,55.4588224 297.351194,54.7722049 L295.568999,55.5594474" id="Fill-77" sketch:type="MSShapeGroup"></path>
            <path d="M304.875025,55.5594474 C304.875025,55.5594474 307.747329,51.12011 311.60578,49.8386213 L312.695889,50.6288234 C312.695889,50.6288234 309.425562,51.32136 307.94337,54.0826278 L307.349305,55.3641165 L304.875025,55.5594474" id="Fill-78" sketch:type="MSShapeGroup"></path>
            <path d="M140.417074,95.7147332 L110.297985,118.642431 L111.851464,119.636842 L120.857488,120.19028 L140.752721,105.019584 L140.972525,102.361901 L120.521841,118.195537 L114.74456,117.64506 L140.752721,97.7094754 L140.417074,95.7147332" id="Fill-79" sketch:type="MSShapeGroup"></path>
            <path d="M110.297985,118.642431 L110.520759,126.503017 L121.080262,127.609892 L138.860624,115.206384 L139.196271,112.5487 L121.190164,125.505646 L112.409885,124.952209 L112.519787,118.417504 L110.297985,118.642431" id="Fill-80" sketch:type="MSShapeGroup"></path>
            <path d="M119.856489,119.524379 L120.076293,125.94958 L121.858487,126.171547 L121.748585,118.861438 L119.856489,119.524379" id="Fill-81" sketch:type="MSShapeGroup"></path>
            <path d="M60.0965319,127.180756 L59.3539508,135.938089 L65.5411365,141.238658 L74.5768634,141.608602 L73.9560656,134.334008 L95.6156711,135.938089 L103.65931,131.004505 L103.412773,123.481308 L101.55632,124.221198 L101.55632,130.018972 L95.6156711,133.964064 L72.3491201,132.359983 L72.4709034,139.88318 L66.2837176,139.758879 L60.839113,135.443843 L61.3321869,127.675002 L60.0965319,127.180756" id="Fill-82" sketch:type="MSShapeGroup"></path>
            <path d="M65.4163829,131.37445 L65.0450924,139.388934 L66.6550082,140.498768 L67.1510524,132.11434 L65.4163829,131.37445" id="Fill-83" sketch:type="MSShapeGroup"></path>
            <path d="M94.5017995,129.279083 L94.5017995,134.828255 L96.1117153,134.703953 L95.7404247,128.414892 L94.5017995,129.279083" id="Fill-84" sketch:type="MSShapeGroup"></path>
            <path d="M103.412773,123.481308 L64.6738018,120.151805 L60.0965319,127.180756 L66.158964,133.099873 L72.7204106,132.484284 L70.4926673,127.799304 L95.1196269,129.894671 L103.412773,123.481308 L103.412773,123.481308 Z M68.0154168,125.94958 L70.3679137,131.128807 L66.6550082,131.250149 L62.9421027,126.689469 L65.7876735,122.001529 L98.9572861,124.839746 L94.5017995,128.044947 L68.0154168,125.94958 L68.0154168,125.94958 Z" id="Fill-85" sketch:type="MSShapeGroup"></path>
            <path d="M116.779232,94.0100277 C114.551489,89.5706903 108.361333,83.7758754 103.288019,82.1717948 C103.288019,82.1717948 97.3473702,79.3335785 90.2928498,81.6775486 C83.2383293,84.0215187 83.6096199,91.6660575 85.8373632,96.2296963 C88.0651065,100.793335 98.4612419,107.946587 108.23955,106.712452 C118.017858,105.478316 119.006976,98.449365 116.779232,94.0100277 L116.779232,94.0100277 Z M115.665361,99.0649531 C115.047533,102.145853 110.838584,106.218205 104.401891,105.108371 C97.9651977,103.998537 90.542357,100.053446 88.5611507,96.7239425 C86.5799443,93.3944395 85.3442893,88.0909112 89.0571948,84.7614082 C92.7701003,81.4319052 99.4533302,82.9116844 99.4533302,82.9116844 C112.448499,85.6255992 116.283188,95.984053 115.665361,99.0649531 L115.665361,99.0649531 Z" id="Fill-86" sketch:type="MSShapeGroup"></path>
            <path d="M84.7234915,88.5851574 L82.0026744,100.669034 C82.0026744,100.669034 85.0947821,105.845301 91.4067214,109.423407 C97.7186608,113.001513 106.507851,113.62006 112.323746,111.151789 L117.025769,100.793335 L116.036651,100.544732 L110.71383,109.177763 C110.71383,109.177763 97.3473702,115.466825 83.9809104,100.299089 L85.8373632,92.2846052 L84.7234915,88.5851574" id="Fill-87" sketch:type="MSShapeGroup"></path>
            <path d="M98.8325324,87.2267202 C98.8325324,87.2267202 94.3770458,85.7469411 92.2740562,88.7064993 C90.1710665,91.6660575 93.7592184,96.2296963 97.2255869,98.0794202 C100.688985,99.9291441 105.391009,101.654567 108.857377,98.8193097 C112.323746,95.984053 105.887053,88.3365546 98.8325324,87.2267202 L98.8325324,87.2267202 Z M107.868259,97.7094754 C105.887053,99.4348979 100.688985,98.0794202 98.0899513,96.4753396 C95.4909175,94.8712591 92.3988098,91.9146604 93.883972,89.8163337 C95.3691342,87.7180069 98.3394586,88.9551022 98.3394586,88.9551022 C104.155354,89.6949918 109.849466,95.984053 107.868259,97.7094754 L107.868259,97.7094754 Z" id="Fill-88" sketch:type="MSShapeGroup"></path>
            <path d="M93.0166373,92.0360023 C93.0166373,92.0360023 96.2334986,89.8163337 101.060276,92.5302485 C105.887053,95.2441634 106.754388,98.9436112 106.754388,98.9436112 L105.515762,98.9436112 C105.515762,98.9436112 100.813739,90.926168 93.5126814,92.9001933 L93.0166373,92.0360023" id="Fill-89" sketch:type="MSShapeGroup"></path>
            <path d="M35.0240236,89.9495138 C30.797252,86.6288895 22.0496467,83.8025114 16.3109799,84.5601583 C16.3109799,84.5601583 9.15843875,84.5009671 3.27422611,90.0235027 C-2.61295685,95.5401192 1.24549455,102.841349 5.52870234,106.277396 C9.8089398,109.716403 23.3268862,111.94791 32.4041975,106.262599 C41.4844792,100.586166 39.2507953,93.264219 35.0240236,89.9495138 L35.0240236,89.9495138 Z M36.235916,95.3980605 C37.0349333,98.6861296 34.7418428,104.590448 27.8893044,106.45201 C21.0337957,108.316532 11.9119295,107.86076 8.43962025,105.51679 C4.96731102,103.166901 1.32272298,98.54999 3.46135655,93.6045682 C5.60296045,88.6502677 12.8713443,87.0402681 12.8713443,87.0402681 C26.923949,83.7433202 35.4398691,92.1040722 36.235916,95.3980605 L36.235916,95.3980605 Z" id="Fill-90" sketch:type="MSShapeGroup"></path>
            <path d="M0.253406198,96.5996411 L-0.302044465,109.73416 C-0.302044465,109.73416 9.188142,116.011383 17.04465,116.618093 C24.9041284,117.221843 33.8537158,113.809472 38.4636593,108.73087 L38.3686089,96.4605419 L37.2784999,96.6706705 L35.9745275,107.544087 C35.9745275,107.544087 22.1595487,121.942338 2.4811495,108.807819 L2.66827994,100.855486 L0.253406198,96.5996411" id="Fill-91" sketch:type="MSShapeGroup"></path>
            <path d="M14.2287825,91.535837 C14.2287825,91.535837 9.16140908,92.1307082 8.43962025,95.9810934 C7.71486109,99.8373978 13.3406555,102.651938 17.6001007,102.873905 C21.8625162,103.095871 27.2892989,102.628261 29.4130808,98.2717915 C31.5309221,93.9153218 21.6902374,89.3931168 14.2287825,91.535837 L14.2287825,91.535837 Z M27.9279186,97.6414056 C26.7635515,100.233979 21.0159738,101.290541 17.721884,100.911717 C14.4277942,100.532894 10.0228032,99.059034 10.5307286,96.3273617 C11.0386541,93.6016086 14.5317556,93.4506712 14.5317556,93.4506712 C20.606069,91.5121605 29.0893155,95.0488326 27.9279186,97.6414056 L27.9279186,97.6414056 Z" id="Fill-92" sketch:type="MSShapeGroup"></path>
            <path d="M10.6911261,98.8932987 C10.6911261,98.8932987 12.8475817,95.2530421 18.847637,95.6999354 C24.8476922,96.1409096 27.3932603,99.3549898 27.3932603,99.3549898 L26.1724569,99.923225 C26.1724569,99.923225 17.8733705,94.2438328 11.5733125,99.5118464 L10.6911261,98.8932987" id="Fill-93" sketch:type="MSShapeGroup"></path>
            <path d="M70.2253381,84.1487797 L68.5678971,89.5174183 L70.0203857,91.9945685 L71.4699041,83.530232 L70.2253381,84.1487797" id="Fill-94" sketch:type="MSShapeGroup"></path>
            <path d="M55.5162917,62.4729753 L56.1400598,67.2230663 L60.6935671,69.9073856 L61.1094125,63.7130302 L59.6598942,63.2986921 L59.2440488,67.0158972 L57.7915602,66.1901805 L57.3816554,62.0586372 L55.5162917,62.4729753" id="Fill-95" sketch:type="MSShapeGroup"></path>
            <path d="M60.6935671,69.9073856 L62.7668536,68.048783 L64.2163719,60.4101633 L63.182699,60.6143728 L61.7331807,67.4272758 L60.280692,68.2529925 L60.6935671,69.9073856" id="Fill-96" sketch:type="MSShapeGroup"></path>
            <path d="M61.938133,68.2529925 L67.3233312,88.4845325 L69.6045403,90.343135 L62.8173491,65.5242799 L61.938133,68.2529925" id="Fill-97" sketch:type="MSShapeGroup"></path>
            <path d="M71.1104948,52.2062679 L60.280692,54.8343556 L55.5162917,62.4729753 L60.6935671,64.745916 L64.2163719,60.4101633 L70.0203857,85.5960037 L78.2867986,84.6430259 L77.6452085,93.6075277 L70.4332608,93.8531711 L69.7441456,96.0077294 L79.6887917,95.5963509 L82.0026744,83.5272725 L71.1104948,52.2062679 L71.1104948,52.2062679 Z M64.8371697,57.1072963 L60.280692,62.2687658 L58.623251,61.4400895 L61.7331807,56.4887486 L69.6253326,54.6715799 L79.1363113,82.9087248 L71.4699041,83.530232 L64.8371697,57.1072963 L64.8371697,57.1072963 Z" id="Fill-98" sketch:type="MSShapeGroup"></path>
            <path d="M56.5499646,86.4217204 C56.5499646,86.4217204 46.8132412,87.8659848 42.6696387,91.7873994 C38.5260361,95.7117736 36.8685951,100.663115 40.5963522,104.587489 C44.3270797,108.508903 56.3450122,108.094565 64.4242946,103.140265 C72.5035769,98.1859643 74.5768634,84.3589083 56.5499646,86.4217204 L56.5499646,86.4217204 Z M65.8738129,99.2188501 C63.182699,102.521717 50.9598141,107.476018 44.5350024,104.794658 C38.113161,102.113298 41.0121976,98.1859643 43.4983592,94.4717187 C45.987491,90.7545136 54.2717258,88.688742 54.2717258,88.688742 C72.0907019,86.2145513 68.5678971,95.9159831 65.8738129,99.2188501 L65.8738129,99.2188501 Z" id="Fill-99" sketch:type="MSShapeGroup"></path>
            <path d="M38.5260361,99.8373978 L39.9755544,110.571715 C39.9755544,110.571715 58.2103759,118.417504 70.8461359,104.998867 L70.2253381,93.0244948 L68.155022,96.7416999 L68.3629447,104.173151 C68.3629447,104.173151 58.4153283,115.321806 41.8409181,108.716072 L41.0121976,103.758812 L38.5260361,99.8373978" id="Fill-100" sketch:type="MSShapeGroup"></path>
            <path d="M56.7608576,91.7873994 C56.7578873,91.7873994 50.3360459,92.6101566 47.2290866,95.0902664 C44.119157,97.5674166 44.3270797,99.8373978 48.6786049,100.663115 C53.0301302,101.491791 60.6935671,99.0146406 62.5619012,95.7117736 C64.4242946,92.4059471 60.280692,91.1688518 56.7608576,91.7873994 L56.7608576,91.7873994 Z M60.6935671,94.0573806 C60.280692,94.8801378 60.9014898,96.3273617 55.7212441,97.9787952 C50.5439686,99.6302287 46.1924434,98.6003024 48.0578071,96.5345308 C49.9202005,94.4687592 55.308369,94.0573806 55.308369,94.0573806 C58.8311737,92.8173257 61.1094125,93.2346234 60.6935671,94.0573806 L60.6935671,94.0573806 Z" id="Fill-101" sketch:type="MSShapeGroup"></path>
            <path d="M63.1886396,71.8133411 C63.1886396,71.8133411 53.3479549,71.2599037 49.0795987,75.3292962 C44.8082722,79.3986888 42.9518195,84.7614082 44.6241121,91.4204142 L46.664725,90.1270873 C46.664725,90.1270873 44.9954027,83.4680813 48.7083082,78.2888544 C52.4212137,73.1096276 64.3025113,74.4029545 64.3025113,74.4029545 L63.1886396,71.8133411" id="Fill-102" sketch:type="MSShapeGroup"></path>
            <path d="M65.4163829,79.3986888 C65.4163829,79.3986888 53.7192454,76.8090753 52.6053738,88.0909112 L55.2044076,87.7209665 C55.2044076,87.7209665 57.6192814,79.3986888 66.3431241,81.6183574 L65.4163829,79.3986888" id="Fill-103" sketch:type="MSShapeGroup"></path>
            <path d="M47.4073061,77.5489649 C47.4073061,77.5489649 31.0705219,69.4101798 24.0160014,85.131353 L25.688294,86.6111321 C25.688294,86.6111321 31.813103,72.9231754 47.223146,79.2122366 L47.4073061,77.5489649" id="Fill-104" sketch:type="MSShapeGroup"></path>
            <path d="M45.3666932,84.0215187 C45.3666932,84.0215187 34.2279767,80.1385783 31.0705219,88.2773634 L32.371524,89.3871977 C32.371524,89.3871977 37.3824612,82.358247 45.5508533,86.0576947 L45.3666932,84.0215187" id="Fill-105" sketch:type="MSShapeGroup"></path>
            <path d="M37.8250396,94.5960202 L40.4062515,95.4838876 L39.8121866,97.1678763 L38.3686089,96.4605419 L37.8250396,94.5960202" id="Fill-106" sketch:type="MSShapeGroup"></path>
            <path d="M34.34976,89.9435947 C34.34976,89.9435947 39.2121811,85.8889999 44.8736194,88.5585214 L44.8736194,87.2740732 C44.8736194,87.2740732 37.9230603,84.5068862 33.6517338,89.552933 L34.34976,89.9435947" id="Fill-107" sketch:type="MSShapeGroup"></path>
            <path d="M57.9846313,86.3832461 C57.9846313,86.3832461 60.6638639,82.0267764 66.7203553,83.5124747 L66.6223346,82.6246072 C66.6223346,82.6246072 60.3816831,80.4226959 56.5499646,86.4217204 L57.9846313,86.3832461" id="Fill-108" sketch:type="MSShapeGroup"></path>
            <path d="M69.7976114,98.8489053 C69.7976114,98.8489053 73.4719027,97.4667916 75.4590497,95.093226 L73.9679469,94.6966452 C73.9679469,94.6966452 72.2778323,96.2740897 70.0976142,97.1678763 L69.7976114,98.8489053" id="Fill-109" sketch:type="MSShapeGroup"></path>
            <path d="M37.7240485,106.961054 L40.0111983,107.656551 L40.109219,106.073187 L37.6260278,105.280025 L37.7240485,106.961054" id="Fill-110" sketch:type="MSShapeGroup"></path>
            <path d="M77.3273838,95.0369944 L76.4838116,101.76407 C76.4838116,101.76407 74.2679496,103.758812 70.5758364,104.495742 L69.9431573,103.024842 C69.9431573,103.024842 72.6847667,102.604585 74.7966674,101.133684 L75.4590497,95.093226 L77.3273838,95.0369944" id="Fill-111" sketch:type="MSShapeGroup"></path>
        </g>
    </g>
</svg>