<?xml version="1.0" encoding="UTF-8" standalone="no"?>
<svg width="154px" height="211px" viewBox="0 0 154 211" version="1.1" xmlns="http://www.w3.org/2000/svg" xmlns:xlink="http://www.w3.org/1999/xlink" xmlns:sketch="http://www.bohemiancoding.com/sketch/ns">
    <!-- Generator: Sketch Beta 3.1 (8657) - http://www.bohemiancoding.com/sketch -->
    <title>illustration-flag</title>
    <desc>Created with Sketch Beta.</desc>
    <defs></defs>
    <g id="Page-1" stroke="none" stroke-width="1" fill="none" fill-rule="evenodd" sketch:type="MSPage">
        <g id="Group" sketch:type="MSLayerGroup" fill="#fff">
            <path d="M40.92032,143.258162 C40.92032,143.258162 54.37688,154.027191 68.02688,155.201824 C81.67688,156.376456 92.98688,153.829853 103.71344,143.258162 L103.71344,142.083529 C103.71344,142.083529 92.40032,153.046765 80.70032,153.438309 C69.00032,153.829853 59.83688,154.612941 41.50688,142.083529 L40.92032,143.258162" id="Fill-1" sketch:type="MSShapeGroup"></path>
            <path d="M72.4136,78.0676324 C60.83528,78.0676324 51.45032,87.48975 51.45032,99.1139118 C51.45032,110.734941 60.83528,120.157059 72.4136,120.157059 C83.99192,120.157059 93.37688,110.734941 93.37688,99.1139118 C93.37688,87.48975 83.99192,78.0676324 72.4136,78.0676324 L72.4136,78.0676324 Z M72.61016,116.633162 C63.07856,116.633162 55.35344,108.877456 55.35344,99.3081176 C55.35344,89.7387794 63.07856,81.9830735 72.61016,81.9830735 C82.14176,81.9830735 89.86688,89.7387794 89.86688,99.3081176 C89.86688,108.877456 82.14176,116.633162 72.61016,116.633162 L72.61016,116.633162 Z" id="Fill-2" sketch:type="MSShapeGroup"></path>
            <path d="M73.29344,90.3997059 C69.73976,90.3997059 66.85688,93.294 66.85688,96.86175 C66.85688,100.426368 69.73976,103.320662 73.29344,103.320662 C76.844,103.320662 79.72688,100.426368 79.72688,96.86175 C79.72688,93.294 76.844,90.3997059 73.29344,90.3997059 L73.29344,90.3997059 Z M71.53688,97.5477353 C70.19216,97.5477353 69.10016,96.4482794 69.10016,95.0982353 C69.10016,93.7513235 70.19216,92.6518676 71.53688,92.6518676 C72.8816,92.6518676 73.9736,93.7513235 73.9736,95.0982353 C73.9736,96.4482794 72.8816,97.5477353 71.53688,97.5477353 L71.53688,97.5477353 Z" id="Fill-3" sketch:type="MSShapeGroup"></path>
            <path d="M63.54344,127.204853 C63.54344,127.204853 56.52344,128.968368 55.54688,133.861103 C54.57344,138.756971 58.27688,143.258162 58.27688,143.258162 L60.03344,143.847044 C60.03344,143.847044 57.30032,137.190794 58.08344,134.449985 C58.86344,131.709176 64.71344,129.162574 64.71344,129.162574 L63.54344,127.204853" id="Fill-4" sketch:type="MSShapeGroup"></path>
            <path d="M58.66688,132.100721 C58.66688,132.100721 61.98032,139.148515 70.95344,140.323147 C79.92344,141.497779 86.55032,135.624618 89.47688,130.926088 L91.23032,132.492265 C91.23032,132.492265 87.33344,140.323147 80.31344,141.889324 C73.29344,143.4555 63.73688,143.4555 58.08344,134.449985 L58.66688,132.100721" id="Fill-5" sketch:type="MSShapeGroup"></path>
            <path d="M84.01688,128.576824 C84.01688,128.576824 91.81688,129.751456 91.62344,137.190794 L94.15688,136.407706 C94.15688,136.407706 93.96344,129.945662 86.74688,127.596397 L84.01688,128.576824" id="Fill-6" sketch:type="MSShapeGroup"></path>
            <path d="M46.77032,155.396029 L38.77688,189.068824 L41.31344,189.266162 L50.47688,157.35375 L46.77032,155.396029" id="Fill-7" sketch:type="MSShapeGroup"></path>
            <path d="M94.74032,156.768 L102.15344,179.671765 L101.37344,180.260647 L92.20688,158.919926 L94.74032,156.768" id="Fill-8" sketch:type="MSShapeGroup"></path>
            <path d="M59.05688,160.683441 L55.35344,188.874618 L56.52344,189.460368 L61.39688,161.660735 L59.05688,160.683441" id="Fill-9" sketch:type="MSShapeGroup"></path>
            <path d="M67.44344,162.835368 L67.05344,189.657706 L68.22344,189.851912 L70.17032,162.052279 L67.44344,162.835368" id="Fill-10" sketch:type="MSShapeGroup"></path>
            <path d="M76.02032,162.249618 L78.36032,186.719559 L80.11688,187.502647 L78.55688,162.052279 L76.02032,162.249618" id="Fill-11" sketch:type="MSShapeGroup"></path>
            <path d="M85.18688,161.074985 L89.28344,183.587206 L91.23032,183.784544 L87.13688,159.900353 L85.18688,161.074985" id="Fill-12" sketch:type="MSShapeGroup"></path>
            <path d="M42.87344,174.387485 C42.87344,174.387485 40.53344,170.274706 35.26688,169.297412 C30.00344,168.316985 24.15344,174.779029 26.49344,180.260647 C26.49344,180.260647 17.91344,178.888676 17.13344,187.308441 C16.35032,195.725074 20.83688,196.508162 25.12688,195.530868 C25.12688,195.530868 26.88032,201.598235 34.48688,201.795574 C34.48688,201.795574 26.49344,197.682794 27.46688,191.615426 C27.46688,191.615426 23.56688,193.964691 21.42344,192.984265 C19.27688,192.006971 19.47344,179.671765 30.39032,183.195662 C30.39032,183.195662 28.24688,177.714044 30.78344,174.779029 C33.31688,171.840882 38.58032,171.255132 42.28688,177.3225 L42.87344,174.387485" id="Fill-13" sketch:type="MSShapeGroup"></path>
            <path d="M101.76032,169.688956 C101.76032,169.688956 107.41688,162.443824 112.29032,165.184632 C117.16688,167.925441 116.58344,170.66625 114.82688,173.798603 C114.82688,173.798603 120.87344,173.798603 122.62688,180.454853 C124.38344,187.111103 122.43344,190.440794 119.31032,193.573147 C119.31032,193.573147 122.62688,183.97875 118.53344,179.671765 C114.43688,175.364779 111.12032,175.170574 109.17344,177.519838 C109.17344,177.519838 112.87688,173.212853 112.87688,170.66625 C112.87688,168.122779 109.95032,165.184632 101.76032,169.688956" id="Fill-14" sketch:type="MSShapeGroup"></path>
            <path d="M51.06344,201.206691 C51.06344,201.206691 50.47688,208.254485 56.91344,210.60375 C63.34688,212.953015 67.44344,206.688309 68.61344,204.339044 C68.61344,204.339044 70.36688,210.60375 77.97344,210.60375 C85.57688,210.60375 87.13688,202.772868 87.52688,199.640515 C87.52688,199.640515 83.82344,207.277191 79.14344,208.060279 C74.46344,208.843368 70.56344,203.753294 69.97688,198.857426 C69.97688,198.857426 66.46688,205.513676 62.17688,206.688309 C57.88688,207.862941 53.79032,207.277191 51.06344,201.206691" id="Fill-15" sketch:type="MSShapeGroup"></path>
            <path d="M46.83896,121.400603 C45.53792,119.574441 43.07,117.225176 38.25896,118.008265 C38.25896,118.008265 27.33896,120.225971 19.79792,127.142206 C13.19288,133.197044 4.98104,145.156368 2.12,149.723338 C-0.74104,154.290309 0.03896,159.903485 1.59896,161.338103 C2.19176,161.883132 3.25256,161.049926 4.45688,159.565191 C4.26344,160.749221 4.28528,162.265279 5.24,163.427382 C7.05896,165.645088 11.08688,163.164265 12.77792,158.988838 C12.77792,158.988838 11.48,162.644294 12.65,164.602015 C13.82,166.559735 18.89,167.602809 19.67,162.121191 C20.45,156.639574 19.67,154.813412 19.67,154.813412 C19.67,154.813412 23.57,159.6435 26.3,155.5965 C29.03,151.5495 25.12688,146.854103 24.08792,145.416353 C23.04896,143.978603 22.78688,140.197853 26.42792,137.585471 C30.06896,134.973088 30.32792,131.192338 39.42896,130.146132 C48.53,129.099926 48.14,123.226765 46.83896,121.400603 L46.83896,121.400603 Z M44.24,125.707588 C43.46,128.188412 36.82688,128.708382 33.44792,129.623029 C30.06896,130.537676 24.08792,136.79925 22.52792,138.496985 C20.96792,140.194721 20.06,142.412426 20.70896,144.110162 C21.35792,145.807897 23.43896,148.028735 24.21896,150.506426 C24.99896,152.984118 25.64792,154.550294 22.65896,153.898765 C19.67,153.247235 18.36896,149.200235 18.36896,149.200235 C18.36896,149.200235 18.23792,160.818132 17.58896,162.644294 C16.94,164.470456 13.82,165.253544 13.68896,161.338103 C13.55792,157.422662 14.07896,152.984118 14.07896,152.984118 C14.07896,152.984118 11.09,160.555015 9.00896,161.729647 C7.21808,162.741397 5.15888,161.604353 6.10424,157.275441 C7.6112,154.991956 9.10568,152.248015 10.04792,150.243309 C10.04792,150.243309 4.85,156.508015 3.54896,157.682647 C2.24792,158.857279 0.95,157.159544 2.37896,154.15875 C3.80792,151.157956 8.61584,143.850176 10.43792,141.369353 C12.26,138.888529 19.40792,130.537676 23.04896,128.056853 C26.69,125.576029 34.62104,120.229103 39.56,120.357529 C44.49896,120.485956 45.02,123.226765 44.24,125.707588 L44.24,125.707588 Z" id="Fill-16" sketch:type="MSShapeGroup"></path>
            <path d="M105.85688,91.3801324 C105.85688,91.3801324 105.07688,71.0198382 86.35688,64.7551324 C67.63688,58.4904265 41.11688,65.1466765 37.99688,88.2477794 C36.752,97.4662941 36.6272,109.243941 36.9236,120.066221 L41.60672,119.092059 C41.4476,103.267412 42.26504,85.7387647 46.18688,79.2422647 C53.98688,66.3213088 71.92688,65.1466765 85.18688,69.4536618 C98.44688,73.7606471 101.56688,90.2055 101.56688,90.2055 L102.73688,148.348235 C91.42688,160.486103 74.85032,159.900353 65.49032,159.117265 C56.13032,158.334176 42.87344,148.739779 42.87344,148.739779 C42.87344,148.739779 42.17456,139.897147 41.80952,128.413941 L37.28864,129.485206 C37.8752,141.444529 38.77688,150.503294 38.77688,150.503294 C38.77688,150.503294 48.91688,162.641162 69.58688,163.42425 C90.25688,164.207338 101.95688,155.984912 106.63688,150.11175 L105.85688,91.3801324" id="Fill-17" sketch:type="MSShapeGroup"></path>
            <path d="M119.53184,1.79483824 C119.53184,1.79483824 110.7272,-1.90133824 104.37488,3.44245588 C98.02568,8.78625 92.09144,25.4409706 69.56192,12.2819559 C69.56192,12.2819559 74.68184,42.9132353 74.68184,48.2601618 C74.68184,48.2601618 84.71576,56.0691176 97.20824,50.5217206 C109.6976,44.9711912 114.4088,31.8121765 128.5424,35.7182206 L127.51592,32.4323824 C127.51592,32.4323824 118.70816,30.7878971 109.6976,38.1865147 C100.69016,45.5882647 92.90888,54.0205588 77.54912,46.8224118 L72.63512,16.5983382 C72.63512,16.5983382 79.80176,21.9452647 89.22104,19.2702353 C98.64344,16.5983382 102.32816,11.0478088 104.37488,8.37591176 C106.42472,5.70088235 110.93,0.563823529 119.94056,4.67347059 L119.53184,1.79483824" id="Fill-18" sketch:type="MSShapeGroup"></path>
            <path d="M50.88248,80.6142353 C49.79672,79.3894853 47.89664,78.3025588 46.27112,77.4850147 L46.268,77.4881471 C42.86096,74.9634706 41.4632,72.2414559 41.06696,70.0143529 C45.91232,68.9023676 49.65632,64.9430735 48.10568,62.9571618 C45.6752,59.8467353 38.75816,61.2594265 38.17472,67.9031471 C34.23416,67.5460588 30.39032,64.2790147 30.39032,58.2899559 C30.3872,57.2500147 30.54632,56.4199412 30.79904,55.7308235 C35.46344,57.5037353 41.00768,54.3807794 37.43528,51.8310441 C34.85504,49.9860882 31.95032,51.06675 30.07208,53.5319118 C29.49176,52.9305 28.85216,52.1160882 28.1564,51.0135 C24.24392,44.8678235 31.73192,37.9954412 31.73192,37.9954412 C31.73192,37.9954412 23.85704,40.5169853 25.87256,49.5318971 C26.45912,52.1474118 27.7196,53.8420147 29.22032,54.8850882 C27.51992,58.1928529 27.47312,62.99475 31.16408,67.0072941 C33.29816,69.3283676 35.80976,70.2273529 38.2496,70.2931324 C39.00152,75.7966765 43.80008,79.1295 45.89048,80.3291912 C46.81088,81.1843235 47.97464,82.16475 48.71408,82.3840147 C50.06816,82.7912206 51.96824,81.8421176 50.88248,80.6142353 L50.88248,80.6142353 Z M35.73488,53.8200882 C34.56176,54.3619853 33.2888,55.6901029 31.38248,54.5937794 C33.2576,51.9907941 37.0484,53.2092794 35.73488,53.8200882 L35.73488,53.8200882 Z M44.97008,64.5045441 C45.60032,65.3722059 45.04496,66.7441765 40.98272,67.6870147 C41.0732,66.9477794 41.26664,66.3432353 41.48816,65.9422941 C42.53024,64.0628824 44.31176,63.5961618 44.97008,64.5045441 L44.97008,64.5045441 Z" id="Fill-19" sketch:type="MSShapeGroup"></path>
            <path d="M99.2924,74.9979265 C99.2924,74.9979265 105.86,72.0065294 106.08152,65.9579559 C106.30616,59.90625 100.34384,58.5029559 98.33144,61.0746176 C96.31592,63.6462794 105.71336,70.5311912 111.51656,64.2288971 C117.31664,57.9266029 111.27944,49.1027647 106.63376,52.4167941 C102.56528,55.32675 113.71616,59.2077353 115.63496,50.6282206 C117.20432,43.6148824 111.07352,41.6540294 111.07352,41.6540294 C111.07352,41.6540294 116.90168,47.0040882 113.85968,51.7840588 C110.8208,56.5671618 109.30448,54.5906471 107.95664,53.9673088 C106.61504,53.3408382 112.12808,51.8874265 112.11872,57.4473529 C112.1156,63.0041471 107.8568,65.5946029 104.29064,64.8616324 C100.71824,64.1255294 100.25336,62.9853529 100.76816,62.2805735 C101.27984,61.5726618 102.66824,61.9360147 103.47632,63.3988235 C104.29064,64.8616324 104.66816,69.6917206 98.10368,73.4787353 L99.2924,74.9979265" id="Fill-20" sketch:type="MSShapeGroup"></path>
            <path d="M104.10032,103.518 C104.10032,103.518 118.72688,99.6025588 123.40688,88.4419853 C128.08688,77.2845441 124.96688,61.6227794 127.89344,55.5522794 C130.81688,49.4849118 139.78688,44.3948382 142.51688,49.2875735 C145.24688,54.1834412 141.15344,63.5805 132.76688,61.0338971 C132.76688,61.0338971 138.61688,57.9015441 140.17688,54.7691912 C141.73688,51.6368382 139.00688,49.0933676 135.69032,50.85375 C132.37688,52.6172647 129.45344,56.1411618 129.25688,61.0338971 C129.06344,65.9297647 128.86688,80.6111029 126.91688,86.2900588 C124.96688,91.9658824 123.79688,101.362941 104.68688,106.061471 L104.10032,103.518" id="Fill-21" sketch:type="MSShapeGroup"></path>
            <path d="M105.07688,116.241618 C105.07688,116.241618 121.45688,110.565794 127.50032,103.712206 C133.54688,96.86175 138.03032,82.9603676 139.20032,77.2845441 L136.66688,70.8225 C136.66688,70.8225 135.30344,85.3096324 131.20688,93.7293971 C127.11344,102.146029 117.55688,109.782706 105.46688,112.717721 L105.07688,116.241618" id="Fill-22" sketch:type="MSShapeGroup"></path>
            <path d="M141.34688,49.2875735 C141.34688,49.2875735 145.83344,45.5694706 149.92688,47.3298529 C154.02344,49.0933676 155.38688,53.2030147 151.48688,55.9438235 C147.58688,58.6846324 143.49344,59.6650588 138.81344,58.8819706 L140.37032,56.5327059 C140.37032,56.5327059 147.39032,56.5327059 150.31688,54.5749853 C153.24032,52.6172647 148.36688,47.1356471 142.32344,50.85375 L141.34688,49.2875735" id="Fill-23" sketch:type="MSShapeGroup"></path>
            <path d="M139.78688,57.7073382 C139.78688,57.7073382 136.27688,59.4677206 136.86032,62.4058676 C137.44688,65.3408824 142.90688,66.3213088 147.97688,65.3408824 C153.04688,64.3635882 155.58032,58.8819706 149.92688,56.1411618 L147.78344,56.7269118 C147.78344,56.7269118 150.90032,58.8819706 150.12344,61.0338971 C149.34344,63.1889559 144.85688,63.7747059 141.93344,63.3831618 C139.00688,62.9916176 139.59344,59.4677206 142.12688,58.2930882 L139.78688,57.7073382" id="Fill-24" sketch:type="MSShapeGroup"></path>
            <path d="M141.15344,64.5577941 C141.15344,64.5577941 138.22688,65.9297647 139.00688,68.4732353 C139.78688,71.0198382 141.54032,70.8225 146.22032,71.0198382 C150.90032,71.2140441 154.80344,66.7128529 150.31688,63.7747059 L148.36688,64.16625 C148.36688,64.16625 150.31688,65.7324265 149.53688,67.2986029 C148.75688,68.8647794 146.02688,68.8647794 143.49344,68.6705735 C140.95688,68.4732353 141.34688,66.3213088 143.49344,65.1466765 L141.15344,64.5577941" id="Fill-25" sketch:type="MSShapeGroup"></path>
            <path d="M141.15344,64.5577941 L140.28608,63.7684412 C140.44832,64.3573235 140.60744,64.9336765 140.76656,65.5037647 L141.15344,64.5577941" id="Fill-26" sketch:type="MSShapeGroup"></path>
            <path d="M140.66672,56.7895588 C140.60744,56.5796912 140.54816,56.3760882 140.492,56.1630882 L140.37032,56.5327059 L140.66672,56.7895588" id="Fill-27" sketch:type="MSShapeGroup"></path>
            <path d="M147.58688,80.7426618 C147.16568,79.5210441 145.95512,75.3769412 144.30152,69.6102794 L141.93656,69.7449706 C144.05192,77.4035735 145.5932,82.8632647 145.94888,83.8280294 C147.38408,87.7340735 147.38096,91.2297794 145.33112,90.4059706 C143.2844,89.5852941 141.85232,81.9768088 141.85232,81.9768088 L136.08656,60.5358529 L135.69032,60.6423529 L133.45328,60.9430588 C137.82752,76.7896324 141.44048,89.5852941 141.44048,89.5852941 C141.44048,89.5852941 141.6464,93.9048088 146.15168,93.9048088 C150.65696,93.9048088 149.63672,86.7066618 147.58688,80.7426618" id="Fill-28" sketch:type="MSShapeGroup"></path>
            <path d="M120.5552,2.82225 C121.16984,2.41191176 123.62528,2.41191176 123.62528,2.41191176 C123.62528,2.41191176 130.38008,27.4707353 136.47032,49.8106765 L138.5108,49.1309559 C132.15536,26.4934412 124.85456,0.150352941 124.85456,0.150352941 C124.85456,0.150352941 119.73152,-0.259985294 118.29944,1.17776471 C117.51008,1.97338235 124.6892,29.0055882 131.25992,52.9680882 L133.57184,51.1951765 L120.5552,2.82225" id="Fill-29" sketch:type="MSShapeGroup"></path>
        </g>
    </g>
</svg>