<?xml version="1.0" encoding="UTF-8" standalone="no"?>
<svg width="775px" height="216px" viewBox="0 0 775 216" version="1.1" xmlns="http://www.w3.org/2000/svg" xmlns:xlink="http://www.w3.org/1999/xlink" xmlns:sketch="http://www.bohemiancoding.com/sketch/ns">
    <!-- Generator: Sketch Beta 3.1 (8657) - http://www.bohemiancoding.com/sketch -->
    <title>Imported Layers</title>
    <desc>Created with Sketch Beta.</desc>
    <defs></defs>
    <g id="Page-1" stroke="none" stroke-width="1" fill="none" fill-rule="evenodd" sketch:type="MSPage">
        <g id="Imported-Layers" sketch:type="MSLayerGroup">
            <path d="M245.57,59.992 L259.521,59.992 L277.417,109.594 L284.04,128.477 L284.604,128.477 L291.085,109.594 L308.841,59.992 L322.65,59.992 L322.65,152.432 L311.519,152.432 L311.519,101.562 C311.519,93.389 312.505,82.398 313.068,74.224 L312.505,74.224 L305.177,94.798 L287.422,143.132 L280.658,143.132 L262.903,94.798 L255.575,74.224 L255.011,74.224 C255.575,82.398 256.42,93.389 256.42,101.562 L256.42,152.432 L245.57,152.432 L245.57,59.992" id="Fill-1" fill="#444444" sketch:type="MSShapeGroup"></path>
            <path d="M377.327,109.03 C377.327,100.294 374.367,91.839 363.235,91.839 C355.203,91.839 348.157,95.502 342.803,99.167 L338.152,91.134 C344.494,87.048 354.076,82.256 365.067,82.256 C381.836,82.256 388.882,93.389 388.882,110.44 L388.882,152.432 L379.299,152.432 L378.313,144.259 L378.031,144.259 C371.408,149.614 363.799,154.123 355.344,154.123 C343.789,154.123 335.193,146.937 335.193,134.677 C335.193,119.74 348.157,112.271 377.327,109.03 L377.327,109.03 Z M358.585,144.823 C365.208,144.823 370.704,141.581 377.327,135.663 L377.327,116.64 C354.357,119.458 346.607,125.095 346.607,133.831 C346.607,141.581 351.821,144.823 358.585,144.823 L358.585,144.823 Z" id="Fill-2" fill="#444444" sketch:type="MSShapeGroup"></path>
            <path d="M407.624,150.037 L407.624,149.473 C404.242,147.359 401.565,143.695 401.565,138.341 C401.565,132.563 405.511,128.054 409.033,125.658 L409.033,125.095 C404.524,121.431 400.156,114.808 400.156,106.635 C400.156,91.698 411.993,82.256 425.943,82.256 C429.748,82.256 433.13,82.961 435.667,83.947 L459.481,83.947 L459.481,92.825 L445.39,92.825 C448.631,95.925 451.026,101.139 451.026,106.917 C451.026,121.572 439.894,130.731 425.943,130.731 C422.562,130.731 418.757,129.886 415.656,128.335 C413.261,130.449 411.288,132.704 411.288,136.509 C411.288,140.877 414.106,143.977 423.407,143.977 L436.653,143.977 C452.576,143.977 460.608,148.909 460.608,160.323 C460.608,173.006 447.222,183.997 425.943,183.997 C409.175,183.997 397.619,177.374 397.619,165.537 C397.619,159.76 401.424,154.264 407.624,150.037 L407.624,150.037 Z M427.635,175.965 C440.739,175.965 449.335,169.201 449.335,162.014 C449.335,155.673 444.403,153.56 435.525,153.56 L423.688,153.56 C421.012,153.56 417.771,153.278 414.812,152.432 C409.879,155.955 407.766,160.042 407.766,163.987 C407.766,171.315 415.233,175.965 427.635,175.965 L427.635,175.965 Z M440.458,106.635 C440.458,96.63 433.976,90.711 425.943,90.711 C417.911,90.711 411.429,96.63 411.429,106.635 C411.429,116.64 418.052,122.981 425.943,122.981 C433.835,122.981 440.458,116.64 440.458,106.635 L440.458,106.635 Z" id="Fill-3" fill="#444444" sketch:type="MSShapeGroup"></path>
            <path d="M491.471,82.256 C508.944,82.256 518.809,94.798 518.809,114.385 C518.809,116.781 518.668,119.035 518.386,120.726 L472.166,120.726 C473.011,135.523 481.889,144.823 494.994,144.823 C501.476,144.823 506.972,142.709 512.045,139.468 L516.131,147.077 C510.213,150.882 502.885,154.123 493.585,154.123 C475.266,154.123 460.752,140.736 460.752,118.331 C460.752,95.925 475.829,82.256 491.471,82.256 L491.471,82.256 Z M508.663,113.117 C508.663,99.167 502.463,91.416 491.753,91.416 C482.171,91.416 473.434,99.307 472.024,113.117 L508.663,113.117 L508.663,113.117 Z" id="Fill-4" fill="#444444" sketch:type="MSShapeGroup"></path>
            <path d="M530.224,59.992 L583.63,59.992 L583.63,69.856 L542.061,69.856 L542.061,101.139 L577.289,101.139 L577.289,111.003 L542.061,111.003 L542.061,152.432 L530.224,152.432 L530.224,59.992" id="Fill-5" fill="#444444" sketch:type="MSShapeGroup"></path>
            <path d="M591.523,52.101 L603.079,52.101 L603.079,139.468 C603.079,143.132 604.629,144.541 606.32,144.541 C607.024,144.541 607.588,144.541 608.856,144.259 L610.406,152.996 C608.856,153.7 606.884,154.123 603.783,154.123 C595.047,154.123 591.523,148.627 591.523,138.623 L591.523,52.101" id="Fill-6" fill="#444444" sketch:type="MSShapeGroup"></path>
            <path d="M646.197,82.256 C662.967,82.256 677.903,95.362 677.903,118.331 C677.903,141.018 662.967,154.123 646.197,154.123 C629.429,154.123 614.492,141.018 614.492,118.331 C614.492,95.362 629.429,82.256 646.197,82.256 L646.197,82.256 Z M646.197,144.541 C658.034,144.541 665.926,133.972 665.926,118.331 C665.926,102.548 658.034,91.839 646.197,91.839 C634.502,91.839 626.47,102.548 626.47,118.331 C626.47,133.972 634.502,144.541 646.197,144.541 L646.197,144.541 Z" id="Fill-7" fill="#444444" sketch:type="MSShapeGroup"></path>
            <path d="M679.737,83.947 L691.574,83.947 L701.72,123.544 C703.271,130.027 704.538,136.227 705.807,142.568 L706.37,142.568 C707.92,136.227 709.329,129.886 711.021,123.544 L721.589,83.947 L732.862,83.947 L743.572,123.544 C745.263,130.027 746.812,136.227 748.363,142.568 L748.927,142.568 C750.477,136.227 751.745,130.027 753.154,123.544 L763.159,83.947 L774.15,83.947 L755.831,152.432 L741.74,152.432 L731.876,115.653 C730.185,109.171 728.917,102.83 727.226,95.925 L726.662,95.925 C725.112,102.83 723.703,109.312 721.871,115.794 L712.289,152.432 L698.761,152.432 L679.737,83.947" id="Fill-8" fill="#444444" sketch:type="MSShapeGroup"></path>
            <path d="M215.964,107.795 C215.964,167.332 167.701,215.594 108.166,215.594 C48.63,215.594 0.366,167.332 0.366,107.795 C0.366,48.259 48.63,-0.003 108.166,-0.003 C167.701,-0.003 215.964,48.259 215.964,107.795" id="Fill-9" fill="#6459C4" sketch:type="MSShapeGroup"></path>
            <path d="M142.085,105.949 L142.085,173.79 L169.224,146.652 L169.224,78.813 L142.085,105.949 L142.085,105.949 Z M47.863,146.652 L74.999,173.79 L74.999,105.949 L47.863,78.813 L47.863,146.652 L47.863,146.652 Z" id="Fill-10" fill="#FFFFFF" sketch:type="MSShapeGroup"></path>
            <path d="M153.705,46.273 L108.165,91.815 L62.623,46.273 L44.501,64.398 C44.501,64.398 65.885,85.778 76.884,96.78 C105.977,125.874 108.165,128.072 108.165,128.072 C108.165,128.072 110.351,125.874 139.445,96.78 C150.446,85.778 171.829,64.398 171.829,64.398 L153.705,46.273" id="Fill-11" fill="#FFFFFF" sketch:type="MSShapeGroup"></path>
            <path d="M108.165,41.8 L88.977,60.988 L108.165,80.176 L127.353,60.988 L108.165,41.8" id="Fill-12" fill="#FFFFFF" sketch:type="MSShapeGroup"></path>
        </g>
    </g>
</svg>