<?xml version="1.0" encoding="UTF-8" standalone="no"?>
<svg width="402px" height="329px" viewBox="0 0 402 329" version="1.1" xmlns="http://www.w3.org/2000/svg" xmlns:xlink="http://www.w3.org/1999/xlink" xmlns:sketch="http://www.bohemiancoding.com/sketch/ns">
    <!-- Generator: Sketch Beta 3.1 (8657) - http://www.bohemiancoding.com/sketch -->
    <title>Group</title>
    <desc>Created with Sketch Beta.</desc>
    <defs></defs>
    <g id="Page-1" stroke="none" stroke-width="1" fill="none" fill-rule="evenodd" sketch:type="MSPage">
        <g id="Group" sketch:type="MSLayerGroup" transform="translate(1.000000, 1.000000)">
            <path d="M34.4335591,92.099271 L-0.152539188,144.803391 L364.542709,144.803391 L399.128807,92.099271 L34.4335591,92.099271 L34.4335591,92.099271 Z" id="Fill-1" fill="#6360A8" sketch:type="MSShapeGroup"></path>
            <path d="M399.128807,92.099271 L34.4335591,92.099271 L-0.152539188,144.803391 L364.542709,144.803391 L399.128807,92.099271 L399.128807,92.099271 Z" id="Stroke-2" stroke="#FEFEFE" sketch:type="MSShapeGroup"></path>
            <path d="M91.1542963,327.452064 L-0.151906245,327.452064 L-0.151906245,235.909431 L91.1542963,235.909431 L91.1542963,327.452064 L91.1542963,327.452064 Z" id="Fill-4" fill="#D1D2D4" sketch:type="MSShapeGroup"></path>
            <path d="M91.1542963,327.452064 L-0.151906245,327.452064 L-0.151906245,235.909431 L91.1542963,235.909431 L91.1542963,327.452064 L91.1542963,327.452064 Z" id="Stroke-5" stroke="#FEFEFE" sketch:type="MSShapeGroup"></path>
            <path d="M91.1545073,327.452275 L125.740606,274.743924 L125.740606,183.203408 L91.1545073,235.909643 L91.1545073,327.452275 L91.1545073,327.452275 Z" id="Fill-7" fill="#BBBDBF" sketch:type="MSShapeGroup"></path>
            <path d="M91.1545073,327.452275 L125.740606,274.743924 L125.740606,183.203408 L91.1545073,235.909643 L91.1545073,327.452275 L91.1545073,327.452275 Z" id="Stroke-8" stroke="#FEFEFE" sketch:type="MSShapeGroup"></path>
            <path d="M228.112545,327.452064 L136.806343,327.452064 L136.806343,235.909431 L228.112545,235.909431 L228.112545,327.452064 L228.112545,327.452064 Z" id="Fill-10" fill="#A6A9AB" sketch:type="MSShapeGroup"></path>
            <path d="M228.112545,327.452064 L136.806343,327.452064 L136.806343,235.909431 L228.112545,235.909431 L228.112545,327.452064 L228.112545,327.452064 Z" id="Stroke-11" stroke="#FEFEFE" sketch:type="MSShapeGroup"></path>
            <path d="M228.112756,327.452275 L262.698855,274.743924 L262.698855,183.203408 L228.112756,235.909643 L228.112756,327.452275 L228.112756,327.452275 Z" id="Fill-13" fill="#939597" sketch:type="MSShapeGroup"></path>
            <path d="M228.112756,327.452275 L262.698855,274.743924 L262.698855,183.203408 L228.112756,235.909643 L228.112756,327.452275 L228.112756,327.452275 Z" id="Stroke-14" stroke="#FEFEFE" sketch:type="MSShapeGroup"></path>
            <path d="M365.070794,327.452064 L273.764592,327.452064 L273.764592,235.909431 L365.070794,235.909431 L365.070794,327.452064 L365.070794,327.452064 Z" id="Fill-16" fill="#BBBDBF" sketch:type="MSShapeGroup"></path>
            <path d="M365.070794,327.452064 L273.764592,327.452064 L273.764592,235.909431 L365.070794,235.909431 L365.070794,327.452064 L365.070794,327.452064 Z" id="Stroke-17" stroke="#FEFEFE" sketch:type="MSShapeGroup"></path>
            <path d="M365.071216,327.452275 L399.657315,274.743924 L399.657315,183.203408 L365.071216,235.909643 L365.071216,327.452275 L365.071216,327.452275 Z" id="Fill-19" fill="#A6A9AB" sketch:type="MSShapeGroup"></path>
            <path d="M365.071216,327.452275 L399.657315,274.743924 L399.657315,183.203408 L365.071216,235.909643 L365.071216,327.452275 L365.071216,327.452275 Z" id="Stroke-20" stroke="#FEFEFE" sketch:type="MSShapeGroup"></path>
            <path d="M399.657315,183.258404 L399.657315,91.7178875 L365.071216,144.424123 L365.071216,235.966755 L399.657315,183.258404 L399.657315,183.258404 Z" id="Fill-22" fill="#423F93" sketch:type="MSShapeGroup"></path>
            <path d="M365.071216,235.966755 L399.657315,183.258404 L399.657315,91.7178875 L365.071216,144.424123 L365.071216,235.966755 L365.071216,235.966755 Z" id="Stroke-23" stroke="#FEFEFE" sketch:type="MSShapeGroup"></path>
            <path d="M91.1542963,144.743318 L-0.151906245,144.743318 L-0.151906245,53.2006857 L91.1542963,53.2006857 L91.1542963,144.743318 L91.1542963,144.743318 Z" id="Fill-25" fill="#D1D2D4" sketch:type="MSShapeGroup"></path>
            <path d="M91.1542963,144.743318 L-0.151906245,144.743318 L-0.151906245,53.2006857 L91.1542963,53.2006857 L91.1542963,144.743318 L91.1542963,144.743318 Z" id="Stroke-26" stroke="#FEFEFE" sketch:type="MSShapeGroup"></path>
            <path d="M125.739762,0.495930651 L34.4335591,0.495930651 L-0.152539188,53.2000512 L91.1536633,53.2000512 L125.739762,0.495930651 L125.739762,0.495930651 Z" id="Fill-28" fill="#E6E7E7" sketch:type="MSShapeGroup"></path>
            <path d="M125.739762,0.495930651 L34.4335591,0.495930651 L-0.152539188,53.2000512 L91.1536633,53.2000512 L125.739762,0.495930651 L125.739762,0.495930651 Z" id="Stroke-29" stroke="#FEFEFE" sketch:type="MSShapeGroup"></path>
            <path d="M91.1545073,144.743529 L125.740606,92.0372936 L125.740606,0.496776759 L91.1545073,53.2008972 L91.1545073,144.743529 L91.1545073,144.743529 Z" id="Fill-31" fill="#BBBDBF" sketch:type="MSShapeGroup"></path>
            <path d="M91.1545073,144.743529 L125.740606,92.0372936 L125.740606,0.496776759 L91.1545073,53.2008972 L91.1545073,144.743529 L91.1545073,144.743529 Z" id="Stroke-32" stroke="#FEFEFE" sketch:type="MSShapeGroup"></path>
            <path d="M136.806343,144.743318 L136.806343,53.2006857 L228.112545,53.2006857 L228.112545,144.743318 L136.806343,144.743318 Z" id="Fill-34" fill="#A6A9AB" sketch:type="MSShapeGroup"></path>
            <path d="M228.112545,144.743318 L136.806343,144.743318 L136.806343,53.2006857 L228.112545,53.2006857 L228.112545,144.743318 L228.112545,144.743318 Z" id="Stroke-35" stroke="#FEFEFE" sketch:type="MSShapeGroup"></path>
            <path d="M262.69801,0.495930651 L171.391808,0.495930651 L136.80571,53.2000512 L228.111913,53.2000512 L262.69801,0.495930651 L262.69801,0.495930651 Z" id="Fill-36" fill="#BBBDBF" sketch:type="MSShapeGroup"></path>
            <path d="M262.69801,0.495930651 L171.391808,0.495930651 L136.80571,53.2000512 L228.111913,53.2000512 L262.69801,0.495930651 L262.69801,0.495930651 Z" id="Stroke-37" stroke="#FEFEFE" sketch:type="MSShapeGroup"></path>
            <path d="M228.112756,144.743529 L262.698855,92.0372936 L262.698855,0.496776759 L228.112756,53.2008972 L228.112756,144.743529 L228.112756,144.743529 Z" id="Fill-39" fill="#939597" sketch:type="MSShapeGroup"></path>
            <path d="M228.112756,144.743529 L262.698855,92.0372936 L262.698855,0.496776759 L228.112756,53.2008972 L228.112756,144.743529 L228.112756,144.743529 Z" id="Stroke-40" stroke="#FEFEFE" sketch:type="MSShapeGroup"></path>
            <path d="M365.070794,144.743318 L273.764592,144.743318 L273.764592,53.2006857 L365.070794,53.2006857 L365.070794,144.743318 L365.070794,144.743318 Z" id="Fill-42" fill="#BBBDBF" sketch:type="MSShapeGroup"></path>
            <path d="M365.070794,144.743318 L273.764592,144.743318 L273.764592,53.2006857 L365.070794,53.2006857 L365.070794,144.743318 L365.070794,144.743318 Z" id="Stroke-43" stroke="#FEFEFE" sketch:type="MSShapeGroup"></path>
            <path d="M399.656259,0.495930651 L308.352167,0.495930651 L273.763959,53.2000512 L365.070161,53.2000512 L399.656259,0.495930651 L399.656259,0.495930651 Z" id="Fill-44" fill="#D1D2D4" sketch:type="MSShapeGroup"></path>
            <path d="M399.656259,0.495930651 L308.352167,0.495930651 L273.763959,53.2000512 L365.070161,53.2000512 L399.656259,0.495930651 L399.656259,0.495930651 Z" id="Stroke-45" stroke="#FEFEFE" sketch:type="MSShapeGroup"></path>
            <path d="M365.071216,144.743529 L399.657315,92.0372936 L399.657315,0.496776759 L365.071216,53.2008972 L365.071216,144.743529 L365.071216,144.743529 Z" id="Fill-47" fill="#A6A9AB" sketch:type="MSShapeGroup"></path>
            <path d="M365.071216,144.743529 L399.657315,92.0372936 L399.657315,0.496776759 L365.071216,53.2008972 L365.071216,144.743529 L365.071216,144.743529 Z" id="Stroke-48" stroke="#FEFEFE" sketch:type="MSShapeGroup"></path>
            <path d="M30.5221843,79.37464 L25.2750895,75.9923198 L25.2750895,99.1883941 L30.5221843,102.570714 L30.5221843,79.37464 L30.5221843,79.37464 Z" id="Fill-50" fill="#FEFEFE" sketch:type="MSShapeGroup"></path>
            <path d="M45.6267286,106.862813 L42.4177092,104.762348 L42.4177092,78.4547081 L35.9532546,82.1522038 L35.9532546,105.346163 L45.6267286,111.514296 L45.6267286,106.862813 L45.6267286,106.862813 Z" id="Fill-51" fill="#FEFEFE" sketch:type="MSShapeGroup"></path>
            <path d="M45.5813677,106.862813 L48.7903872,104.762348 L48.7903872,78.4547081 L55.2611712,82.1500885 L55.2611712,105.344048 L45.5813677,111.514296 L45.5813677,106.862813 L45.5813677,106.862813 Z" id="Fill-52" fill="#FEFEFE" sketch:type="MSShapeGroup"></path>
            <path d="M25.4516804,82.3387708 L45.2775553,70.6878519 L45.2037119,64.6064446 L25.3757274,76.2573635 L25.4516804,82.3387708 L25.4516804,82.3387708 Z" id="Fill-53" fill="#FEFEFE" sketch:type="MSShapeGroup"></path>
            <path d="M59.8533814,79.37464 L65.1004764,75.9944351 L65.1004764,99.1883941 L59.8533814,102.568599 L59.8533814,79.37464 L59.8533814,79.37464 Z" id="Fill-54" fill="#FEFEFE" sketch:type="MSShapeGroup"></path>
            <path d="M64.9240963,82.3366555 L45.0961117,70.6857366 L45.1720648,64.6064446 L65.0000495,76.2573635 L64.9240963,82.3366555 L64.9240963,82.3366555 Z" id="Fill-55" fill="#FEFEFE" sketch:type="MSShapeGroup"></path>
            <path d="M168.766151,79.37464 L163.519055,75.9923198 L163.519055,99.1883941 L168.766151,102.570714 L168.766151,79.37464 L168.766151,79.37464 Z" id="Fill-56" fill="#FEFEFE" sketch:type="MSShapeGroup"></path>
            <path d="M183.872805,106.862813 L180.663786,104.762348 L180.663786,78.4525928 L174.199331,82.1522038 L174.199331,105.346163 L183.872805,111.514296 L183.872805,106.862813 L183.872805,106.862813 Z" id="Fill-57" fill="#FEFEFE" sketch:type="MSShapeGroup"></path>
            <path d="M183.825335,106.862813 L187.034354,104.762348 L187.034354,78.4547081 L193.507247,82.1500885 L193.507247,105.344048 L183.825335,111.514296 L183.825335,106.862813 L183.825335,106.862813 Z" id="Fill-58" fill="#FEFEFE" sketch:type="MSShapeGroup"></path>
            <path d="M163.695647,82.3387708 L183.523631,70.6878519 L183.447679,64.6064446 L163.619693,76.2573635 L163.695647,82.3387708 L163.695647,82.3387708 Z" id="Fill-59" fill="#FEFEFE" sketch:type="MSShapeGroup"></path>
            <path d="M198.097559,79.37464 L203.344654,75.9902046 L203.344654,99.1883941 L198.097559,102.568599 L198.097559,79.37464 L198.097559,79.37464 Z" id="Fill-60" fill="#FEFEFE" sketch:type="MSShapeGroup"></path>
            <path d="M203.168062,82.3366555 L183.340079,70.6857366 L183.416031,64.6064446 L203.244016,76.2573635 L203.168062,82.3366555 L203.168062,82.3366555 Z" id="Fill-61" fill="#FEFEFE" sketch:type="MSShapeGroup"></path>
            <path d="M305.403075,79.37464 L300.155981,75.9944351 L300.155981,99.1883941 L305.403075,102.570714 L305.403075,79.37464 L305.403075,79.37464 Z" id="Fill-62" fill="#FEFEFE" sketch:type="MSShapeGroup"></path>
            <path d="M320.50973,106.864928 L317.30071,104.762348 L317.30071,78.4547081 L310.836255,82.1543191 L310.836255,105.348278 L320.50973,111.516412 L320.50973,106.864928 L320.50973,106.864928 Z" id="Fill-63" fill="#FEFEFE" sketch:type="MSShapeGroup"></path>
            <path d="M320.462259,106.864928 L323.671279,104.762348 L323.671279,78.4547081 L330.144172,82.1522038 L330.144172,105.346163 L320.462259,111.516412 L320.462259,106.864928 L320.462259,106.864928 Z" id="Fill-64" fill="#FEFEFE" sketch:type="MSShapeGroup"></path>
            <path d="M300.332572,82.3387708 L320.160557,70.6878519 L320.084603,64.6064446 L300.256619,76.2573635 L300.332572,82.3387708 L300.332572,82.3387708 Z" id="Fill-65" fill="#FEFEFE" sketch:type="MSShapeGroup"></path>
            <path d="M334.734483,79.37464 L339.981579,75.9923198 L339.981579,99.1883941 L334.734483,102.570714 L334.734483,79.37464 L334.734483,79.37464 Z" id="Fill-66" fill="#FEFEFE" sketch:type="MSShapeGroup"></path>
            <path d="M339.804988,82.3387708 L319.979113,70.6878519 L320.052956,64.6043293 L339.880941,76.2552482 L339.804988,82.3387708 L339.804988,82.3387708 Z" id="Fill-67" fill="#FEFEFE" sketch:type="MSShapeGroup"></path>
            <path d="M-0.151906245,236.16961 L-0.151906245,144.626978 L364.638283,144.626978 L364.638283,236.16961 L-0.151906245,236.16961 L-0.151906245,236.16961 Z" id="Fill-68" fill="#58539F" sketch:type="MSShapeGroup"></path>
            <path d="M364.638283,236.16961 L-0.151906245,236.16961 L-0.151906245,144.626978 L364.638283,144.626978 L364.638283,236.16961 L364.638283,236.16961 Z" id="Stroke-69" stroke="#FEFEFE" sketch:type="MSShapeGroup"></path>
            <path d="M6.984,133 L9.144,133 C11.472,133 12.9,131.644 12.9,129.04 C12.9,126.448 11.472,125.152 9.072,125.152 L6.984,125.152 L6.984,133 Z M8.376,131.872 L8.376,126.28 L8.976,126.28 C10.56,126.28 11.472,127.12 11.472,129.04 C11.472,130.972 10.56,131.872 8.976,131.872 L8.376,131.872 Z M14.46,133 L19.296,133 L19.296,131.824 L15.852,131.824 L15.852,129.508 L18.672,129.508 L18.672,128.332 L15.852,128.332 L15.852,126.328 L19.176,126.328 L19.176,125.152 L14.46,125.152 L14.46,133 Z M22.26,133 L23.916,133 L26.34,125.152 L24.924,125.152 L23.832,129.1 C23.58,129.988 23.4,130.756 23.136,131.656 L23.088,131.656 C22.824,130.756 22.656,129.988 22.404,129.1 L21.3,125.152 L19.824,125.152 L22.26,133 Z M27.264,133 L32.1,133 L32.1,131.824 L28.656,131.824 L28.656,129.508 L31.476,129.508 L31.476,128.332 L28.656,128.332 L28.656,126.328 L31.98,126.328 L31.98,125.152 L27.264,125.152 L27.264,133 Z M33.672,133 L38.316,133 L38.316,131.824 L35.064,131.824 L35.064,125.152 L33.672,125.152 L33.672,133 Z M42.336,133.144 C44.376,133.144 45.792,131.584 45.792,129.04 C45.792,126.508 44.376,125.008 42.336,125.008 C40.284,125.008 38.868,126.508 38.868,129.04 C38.868,131.584 40.284,133.144 42.336,133.144 L42.336,133.144 Z M42.336,131.932 C41.1,131.932 40.296,130.804 40.296,129.04 C40.296,127.288 41.1,126.22 42.336,126.22 C43.56,126.22 44.364,127.288 44.364,129.04 C44.364,130.804 43.56,131.932 42.336,131.932 L42.336,131.932 Z M47.34,133 L48.732,133 L48.732,130.12 L49.98,130.12 C51.66,130.12 52.956,129.316 52.956,127.576 C52.956,125.752 51.696,125.152 49.98,125.152 L47.34,125.152 L47.34,133 Z M48.732,129.004 L48.732,126.268 L49.86,126.268 C51,126.268 51.588,126.592 51.588,127.576 C51.588,128.536 51.036,129.004 49.86,129.004 L48.732,129.004 Z M54.396,133 L55.668,133 L55.668,129.412 C55.668,128.68 55.56,127.636 55.5,126.916 L55.548,126.916 L56.172,128.704 L57.528,132.268 L58.164,132.268 L59.52,128.704 L60.156,126.916 L60.204,126.916 C60.132,127.636 60.024,128.68 60.024,129.412 L60.024,133 L61.332,133 L61.332,125.152 L59.796,125.152 L58.416,129.016 L57.9,130.504 L57.852,130.504 L57.336,129.016 L55.92,125.152 L54.396,125.152 L54.396,133 Z M63.3,133 L68.136,133 L68.136,131.824 L64.692,131.824 L64.692,129.508 L67.512,129.508 L67.512,128.332 L64.692,128.332 L64.692,126.328 L68.016,126.328 L68.016,125.152 L63.3,125.152 L63.3,133 Z M69.708,133 L71.028,133 L71.028,129.568 C71.028,128.692 70.92,127.744 70.848,126.916 L70.896,126.916 L71.712,128.584 L74.148,133 L75.576,133 L75.576,125.152 L74.256,125.152 L74.256,128.56 C74.256,129.436 74.364,130.432 74.436,131.236 L74.388,131.236 L73.572,129.568 L71.136,125.152 L69.708,125.152 L69.708,133 Z M79.128,133 L80.52,133 L80.52,126.328 L82.776,126.328 L82.776,125.152 L76.86,125.152 L76.86,126.328 L79.128,126.328 L79.128,133 Z" id="DEVELOPMENT-3" fill="#FFFFFF" sketch:type="MSShapeGroup"></path>
            <path d="M19.476,285 L22.716,285 C26.208,285 28.35,282.966 28.35,279.06 C28.35,275.172 26.208,273.228 22.608,273.228 L19.476,273.228 L19.476,285 Z M21.564,283.308 L21.564,274.92 L22.464,274.92 C24.84,274.92 26.208,276.18 26.208,279.06 C26.208,281.958 24.84,283.308 22.464,283.308 L21.564,283.308 Z M32.49,280.176 L32.904,278.736 C33.282,277.494 33.624,276.162 33.948,274.848 L34.02,274.848 C34.362,276.144 34.722,277.494 35.082,278.736 L35.496,280.176 L32.49,280.176 Z M36.882,285 L39.096,285 L35.262,273.228 L32.814,273.228 L28.962,285 L31.104,285 L32.022,281.814 L35.964,281.814 L36.882,285 Z M42.156,285 L44.244,285 L44.244,274.992 L47.628,274.992 L47.628,273.228 L38.754,273.228 L38.754,274.992 L42.156,274.992 L42.156,285 Z M50.814,280.176 L51.228,278.736 C51.606,277.494 51.948,276.162 52.272,274.848 L52.344,274.848 C52.686,276.144 53.046,277.494 53.406,278.736 L53.82,280.176 L50.814,280.176 Z M55.206,285 L57.42,285 L53.586,273.228 L51.138,273.228 L47.286,285 L49.428,285 L50.346,281.814 L54.288,281.814 L55.206,285 Z M64.494,280.176 L64.908,278.736 C65.286,277.494 65.628,276.162 65.952,274.848 L66.024,274.848 C66.366,276.144 66.726,277.494 67.086,278.736 L67.5,280.176 L64.494,280.176 Z M68.886,285 L71.1,285 L67.266,273.228 L64.818,273.228 L60.966,285 L63.108,285 L64.026,281.814 L67.968,281.814 L68.886,285 Z" id="DATA-A-3" fill="#FFFFFF" sketch:type="MSShapeGroup"></path>
            <path d="M157.476,285 L160.716,285 C164.208,285 166.35,282.966 166.35,279.06 C166.35,275.172 164.208,273.228 160.608,273.228 L157.476,273.228 L157.476,285 Z M159.564,283.308 L159.564,274.92 L160.464,274.92 C162.84,274.92 164.208,276.18 164.208,279.06 C164.208,281.958 162.84,283.308 160.464,283.308 L159.564,283.308 Z M170.49,280.176 L170.904,278.736 C171.282,277.494 171.624,276.162 171.948,274.848 L172.02,274.848 C172.362,276.144 172.722,277.494 173.082,278.736 L173.496,280.176 L170.49,280.176 Z M174.882,285 L177.096,285 L173.262,273.228 L170.814,273.228 L166.962,285 L169.104,285 L170.022,281.814 L173.964,281.814 L174.882,285 Z M180.156,285 L182.244,285 L182.244,274.992 L185.628,274.992 L185.628,273.228 L176.754,273.228 L176.754,274.992 L180.156,274.992 L180.156,285 Z M188.814,280.176 L189.228,278.736 C189.606,277.494 189.948,276.162 190.272,274.848 L190.344,274.848 C190.686,276.144 191.046,277.494 191.406,278.736 L191.82,280.176 L188.814,280.176 Z M193.206,285 L195.42,285 L191.586,273.228 L189.138,273.228 L185.286,285 L187.428,285 L188.346,281.814 L192.288,281.814 L193.206,285 Z M200.514,285 L204.582,285 C207.174,285 209.1,283.902 209.1,281.544 C209.1,279.96 208.146,279.042 206.454,278.754 L206.454,278.682 C207.84,278.322 208.47,277.242 208.47,276.126 C208.47,273.966 206.688,273.228 204.276,273.228 L200.514,273.228 L200.514,285 Z M202.602,278.106 L202.602,274.848 L204.132,274.848 C205.662,274.848 206.418,275.298 206.418,276.378 C206.418,277.476 205.734,278.106 204.078,278.106 L202.602,278.106 Z M202.602,283.38 L202.602,279.6 L204.366,279.6 C206.112,279.6 207.048,280.176 207.048,281.4 C207.048,282.732 206.094,283.38 204.366,283.38 L202.602,283.38 Z" id="DATA-B-3" fill="#FFFFFF" sketch:type="MSShapeGroup"></path>
            <path d="M294.476,285 L297.716,285 C301.208,285 303.35,282.966 303.35,279.06 C303.35,275.172 301.208,273.228 297.608,273.228 L294.476,273.228 L294.476,285 Z M296.564,283.308 L296.564,274.92 L297.464,274.92 C299.84,274.92 301.208,276.18 301.208,279.06 C301.208,281.958 299.84,283.308 297.464,283.308 L296.564,283.308 Z M307.49,280.176 L307.904,278.736 C308.282,277.494 308.624,276.162 308.948,274.848 L309.02,274.848 C309.362,276.144 309.722,277.494 310.082,278.736 L310.496,280.176 L307.49,280.176 Z M311.882,285 L314.096,285 L310.262,273.228 L307.814,273.228 L303.962,285 L306.104,285 L307.022,281.814 L310.964,281.814 L311.882,285 Z M317.156,285 L319.244,285 L319.244,274.992 L322.628,274.992 L322.628,273.228 L313.754,273.228 L313.754,274.992 L317.156,274.992 L317.156,285 Z M325.814,280.176 L326.228,278.736 C326.606,277.494 326.948,276.162 327.272,274.848 L327.344,274.848 C327.686,276.144 328.046,277.494 328.406,278.736 L328.82,280.176 L325.814,280.176 Z M330.206,285 L332.42,285 L328.586,273.228 L326.138,273.228 L322.286,285 L324.428,285 L325.346,281.814 L329.288,281.814 L330.206,285 Z M336.884,279.15 C336.884,283.056 339.242,285.216 342.23,285.216 C343.724,285.216 344.948,284.604 345.902,283.506 L344.75,282.228 C344.084,282.966 343.31,283.398 342.266,283.398 C340.304,283.398 339.026,281.778 339.026,279.096 C339.026,276.45 340.412,274.83 342.338,274.83 C343.238,274.83 343.904,275.208 344.516,275.802 L345.668,274.506 C344.93,273.714 343.76,273.012 342.32,273.012 C339.296,273.012 336.884,275.298 336.884,279.15 L336.884,279.15 Z" id="DATA-C-3" fill="#FFFFFF" sketch:type="MSShapeGroup"></path>
            <path d="M162.38,133 L163.772,133 L163.772,126.328 L166.028,126.328 L166.028,125.152 L160.112,125.152 L160.112,126.328 L162.38,126.328 L162.38,133 Z M167.312,133 L172.148,133 L172.148,131.824 L168.704,131.824 L168.704,129.508 L171.524,129.508 L171.524,128.332 L168.704,128.332 L168.704,126.328 L172.028,126.328 L172.028,125.152 L167.312,125.152 L167.312,133 Z M173.18,131.992 C173.924,132.724 174.944,133.144 176,133.144 C177.764,133.144 178.82,132.088 178.82,130.816 C178.82,129.676 178.172,129.088 177.236,128.692 L176.18,128.248 C175.532,127.984 174.932,127.756 174.932,127.144 C174.932,126.568 175.412,126.22 176.156,126.22 C176.828,126.22 177.368,126.472 177.86,126.892 L178.58,126.004 C177.968,125.392 177.08,125.008 176.156,125.008 C174.632,125.008 173.528,125.968 173.528,127.216 C173.528,128.368 174.332,128.98 175.112,129.304 L176.18,129.772 C176.9,130.072 177.404,130.276 177.404,130.924 C177.404,131.536 176.912,131.932 176.036,131.932 C175.304,131.932 174.548,131.572 173.984,131.044 L173.18,131.992 Z M181.568,133 L182.96,133 L182.96,126.328 L185.216,126.328 L185.216,125.152 L179.3,125.152 L179.3,126.328 L181.568,126.328 L181.568,133 Z M186.5,133 L187.892,133 L187.892,125.152 L186.5,125.152 L186.5,133 Z M189.848,133 L191.168,133 L191.168,129.568 C191.168,128.692 191.06,127.744 190.988,126.916 L191.036,126.916 L191.852,128.584 L194.288,133 L195.716,133 L195.716,125.152 L194.396,125.152 L194.396,128.56 C194.396,129.436 194.504,130.432 194.576,131.236 L194.528,131.236 L193.712,129.568 L191.276,125.152 L189.848,125.152 L189.848,133 Z M197.264,129.1 C197.264,131.704 198.848,133.144 200.936,133.144 C202.004,133.144 202.928,132.712 203.468,132.208 L203.468,128.752 L200.744,128.752 L200.744,129.892 L202.22,129.892 L202.22,131.584 C201.968,131.812 201.536,131.932 201.104,131.932 C199.532,131.932 198.692,130.852 198.692,129.064 C198.692,127.3 199.628,126.22 201.02,126.22 C201.752,126.22 202.184,126.484 202.58,126.868 L203.348,126.004 C202.856,125.5 202.1,125.008 201.008,125.008 C198.896,125.008 197.264,126.532 197.264,129.1 L197.264,129.1 Z" id="TESTING-3" fill="#FFFFFF" sketch:type="MSShapeGroup"></path>
            <path d="M284.98,133.024 L286.372,133.024 L286.372,130.144 L287.62,130.144 C289.3,130.144 290.596,129.34 290.596,127.6 C290.596,125.776 289.336,125.176 287.62,125.176 L284.98,125.176 L284.98,133.024 Z M286.372,129.028 L286.372,126.292 L287.5,126.292 C288.64,126.292 289.228,126.616 289.228,127.6 C289.228,128.56 288.676,129.028 287.5,129.028 L286.372,129.028 Z M293.428,126.292 L294.532,126.292 C295.612,126.292 296.188,126.604 296.188,127.504 C296.188,128.392 295.612,128.848 294.532,128.848 L293.428,128.848 L293.428,126.292 Z M297.868,133.024 L295.996,129.748 C296.944,129.424 297.568,128.704 297.568,127.504 C297.568,125.752 296.308,125.176 294.676,125.176 L292.036,125.176 L292.036,133.024 L293.428,133.024 L293.428,129.952 L294.616,129.952 L296.308,133.024 L297.868,133.024 Z M302.236,133.168 C304.276,133.168 305.692,131.608 305.692,129.064 C305.692,126.532 304.276,125.032 302.236,125.032 C300.184,125.032 298.768,126.532 298.768,129.064 C298.768,131.608 300.184,133.168 302.236,133.168 L302.236,133.168 Z M302.236,131.956 C301,131.956 300.196,130.828 300.196,129.064 C300.196,127.312 301,126.244 302.236,126.244 C303.46,126.244 304.264,127.312 304.264,129.064 C304.264,130.828 303.46,131.956 302.236,131.956 L302.236,131.956 Z M307.24,133.024 L309.4,133.024 C311.728,133.024 313.156,131.668 313.156,129.064 C313.156,126.472 311.728,125.176 309.328,125.176 L307.24,125.176 L307.24,133.024 Z M308.632,131.896 L308.632,126.304 L309.232,126.304 C310.816,126.304 311.728,127.144 311.728,129.064 C311.728,130.996 310.816,131.896 309.232,131.896 L308.632,131.896 Z M314.668,129.58 C314.668,132.16 315.832,133.168 317.656,133.168 C319.468,133.168 320.62,132.16 320.62,129.58 L320.62,125.176 L319.276,125.176 L319.276,129.688 C319.276,131.392 318.616,131.956 317.656,131.956 C316.708,131.956 316.06,131.392 316.06,129.688 L316.06,125.176 L314.668,125.176 L314.668,129.58 Z M322.12,129.124 C322.12,131.728 323.692,133.168 325.684,133.168 C326.68,133.168 327.496,132.76 328.132,132.028 L327.364,131.176 C326.92,131.668 326.404,131.956 325.708,131.956 C324.4,131.956 323.548,130.876 323.548,129.088 C323.548,127.324 324.472,126.244 325.756,126.244 C326.356,126.244 326.8,126.496 327.208,126.892 L327.976,126.028 C327.484,125.5 326.704,125.032 325.744,125.032 C323.728,125.032 322.12,126.556 322.12,129.124 L322.12,129.124 Z M330.82,133.024 L332.212,133.024 L332.212,126.352 L334.468,126.352 L334.468,125.176 L328.552,125.176 L328.552,126.352 L330.82,126.352 L330.82,133.024 Z M335.752,133.024 L337.144,133.024 L337.144,125.176 L335.752,125.176 L335.752,133.024 Z M342.148,133.168 C344.188,133.168 345.604,131.608 345.604,129.064 C345.604,126.532 344.188,125.032 342.148,125.032 C340.096,125.032 338.68,126.532 338.68,129.064 C338.68,131.608 340.096,133.168 342.148,133.168 L342.148,133.168 Z M342.148,131.956 C340.912,131.956 340.108,130.828 340.108,129.064 C340.108,127.312 340.912,126.244 342.148,126.244 C343.372,126.244 344.176,127.312 344.176,129.064 C344.176,130.828 343.372,131.956 342.148,131.956 L342.148,131.956 Z M347.152,133.024 L348.472,133.024 L348.472,129.592 C348.472,128.716 348.364,127.768 348.292,126.94 L348.34,126.94 L349.156,128.608 L351.592,133.024 L353.02,133.024 L353.02,125.176 L351.7,125.176 L351.7,128.584 C351.7,129.46 351.808,130.456 351.88,131.26 L351.832,131.26 L351.016,129.592 L348.58,125.176 L347.152,125.176 L347.152,133.024 Z" id="PRODUCTION-3" fill="#FFFFFF" sketch:type="MSShapeGroup"></path>
            <path d="M84.35,207.492412 L88.2,207.492412 L88.2,189.442412 C88.2,186.542412 87.9,182.642412 87.7,179.742412 L87.9,179.742412 L90.5,187.042412 L96.8,204.192412 L99.2,204.192412 L105.5,187.042412 L108.1,179.742412 L108.3,179.742412 C108.1,182.642412 107.75,186.542412 107.75,189.442412 L107.75,207.492412 L111.7,207.492412 L111.7,174.692412 L106.8,174.692412 L100.5,192.292412 L98.2,198.992412 L98,198.992412 L95.65,192.292412 L89.3,174.692412 L84.35,174.692412 L84.35,207.492412 Z M117.888889,201.192412 C117.888889,205.542412 120.938889,208.092412 125.038889,208.092412 C128.038889,208.092412 130.738889,206.492412 133.088889,204.592412 L133.188889,204.592412 L133.538889,207.492412 L136.938889,207.492412 L136.938889,192.592412 C136.938889,186.542412 134.438889,182.592412 128.488889,182.592412 C124.588889,182.592412 121.188889,184.292412 118.938889,185.742412 L120.588889,188.592412 C122.488889,187.292412 124.988889,185.992412 127.838889,185.992412 C131.788889,185.992412 132.838889,188.992412 132.838889,192.092412 C122.488889,193.242412 117.888889,195.892412 117.888889,201.192412 L117.888889,201.192412 Z M121.938889,200.892412 C121.938889,197.792412 124.688889,195.792412 132.838889,194.792412 L132.838889,201.542412 C130.488889,203.642412 128.538889,204.792412 126.188889,204.792412 C123.788889,204.792412 121.938889,203.642412 121.938889,200.892412 L121.938889,200.892412 Z M145.327777,211.592412 C145.327777,210.192412 146.077777,208.742412 147.827777,207.492412 C148.877777,207.792412 150.027777,207.892412 150.977777,207.892412 L155.177777,207.892412 C158.327777,207.892412 160.077777,208.642412 160.077777,210.892412 C160.077777,213.442412 157.027777,215.842412 152.377777,215.842412 C147.977777,215.842412 145.327777,214.192412 145.327777,211.592412 L145.327777,211.592412 Z M141.727777,212.142412 C141.727777,216.342412 145.827777,218.692412 151.777777,218.692412 C159.327777,218.692412 164.077777,214.792412 164.077777,210.292412 C164.077777,206.242412 161.227777,204.492412 155.577777,204.492412 L150.877777,204.492412 C147.577777,204.492412 146.577777,203.392412 146.577777,201.842412 C146.577777,200.492412 147.277777,199.692412 148.127777,198.942412 C149.227777,199.492412 150.577777,199.792412 151.777777,199.792412 C156.727777,199.792412 160.677777,196.542412 160.677777,191.342412 C160.677777,189.292412 159.827777,187.442412 158.677777,186.342412 L163.677777,186.342412 L163.677777,183.192412 L155.227777,183.192412 C154.327777,182.842412 153.127777,182.592412 151.777777,182.592412 C146.827777,182.592412 142.627777,185.942412 142.627777,191.242412 C142.627777,194.142412 144.177777,196.492412 145.777777,197.792412 L145.777777,197.992412 C144.527777,198.842412 143.127777,200.442412 143.127777,202.492412 C143.127777,204.392412 144.077777,205.692412 145.277777,206.442412 L145.277777,206.642412 C143.077777,208.142412 141.727777,210.092412 141.727777,212.142412 L141.727777,212.142412 Z M151.777777,197.042412 C148.977777,197.042412 146.627777,194.792412 146.627777,191.242412 C146.627777,187.692412 148.927777,185.592412 151.777777,185.592412 C154.627777,185.592412 156.927777,187.692412 156.927777,191.242412 C156.927777,194.792412 154.577777,197.042412 151.777777,197.042412 L151.777777,197.042412 Z M165.166666,195.392412 C165.166666,203.342412 170.316666,208.092412 176.816666,208.092412 C180.116666,208.092412 182.716666,206.942412 184.816666,205.592412 L183.366666,202.892412 C181.566666,204.042412 179.616666,204.792412 177.316666,204.792412 C172.666666,204.792412 169.516666,201.492412 169.216666,196.242412 L185.616666,196.242412 C185.716666,195.642412 185.766666,194.842412 185.766666,193.992412 C185.766666,187.042412 182.266666,182.592412 176.066666,182.592412 C170.516666,182.592412 165.166666,187.442412 165.166666,195.392412 L165.166666,195.392412 Z M169.166666,193.542412 C169.666666,188.642412 172.766666,185.842412 176.166666,185.842412 C179.966666,185.842412 182.166666,188.592412 182.166666,193.542412 L169.166666,193.542412 Z M190.905554,207.492412 L195.105554,207.492412 L195.105554,192.792412 L207.605554,192.792412 L207.605554,189.292412 L195.105554,189.292412 L195.105554,178.192412 L209.855554,178.192412 L209.855554,174.692412 L190.905554,174.692412 L190.905554,207.492412 Z M213.994443,202.592412 C213.994443,206.142412 215.244443,208.092412 218.344443,208.092412 C219.444443,208.092412 220.144443,207.942412 220.694443,207.692412 L220.144443,204.592412 C219.694443,204.692412 219.494443,204.692412 219.244443,204.692412 C218.644443,204.692412 218.094443,204.192412 218.094443,202.892412 L218.094443,171.892412 L213.994443,171.892412 L213.994443,202.592412 Z M223.833332,195.392412 C223.833332,203.442412 229.133332,208.092412 235.083332,208.092412 C241.033332,208.092412 246.333332,203.442412 246.333332,195.392412 C246.333332,187.242412 241.033332,182.592412 235.083332,182.592412 C229.133332,182.592412 223.833332,187.242412 223.833332,195.392412 L223.833332,195.392412 Z M228.083332,195.392412 C228.083332,189.792412 230.933332,185.992412 235.083332,185.992412 C239.283332,185.992412 242.083332,189.792412 242.083332,195.392412 C242.083332,200.942412 239.283332,204.692412 235.083332,204.692412 C230.933332,204.692412 228.083332,200.942412 228.083332,195.392412 L228.083332,195.392412 Z M255.27222,207.492412 L260.07222,207.492412 L263.47222,194.492412 C264.12222,192.192412 264.62222,189.892412 265.17222,187.442412 L265.37222,187.442412 C265.97222,189.892412 266.42222,192.142412 267.02222,194.442412 L270.52222,207.492412 L275.52222,207.492412 L282.02222,183.192412 L278.12222,183.192412 L274.57222,197.242412 C274.07222,199.542412 273.62222,201.742412 273.07222,203.992412 L272.87222,203.992412 C272.32222,201.742412 271.77222,199.542412 271.17222,197.242412 L267.37222,183.192412 L263.37222,183.192412 L259.62222,197.242412 C259.02222,199.492412 258.52222,201.742412 257.97222,203.992412 L257.77222,203.992412 C257.32222,201.742412 256.87222,199.542412 256.32222,197.242412 L252.72222,183.192412 L248.52222,183.192412 L255.27222,207.492412 Z" id="MageFlow" fill="#FFFFFF" sketch:type="MSShapeGroup"></path>
        </g>
    </g>
</svg>