<?xml version="1.0" encoding="UTF-8" standalone="no"?>
<svg width="263px" height="274px" viewBox="0 0 263 274" version="1.1" xmlns="http://www.w3.org/2000/svg" xmlns:xlink="http://www.w3.org/1999/xlink" xmlns:sketch="http://www.bohemiancoding.com/sketch/ns">
    <!-- Generator: Sketch Beta 3.1 (8657) - http://www.bohemiancoding.com/sketch -->
    <title>illustration-ufo</title>
    <desc>Created with Sketch Beta.</desc>
    <defs></defs>
    <g id="Page-1" stroke="none" stroke-width="1" fill="none" fill-rule="evenodd" sketch:type="MSPage">
        <g id="Group" sketch:type="MSLayerGroup" fill="#665F89">
            <path d="M248.525515,168.997066 L245.943598,177.873798 L248.148412,179.175719 L250.245876,170.095303 L248.525515,168.997066" id="Fill-1" sketch:type="MSShapeGroup"></path>
            <path d="M2.67081443,214.710175 C2.67081443,214.710175 10.468866,229.61758 21.0194948,233.746293 C21.0194948,233.746293 5.65460825,232.601264 2.67081443,214.710175" id="Fill-2" sketch:type="MSShapeGroup"></path>
            <path d="M-0.312979381,226.633897 C-0.312979381,226.633897 4.04710309,233.746293 12.533299,236.95568 C12.533299,236.95568 2.43959794,237.186887 -0.312979381,226.633897" id="Fill-3" sketch:type="MSShapeGroup"></path>
            <path d="M243.295619,258.747026 C243.295619,258.747026 234.803918,269.071561 220.352887,269.528472 C220.352887,269.528472 235.492062,272.969066 243.295619,258.747026" id="Fill-4" sketch:type="MSShapeGroup"></path>
            <path d="M242.376258,268.609145 C242.376258,268.609145 236.637134,272.969066 232.054093,273.197521 C232.054093,273.197521 238.013423,276.40966 242.376258,268.609145" id="Fill-5" sketch:type="MSShapeGroup"></path>
            <path d="M139.495928,99.3319171 C131.260216,99.3319171 124.587969,106.009422 124.587969,114.244828 C124.587969,122.474729 131.260216,129.152234 139.495928,129.152234 C147.731639,129.152234 154.406639,122.474729 154.406639,114.244828 C154.406639,106.009422 147.731639,99.3319171 139.495928,99.3319171 L139.495928,99.3319171 Z M139.724392,126.628214 C132.884237,126.628214 127.337794,121.081977 127.337794,114.242076 C127.337794,107.399422 132.884237,101.855937 139.724392,101.855937 C146.567299,101.855937 152.11099,107.399422 152.11099,114.242076 C152.11099,121.081977 146.567299,126.628214 139.724392,126.628214 L139.724392,126.628214 Z" id="Fill-6" sketch:type="MSShapeGroup"></path>
            <path d="M139.495928,105.068076 C134.428433,105.068076 130.318835,109.174769 130.318835,114.242076 C130.318835,119.309382 134.428433,123.416076 139.495928,123.416076 C144.56067,123.416076 148.673021,119.309382 148.673021,114.242076 C148.673021,109.174769 144.56067,105.068076 139.495928,105.068076 L139.495928,105.068076 Z M139.636309,121.404016 C135.680856,121.404016 132.474103,118.19463 132.474103,114.242076 C132.474103,110.284016 135.680856,107.077382 139.636309,107.077382 C143.594515,107.077382 146.801268,110.284016 146.801268,114.242076 C146.801268,118.19463 143.594515,121.404016 139.636309,121.404016 L139.636309,121.404016 Z" id="Fill-7" sketch:type="MSShapeGroup"></path>
            <path d="M177.346619,106.901224 C169.108155,106.901224 162.433155,113.578729 162.433155,121.814135 C162.433155,130.044036 169.108155,136.721541 177.346619,136.721541 C185.58233,136.721541 192.251825,130.044036 192.251825,121.814135 C192.251825,113.578729 185.58233,106.901224 177.346619,106.901224 L177.346619,106.901224 Z M177.575082,134.197521 C170.732175,134.197521 165.188485,128.651283 165.188485,121.811382 C165.188485,114.968729 170.732175,109.425244 177.575082,109.425244 C184.415237,109.425244 189.96168,114.968729 189.96168,121.811382 C189.96168,128.651283 184.415237,134.197521 177.575082,134.197521 L177.575082,134.197521 Z" id="Fill-8" sketch:type="MSShapeGroup"></path>
            <path d="M177.346619,112.637382 C172.276371,112.637382 168.169526,116.744076 168.169526,121.811382 C168.169526,126.878689 172.276371,130.985382 177.346619,130.985382 C182.408608,130.985382 186.523711,126.878689 186.523711,121.811382 C186.523711,116.744076 182.408608,112.637382 177.346619,112.637382 L177.346619,112.637382 Z M177.484247,128.973323 C173.528794,128.973323 170.324794,125.763937 170.324794,121.811382 C170.324794,117.853323 173.528794,114.646689 177.484247,114.646689 C181.442454,114.646689 184.651959,117.853323 184.651959,121.811382 C184.651959,125.763937 181.442454,128.973323 177.484247,128.973323 L177.484247,128.973323 Z" id="Fill-9" sketch:type="MSShapeGroup"></path>
            <path d="M178.491691,-0.329706637 C176.146495,-0.329706637 174.249969,1.56950128 174.249969,3.91461019 C174.249969,6.25696663 176.146495,8.15617455 178.491691,8.15617455 C180.834134,8.15617455 182.733412,6.25696663 182.733412,3.91461019 C182.733412,1.56950128 180.834134,-0.329706637 178.491691,-0.329706637 L178.491691,-0.329706637 Z M178.555,6.02025376 C177.393412,6.02025376 176.446526,5.07890722 176.446526,3.91461019 C176.446526,2.74756069 177.393412,1.80346168 178.555,1.80346168 C179.722093,1.80346168 180.663474,2.74756069 180.663474,3.91461019 C180.663474,5.07890722 179.722093,6.02025376 178.555,6.02025376 L178.555,6.02025376 Z" id="Fill-10" sketch:type="MSShapeGroup"></path>
            <path d="M176.196041,6.43587752 L165.072876,67.4499963 C165.072876,67.4499963 163.236907,76.054234 164.728804,77.5433231 C166.217948,79.0324122 170.121103,81.9032439 171.379031,73.0705508 C172.639711,64.2378577 179.523907,7.35520425 179.523907,7.35520425 L178.378835,7.35520425 L169.543062,70.2024716 C169.543062,70.2024716 169.314598,74.4467884 168.282381,75.823026 C167.250165,77.1992637 165.529804,75.1349072 166.680381,70.3180755 C167.825454,65.5012439 177.459474,7.12399633 177.459474,7.12399633 L176.196041,6.43587752" id="Fill-11" sketch:type="MSShapeGroup"></path>
            <path d="M203.606206,94.9775013 C199.493856,82.2335409 186.157619,72.5751052 171.522165,69.4042538 L170.809247,72.2585706 C176.242835,73.4146102 180.641454,75.8092637 183.259155,77.3423924 C189.914887,81.2398973 208.82234,88.5091845 203.774113,143.099026 C203.774113,143.099026 151.497165,157.599066 108.204629,123.286709 C108.204629,123.286709 123.784216,88.7816795 141.219041,77.3121151 C149.603392,71.7961547 158.139134,70.5437785 165.491268,71.1438181 L165.898649,68.5041944 C156.974794,67.6234023 147.949093,69.2363528 140.528144,74.102729 C119.198423,88.0963132 103.828031,124.104194 103.828031,124.104194 C152.975299,163.49762 206.818464,145.667085 206.818464,145.667085 C206.818464,145.667085 210.718866,116.997303 203.606206,94.9775013" id="Fill-12" sketch:type="MSShapeGroup"></path>
            <path d="M207.079959,120.088333 L207.170794,123.272947 C240.766,133.925026 260.755216,146.757066 258.891722,157.133897 C256.224474,171.958729 210.490402,178.099501 151.30999,167.45568 C92.1268247,156.811858 45.8807732,134.343402 48.545268,119.518571 C50.5271237,108.503165 76.6766082,103.276214 115.314536,105.954373 L116.520165,102.890868 C75.9829588,100.34758 46.0844639,106.243382 43.791567,118.990095 C40.7554742,135.882036 89.8862268,160.475402 150.390629,171.355937 C210.892278,182.233719 259.852371,175.280967 262.891216,158.391779 C265.05199,146.396491 242.17532,131.577165 207.079959,120.088333" id="Fill-13" sketch:type="MSShapeGroup"></path>
            <path d="M44.644866,116.306432 L38.451567,133.969066 C38.451567,133.969066 50.609701,151.172036 89.377,166.998769 C120.547186,179.723462 159.796186,185.346769 184.797845,186.723006 C209.799505,188.099244 235.029629,186.266095 257.281464,177.089343 L263.020588,157.593561 L258.657753,160.805699 L254.071959,174.336868 C254.071959,174.336868 238.013423,183.282412 199.711309,183.51362 C165.992237,183.717303 123.09332,175.944313 87.9979588,162.638848 C52.9025979,149.338887 42.8144021,131.904709 42.8144021,131.904709 L46.0239072,124.563858 L44.644866,116.306432" id="Fill-14" sketch:type="MSShapeGroup"></path>
            <path d="M47.8571237,128.921026 L44.4164021,136.721541 L46.4808351,138.097779 L49.4646289,130.068808 L47.8571237,128.921026" id="Fill-15" sketch:type="MSShapeGroup"></path>
            <path d="M53.3622784,133.969066 L49.9215567,141.76958 L51.9859897,143.145818 L54.9670309,135.114095 L53.3622784,133.969066" id="Fill-16" sketch:type="MSShapeGroup"></path>
            <path d="M60.2437216,139.702472 L56.803,147.500234 L58.867433,148.876472 L61.8512268,140.850254 L60.2437216,139.702472" id="Fill-17" sketch:type="MSShapeGroup"></path>
            <path d="M68.961134,144.519303 L65.5176598,152.317066 L67.5820928,153.693303 L70.5658866,145.667085 L68.961134,144.519303" id="Fill-18" sketch:type="MSShapeGroup"></path>
            <path d="M77.9042577,149.10768 L74.4662887,156.908194 L76.5307216,158.284432 L79.5117629,150.252709 L77.9042577,149.10768" id="Fill-19" sketch:type="MSShapeGroup"></path>
            <path d="M88.6888557,153.005184 L85.248134,161.58465 L87.312567,163.101264 L90.2963608,154.268571 L88.6888557,153.005184" id="Fill-20" sketch:type="MSShapeGroup"></path>
            <path d="M99.4266598,157.299046 L96.8474948,166.175779 L99.0495567,167.477699 L101.149773,158.397283 L99.4266598,157.299046" id="Fill-21" sketch:type="MSShapeGroup"></path>
            <path d="M112.272938,161.427759 L109.691021,170.304491 L111.895835,171.606412 L113.993299,162.525996 L112.272938,161.427759" id="Fill-22" sketch:type="MSShapeGroup"></path>
            <path d="M125.116464,164.637145 L122.537299,173.513878 L124.739361,174.818551 L126.839577,165.735382 L125.116464,164.637145" id="Fill-23" sketch:type="MSShapeGroup"></path>
            <path d="M138.879351,168.306194 L136.297433,177.18568 L138.502247,178.4876 L140.602464,169.404432 L138.879351,168.306194" id="Fill-24" sketch:type="MSShapeGroup"></path>
            <path d="M153.787309,171.05867 L151.208144,179.938155 L153.410206,181.240076 L155.513175,172.156907 L153.787309,171.05867" id="Fill-25" sketch:type="MSShapeGroup"></path>
            <path d="M165.948196,172.894571 L163.366278,181.771303 L165.571093,183.075977 L167.668557,173.992808 L165.948196,172.894571" id="Fill-26" sketch:type="MSShapeGroup"></path>
            <path d="M178.103577,173.582689 L175.52166,182.459422 L177.726474,183.764095 L179.829443,174.680927 L178.103577,173.582689" id="Fill-27" sketch:type="MSShapeGroup"></path>
            <path d="M189.802031,174.499264 L187.220113,183.378749 L189.424928,184.68067 L191.527897,175.597501 L189.802031,174.499264" id="Fill-28" sketch:type="MSShapeGroup"></path>
            <path d="M202.876773,175.187382 L200.294856,184.066868 L202.49967,185.368788 L204.602639,176.28562 L202.876773,175.187382" id="Fill-29" sketch:type="MSShapeGroup"></path>
            <path d="M215.03766,174.727719 L212.455742,183.607204 L214.660557,184.911878 L216.758021,175.825957 L215.03766,174.727719" id="Fill-30" sketch:type="MSShapeGroup"></path>
            <path d="M226.961825,173.582689 L224.379907,182.459422 L226.584722,183.764095 L228.687691,174.680927 L226.961825,173.582689" id="Fill-31" sketch:type="MSShapeGroup"></path>
            <path d="M238.660278,171.749541 L236.078361,180.626274 L238.283175,181.928194 L240.386144,172.847779 L238.660278,171.749541" id="Fill-32" sketch:type="MSShapeGroup"></path>
            <path d="M74.0066082,159.429462 L35.0135979,203.009402 C35.0135979,203.009402 29.7369072,208.285897 32.0298041,212.871521 C34.322701,217.459897 36.6155979,216.08366 42.3519691,211.495283 C48.0883402,206.90966 83.8690928,163.558175 83.8690928,163.558175 L81.119268,161.950729 L43.2713299,206.221541 C43.2713299,206.221541 38.9112474,211.495283 36.8468144,211.954947 C34.7823814,212.41461 33.8685258,209.202472 37.3064948,205.073759 C40.7499691,200.945046 77.2216186,160.346036 77.2216186,160.346036 L74.0066082,159.429462" id="Fill-33" sketch:type="MSShapeGroup"></path>
            <path d="M43.5493402,209.207977 L41.3197526,210.79065 C46.0596907,215.519402 48.3415773,220.48762 46.4808351,222.964848 C44.1521546,226.05863 36.2852887,224.074095 28.9166392,218.53061 C21.5452371,212.989878 17.4604124,205.984828 19.7863402,202.888293 C21.9003196,200.078016 28.572567,201.484531 35.2971134,205.907759 L36.6486289,203.513105 C28.624866,198.308175 20.243268,197.174155 17.2099278,201.206531 C13.8985773,205.613244 18.211866,214.445937 26.8494536,220.939026 C35.4842887,227.43762 45.1706082,229.133145 48.4847113,224.729184 C51.1189278,221.225283 48.9113608,214.913858 43.5493402,209.207977" id="Fill-34" sketch:type="MSShapeGroup"></path>
            <path d="M18.498134,200.25968 L10.0119381,209.430927 C10.0119381,209.430927 8.63289691,216.312115 18.498134,225.031957 C27.5018144,232.989363 34.785134,232.826967 40.2902887,233.058175 L48.4847113,224.729184 L44.4191546,225.488868 L38.6855361,230.76261 C38.6855361,230.76261 26.5274021,228.698254 20.7910309,223.193303 C15.0574124,217.688353 12.7617629,210.119046 12.7617629,210.119046 L17.5815258,205.076511 L18.498134,200.25968" id="Fill-35" sketch:type="MSShapeGroup"></path>
            <path d="M126.487247,211.866868 C126.487247,211.866868 125.333918,218.613184 123.773206,220.036214 C122.212495,221.467501 119.817753,219.138907 120.745371,213.843145 C121.251845,210.939283 124.912773,193.560155 128.111268,178.462828 L125.223814,177.727917 L117.816629,212.772432 C118.336866,212.780689 118.862608,212.788947 119.396608,212.819224 L119.418629,215.568947 C118.708464,215.52766 118.028577,215.52766 117.345938,215.52766 C117.136742,217.886531 117.343186,221.437224 120.054474,223.23459 C124.271423,226.031105 125.600918,223.774076 128.215866,217.154373 C127.830505,217.036016 127.467165,216.909402 127.068041,216.802056 L128.218619,214.316571 C128.496629,214.401897 128.749866,214.509244 129.022371,214.602828 C130.668412,208.445541 133.470536,193.752828 135.887299,180.439105 L132.551175,179.58859 L126.487247,211.866868" id="Fill-36" sketch:type="MSShapeGroup"></path>
            <path d="M140.228113,225.315462 L139.917072,226.515541 C140.062959,226.127442 140.178567,225.731085 140.228113,225.315462" id="Fill-37" sketch:type="MSShapeGroup"></path>
            <path d="M127.068041,216.802056 C127.467165,216.909402 127.830505,217.036016 128.215866,217.154373 C134.04032,218.946234 137.971,221.89964 137.613165,224.784234 C137.136969,228.626689 129.327907,230.825917 120.175588,229.691897 C111.023268,228.557878 103.990433,224.522749 104.466629,220.680293 C104.860247,217.49568 110.302093,215.49463 117.345938,215.52766 C118.028577,215.52766 118.708464,215.52766 119.418629,215.568947 L119.396608,212.819224 C118.862608,212.788947 118.336866,212.780689 117.816629,212.772432 C108.994619,212.673343 101.978299,215.775382 101.392,220.504135 C101.339701,220.930769 101.358969,221.35465 101.408515,221.778531 L102.036103,219.039818 L103.640856,223.674986 L103.181175,225.54667 C106.098907,229.025798 112.234402,231.902135 119.583784,232.813204 C126.352371,233.652709 132.526402,232.620531 136.335969,230.369006 L137.08467,227.999125 L140.228113,225.315462 C140.748351,221.128947 136.055206,216.93968 129.022371,214.602828 C128.749866,214.509244 128.496629,214.401897 128.218619,214.316571 L127.068041,216.802056" id="Fill-38" sketch:type="MSShapeGroup"></path>
            <path d="M136.335969,230.369006 L134.739474,235.433561 C134.739474,235.433561 123.170392,239.699897 115.454918,237.781422 C107.736691,235.868452 101.978299,230.448828 101.978299,230.448828 L103.181175,225.54667 L103.640856,223.674986 L102.036103,219.039818 L101.408515,221.778531 L99.2504948,231.225026 C99.2504948,231.225026 101.482835,237.875006 114.381412,240.520135 C126.154186,242.934056 132.383268,239.165917 137.271845,236.62263 L139.917072,226.515541 L140.228113,225.315462 L137.08467,227.999125 L136.335969,230.369006" id="Fill-39" sketch:type="MSShapeGroup"></path>
            <path d="M215.827649,237.140095 C215.156021,237.376808 214.531186,237.643798 213.903598,237.905283 C214.627526,240.159561 216.199247,243.352432 219.397742,243.955224 C224.368897,244.891066 224.715722,242.298234 224.55332,235.180333 C224.154196,235.22162 223.768835,235.246392 223.358701,235.301442 L223.449536,232.565481 C223.741309,232.535204 224.013814,232.535204 224.300082,232.513184 C223.105464,223.895184 217.699402,199.753224 214.305474,184.942155 L210.966598,185.173363 L220.903402,230.982808 C220.903402,230.982808 222.461361,237.643798 221.580536,239.562274 C220.699711,241.486254 217.586546,240.272412 216.380918,235.037204 C215.494588,231.175481 209.686649,201.04964 206.700103,185.473382 L203.694289,185.679818 L213.267753,235.185838 C213.746701,234.98766 214.242165,234.797739 214.740381,234.616076 L215.827649,237.140095" id="Fill-40" sketch:type="MSShapeGroup"></path>
            <path d="M204.445742,250.740076 L204.748526,252.644788 C208.789309,254.717402 215.557897,254.98164 222.687072,252.964076 C229.251969,251.103402 234.536918,247.75364 237.171134,244.202947 L236.939918,241.725719 L238.795155,238.029145 C237.644577,233.971996 231.688,231.935165 224.300082,232.513184 C224.013814,232.535204 223.741309,232.535204 223.449536,232.565481 L223.358701,235.301442 C223.768835,235.246392 224.154196,235.22162 224.55332,235.180333 C230.611742,234.563779 235.384711,235.761105 236.174701,238.55762 C237.228938,242.284472 230.892505,247.343521 222.015443,249.856531 C213.143887,252.369541 205.098103,251.386907 204.038361,247.657303 C203.165794,244.574531 207.404763,240.610967 213.903598,237.905283 C214.531186,237.643798 215.156021,237.376808 215.827649,237.140095 L214.740381,234.616076 C214.242165,234.797739 213.746701,234.98766 213.267753,235.185838 C205.103608,238.521838 199.843433,244.109363 201.139897,248.694986 C201.258258,249.105105 201.439928,249.487699 201.651876,249.856531 L201.161918,247.093046 L204.445742,250.740076" id="Fill-41" sketch:type="MSShapeGroup"></path>
            <path d="M238.795155,238.029145 L238.97132,239.256749 C238.954804,238.841125 238.90801,238.433759 238.795155,238.029145" id="Fill-42" sketch:type="MSShapeGroup"></path>
            <path d="M238.97132,239.256749 L238.795155,238.029145 L236.939918,241.725719 L237.666598,249.487699 C237.666598,249.487699 228.66567,257.915779 220.812567,259.146135 C212.962216,260.381996 205.549526,257.624016 205.549526,257.624016 L204.748526,252.644788 L204.445742,250.740076 L201.161918,247.093046 L201.651876,249.856531 L203.333701,259.402115 C203.333701,259.402115 207.977299,264.662095 220.886887,262.085779 C232.676175,259.732412 236.950928,253.839363 240.465969,249.595046 L238.97132,239.256749" id="Fill-43" sketch:type="MSShapeGroup"></path>
            <path d="M108.289959,117.759739 L81.5183918,109.540848 L107.023773,120.501204 L108.289959,117.759739" id="Fill-44" sketch:type="MSShapeGroup"></path>
            <path d="M105.127247,122.6096 L59.3876701,119.025878 L108.708351,125.97863 L105.127247,122.6096" id="Fill-45" sketch:type="MSShapeGroup"></path>
            <path d="M108.920299,127.244769 L77.5133918,135.466412 L112.080258,129.143977 L108.920299,127.244769" id="Fill-46" sketch:type="MSShapeGroup"></path>
            <path d="M115.454918,131.24962 L91.0037732,146.424016 L118.408433,132.727699 L115.454918,131.24962" id="Fill-47" sketch:type="MSShapeGroup"></path>
            <path d="M122.831825,135.254472 L111.868309,152.328076 L126.41568,137.150927 L122.831825,135.254472" id="Fill-48" sketch:type="MSShapeGroup"></path>
            <path d="M133.792588,140.10158 L129.154495,156.332927 L137.797588,141.367719 L133.792588,140.10158" id="Fill-49" sketch:type="MSShapeGroup"></path>
            <path d="M146.861825,144.742254 L144.965299,160.546967 L150.233732,146.00564 L146.861825,144.742254" id="Fill-50" sketch:type="MSShapeGroup"></path>
            <path d="M159.507165,147.059838 L165.829835,165.817957 L163.933309,147.902095 L159.507165,147.059838" id="Fill-51" sketch:type="MSShapeGroup"></path>
            <path d="M174.47568,148.535165 L183.539918,165.396828 L178.48068,148.111283 L174.47568,148.535165" id="Fill-52" sketch:type="MSShapeGroup"></path>
            <path d="M187.178825,148.466353 L201.957412,166.28863 L191.596711,148.193858 L187.178825,148.466353" id="Fill-53" sketch:type="MSShapeGroup"></path>
            <path d="M199.19933,146.949739 L223.650474,164.63164 L204.032856,145.843244 L199.19933,146.949739" id="Fill-54" sketch:type="MSShapeGroup"></path>
            <path d="M205.687155,144.321125 L247.551103,152.751957 L206.380804,140.591521 L205.687155,144.321125" id="Fill-55" sketch:type="MSShapeGroup"></path>
            <path d="M206.380804,138.934531 L219.917979,134.101184 L206.796443,135.758175 L206.380804,138.934531" id="Fill-56" sketch:type="MSShapeGroup"></path>
        </g>
    </g>
</svg>