<?xml version="1.0" encoding="UTF-8" standalone="no"?>
<svg width="287px" height="180px" viewBox="0 0 287 180" version="1.1" xmlns="http://www.w3.org/2000/svg" xmlns:xlink="http://www.w3.org/1999/xlink" xmlns:sketch="http://www.bohemiancoding.com/sketch/ns">
    <!-- Generator: Sketch Beta 3.1 (8657) - http://www.bohemiancoding.com/sketch -->
    <title>illustration-barrow</title>
    <desc>Created with Sketch Beta.</desc>
    <defs></defs>
    <g id="Page-1" stroke="none" stroke-width="1" fill="none" fill-rule="evenodd" sketch:type="MSPage">
        <g id="Group" sketch:type="MSLayerGroup" fill="#665F89">
            <path d="M262.857284,43.2734783 C263.840988,42.2843478 265.516049,41.4574348 266.934321,40.8481304 L266.938272,40.8481304 C269.968395,38.8777826 271.299753,36.6225652 271.758025,34.7353043 C267.716543,33.5285652 264.75358,29.9360435 266.179753,28.3217826 C268.407901,25.7896087 274.195556,27.3801304 274.329877,33.0893913 C277.687901,33.0063043 281.124938,30.4147826 281.45284,25.2950435 C281.516049,24.4087826 281.421235,23.6847391 281.243457,23.0833478 C277.194074,24.3415217 272.662716,21.3701739 275.835062,19.3879565 C278.122469,17.9477826 280.528395,19.0318696 281.986173,21.2435652 C282.511605,20.756913 283.096296,20.0961739 283.744198,19.1901304 C287.398519,14.1455652 281.429136,7.85865217 281.429136,7.85865217 C281.429136,7.85865217 287.963457,10.4501739 285.759012,18.0466957 C285.126914,20.2544348 283.961481,21.6313043 282.634074,22.4423913 C283.89037,25.3702174 283.669136,29.4731304 280.319012,32.7135217 C278.38321,34.581 276.20642,35.2061304 274.132346,35.1388696 C273.192099,39.8036087 268.941235,42.3911739 267.100247,43.3051304 C266.274568,43.9856522 265.239506,44.7571739 264.599506,44.9075217 C263.430123,45.1765652 261.86963,44.2626087 262.857284,43.2734783 L262.857284,43.2734783 Z M277.16642,21.1763043 C278.134321,21.7064783 279.137778,22.9132174 280.81284,22.0783913 C279.366914,19.7519565 276.087901,20.5867826 277.16642,21.1763043 L277.16642,21.1763043 Z M268.751605,29.8133913 C268.170864,30.5216087 268.565926,31.7283478 271.959506,32.7570435 C271.923951,32.124 271.79358,31.5898696 271.627654,31.2377391 C270.845432,29.5720435 269.36,29.0735217 268.751605,29.8133913 L268.751605,29.8133913 Z" id="Fill-2" sketch:type="MSShapeGroup"></path>
            <path d="M215.14963,45.2992174 C214.098765,44.4406522 212.415802,43.8313478 211.001481,43.4040435 L210.997531,43.408 C207.896296,41.8293478 206.359506,39.760087 205.691852,37.9440435 C209.354074,36.2348261 211.69679,32.3020435 210.152099,30.8816522 C207.734321,28.6462174 202.476049,30.948913 203.064691,36.6344348 C199.888395,36.9667826 196.320988,34.8302609 195.37284,29.7896522 C195.206914,28.9192174 195.202963,28.1912174 195.297778,27.566087 C199.268148,28.3138696 203.171358,24.8004783 199.931852,23.2297391 C197.593086,22.0863043 195.463704,23.4631739 194.369383,25.8331304 C193.816296,25.4216522 193.176296,24.836087 192.449383,24.017087 C188.376296,19.475 193.219753,12.4877826 193.219753,12.4877826 C193.219753,12.4877826 187.380741,15.8745652 190.410864,23.1387391 C191.283951,25.2475652 192.556049,26.4661739 193.90716,27.1071304 C193.085432,30.1694783 193.808395,34.209087 197.367901,36.9984348 C199.430123,38.6166522 201.559506,38.9727391 203.50716,38.6403913 C204.97284,43.1508261 209.298765,45.1844783 211.151605,45.865 C212.01679,46.4347391 213.087407,47.0677826 213.711605,47.1350435 C214.849383,47.2576957 216.204444,46.1577826 215.14963,45.2992174 L215.14963,45.2992174 Z M198.904691,25.1684348 C198.059259,25.8133478 197.261235,27.1348261 195.574321,26.5215652 C196.648889,24.025 199.848889,24.4483478 198.904691,25.1684348 L198.904691,25.1684348 Z M207.912099,32.6897826 C208.552099,33.314913 208.326914,34.5572609 205.257284,36.0053478 C205.209877,35.3683478 205.273086,34.8302609 205.379753,34.4543913 C205.909136,32.7056087 207.248395,32.025087 207.912099,32.6897826 L207.912099,32.6897826 Z" id="Fill-3" sketch:type="MSShapeGroup"></path>
            <path d="M211.839012,129.723478 L203.688889,166.570565 L205.668148,166.81587 L215.540741,131.456435 L211.839012,129.723478" id="Fill-4" sketch:type="MSShapeGroup"></path>
            <path d="M221.466667,134.423826 L216.283457,168.548826 L218.009877,169.039435 L224.42963,134.66913 L221.466667,134.423826" id="Fill-5" sketch:type="MSShapeGroup"></path>
            <path d="M229.371852,136.896652 L228.380247,172.006826 L230.604444,172.256087 L233.318519,137.881826 L229.371852,136.896652" id="Fill-6" sketch:type="MSShapeGroup"></path>
            <path d="M239.493333,136.39813 L241.71358,172.256087 L243.443951,172.505348 L242.950123,136.39813 L239.493333,136.39813" id="Fill-7" sketch:type="MSShapeGroup"></path>
            <path d="M248.876049,135.907522 L252.083951,170.277826 L254.059259,170.52313 L252.577778,134.423826 L248.876049,135.907522" id="Fill-8" sketch:type="MSShapeGroup"></path>
            <path d="M258.752593,133.185435 L263.197037,167.310435 L265.172346,167.805 L261.964444,131.456435 L258.752593,133.185435" id="Fill-9" sketch:type="MSShapeGroup"></path>
            <path d="M262.70321,60.7336087 C262.70321,60.7336087 264.184691,90.902087 263.690864,98.8151304 C263.690864,98.8151304 259.985185,85.4618696 262.70321,60.7336087" id="Fill-10" sketch:type="MSShapeGroup"></path>
            <path d="M257.022222,72.8484783 C257.022222,72.8484783 259.24642,96.0930435 258.503704,104.995217 C258.503704,104.995217 255.540741,87.9307391 257.022222,72.8484783" id="Fill-11" sketch:type="MSShapeGroup"></path>
            <path d="M206.651852,156.924565 C206.651852,156.924565 203.688889,152.718783 199.98716,152.718783 C196.281481,152.718783 188.380247,156.184696 192.085926,162.119478 C192.085926,162.119478 187.89037,162.119478 184.42963,164.837609 C180.97284,167.555739 179.985185,174.974217 183.935802,179.674565 C183.935802,179.674565 182.70321,171.266957 186.408889,167.06513 C190.110617,162.859348 196.779259,167.805 196.779259,167.805 C196.779259,167.805 194.306173,162.859348 195.297778,159.152087 C196.281481,155.44087 201.962469,154.946304 206.158025,159.891957 L206.651852,156.924565" id="Fill-12" sketch:type="MSShapeGroup"></path>
            <path d="M262.948148,153.71187 C262.948148,153.71187 265.417284,149.506087 270.604444,151.484348 C275.787654,153.462609 275.297778,157.41913 273.318519,161.620957 C273.318519,161.620957 285.668148,161.130348 282.207407,173.245217 C282.207407,173.245217 291.345185,164.837609 278.260741,159.152087 C278.260741,159.152087 280.974815,142.332913 263.197037,149.751391 L262.948148,153.71187" id="Fill-13" sketch:type="MSShapeGroup"></path>
            <path d="M199.331358,109.865696 C199.331358,109.865696 215.133827,123.381174 224.022716,127.337696 C232.911605,131.290261 253.984198,129.972739 266.823704,120.413783 L267.811358,118.103174 C267.811358,118.103174 248.382222,129.315957 234.555062,127.005348 C220.727901,124.702652 206.57679,115.135783 199.331358,105.244478 L199.331358,109.865696" id="Fill-14" sketch:type="MSShapeGroup"></path>
            <path d="M218.752593,75.5705652 C218.752593,75.5705652 209.207901,80.8446087 206.244938,83.812 C203.281975,86.7793913 194.065185,92.7141739 184.848395,93.0504783 C175.627654,93.374913 164.431605,90.7398696 164.431605,90.7398696 L167.070617,93.374913 C167.070617,93.374913 179.910123,96.3423043 188.799012,95.0287391 C197.687901,93.7072609 205.917037,88.4292609 210.527407,84.805087 C215.133827,81.180913 221.391605,76.5596957 223.035062,79.527087 C224.678519,82.4944783 215.133827,95.3531739 205.913086,98.3205652 C196.700247,101.287957 189.454815,101.952652 184.848395,102.609435 C180.234074,103.266217 175.935802,103.930913 173.628642,105.909174 C171.325432,107.887435 174.114568,111.278174 171.337284,111.836043 C167.556543,112.591739 167.189136,113.280174 166.529383,109.323652 C165.87358,105.36713 171.653333,103.202913 171.653333,103.202913 C171.653333,103.202913 164.107654,104.916087 164.107654,108.21187 C164.107654,111.511609 164.166914,111.796478 166.343704,113.711435 C168.785185,115.851913 176.362469,114.01213 176.168889,108.449261 C176.042469,104.939826 181.221728,106.233609 186.491852,105.244478 C191.761975,104.255348 202.626173,102.941783 208.220247,100.963522 C213.814321,98.9852609 221.391605,90.7398696 224.354568,85.4618696 C227.317531,80.1917826 226.653827,72.6031739 218.752593,75.5705652" id="Fill-15" sketch:type="MSShapeGroup"></path>
            <path d="M167.070617,98.4273913 C167.070617,98.4273913 159.493333,103.040696 160.480988,106.997217 C161.468642,110.953739 166.406914,109.307826 166.406914,109.307826 L165.095309,107.654 C165.095309,107.654 162.128395,106.668826 162.456296,105.351304 C162.788148,104.029826 169.701728,101.394783 167.070617,98.4273913" id="Fill-16" sketch:type="MSShapeGroup"></path>
            <path d="M161.144691,104.255348 C161.144691,104.255348 157.518025,104.259304 158.837531,99.9743913 C160.157037,95.6815652 164.431605,93.374913 164.431605,93.374913 L166.406914,94.6963913 C166.406914,94.6963913 159.825185,101.287957 162.788148,102.609435 L161.144691,104.255348" id="Fill-17" sketch:type="MSShapeGroup"></path>
            <path d="M172.826667,112.413696 L182.45037,119.816348 L181.122963,116.433522 L173.075556,109.201 L172.826667,112.413696" id="Fill-18" sketch:type="MSShapeGroup"></path>
            <path d="M177.764938,104.995217 L184.259753,109.778652 L189.205926,109.050652 L181.466667,104.255348 L177.764938,104.995217" id="Fill-19" sketch:type="MSShapeGroup"></path>
            <path d="M189.391605,116.623435 C187.795556,119.67787 184.631111,121.161565 182.331852,119.946913 C180.028642,118.736217 179.459753,115.282174 181.055802,112.235652 C182.655802,109.193087 186.661728,107.717304 188.968889,108.928 C191.268148,110.142652 190.991605,113.58087 189.391605,116.623435" id="Fill-20" sketch:type="MSShapeGroup"></path>
            <path d="M268.795062,47.5504783 C259.578272,19.5224783 224.350617,24.4681304 210.851358,39.6374348 C203.333333,48.0846087 199.801481,71.4795217 198.142222,90.546 L203.175309,88.3026522 C204.65679,73.5962609 206.944198,57.0065652 210.195556,48.8640435 C216.777284,32.3811739 251.349136,25.124913 261.55358,42.2724783 C271.758025,59.4200435 265.172346,125.691783 265.172346,125.691783 C265.172346,125.691783 233.239506,148.766217 200.974815,116.457261 C200.974815,116.457261 201.314568,109.996261 202.037531,100.939783 L197.308642,102.095087 C196.771358,111.511609 196.696296,118.103174 196.696296,118.103174 C229.61679,158.000739 270.110617,128.32287 270.110617,128.32287 C270.110617,128.32287 278.011852,75.5705652 268.795062,47.5504783" id="Fill-21" sketch:type="MSShapeGroup"></path>
            <path d="M161.223704,99.3096957 C161.223704,99.3096957 159.244444,95.5984783 153.318519,95.3531739 C147.392593,95.103913 137.022222,94.1147826 132.33284,94.3640435 C127.639506,94.6093478 118.750617,96.3423043 114.061235,92.3857826 L112.579753,109.201 C112.579753,109.201 112.579753,112.413696 109.861728,111.424565 C107.147654,110.435435 67.1476543,82.4944783 67.1476543,82.4944783 L55.2958025,45.402087 C55.2958025,45.402087 55.2958025,42.9292609 57.7649383,42.9292609 C60.2340741,42.9292609 78.2133333,37.3466087 78.2133333,37.3466087 L78.7664198,40.132 L60.9728395,45.8966522 C60.9728395,45.8966522 59.0014815,46.6365217 60.2340741,49.8531739 C61.4666667,53.0658696 69.3718519,80.2669565 69.3718519,80.2669565 L109.122963,106.973478 C109.122963,106.973478 110.110617,105.984348 110.110617,104.500652 C110.110617,103.016957 111.592099,87.4401304 111.592099,87.4401304 C111.592099,87.4401304 118.260741,92.8803478 122.950123,92.3857826 C127.639506,91.8912174 151.592099,92.8803478 151.592099,92.8803478 C151.592099,92.8803478 158.011852,92.8803478 161.71358,96.8368696 L161.223704,99.3096957" id="Fill-22" sketch:type="MSShapeGroup"></path>
            <path d="M167.070617,93.374913 L165.419259,94.6093478 C165.419259,94.6093478 158.999506,87.9307391 155.297778,87.4401304 C151.592099,86.9455652 136.777284,87.1908696 131.839012,86.9455652 C126.900741,86.6963043 121.223704,88.4292609 107.147654,79.0285652 C93.0755556,69.6357826 58.5037037,47.8709565 58.5037037,47.8709565 L58.7525926,44.6582609 L115.048889,81.0107826 C115.048889,81.0107826 122.705185,84.7180435 130.112593,84.7180435 L155.048889,84.7180435 C155.048889,84.7180435 160.480988,86.2017391 162.207407,87.4401304 C163.937778,88.6745652 167.070617,93.374913 167.070617,93.374913" id="Fill-23" sketch:type="MSShapeGroup"></path>
            <path d="M111.098272,111.673826 L157.74321,94.9575217 L153.302716,94.2136957 L111.837037,107.717304 L111.098272,111.673826" id="Fill-24" sketch:type="MSShapeGroup"></path>
            <path d="M164.878025,91.554913 C164.878025,91.554913 170.922469,90.265087 170.922469,87.8872174 C170.922469,85.5053913 171.831111,70.6526087 171.831111,70.6526087 C171.831111,70.6526087 185.014321,71.5744783 188.858272,73.2203913 C192.698272,74.8742174 201.855802,80.7377826 201.855802,80.7377826 L202.037531,78.3559565 C202.037531,78.3559565 193.614815,71.7564783 188.490864,70.2925652 C183.366914,68.8207391 169.45284,68.2747391 169.45284,68.2747391 L168.354568,86.4193478 C168.354568,86.4193478 167.260247,88.4332174 165.976296,88.8051304 C164.692346,89.1691304 163.961481,89.537087 163.961481,89.537087 L164.878025,91.554913" id="Fill-25" sketch:type="MSShapeGroup"></path>
            <path d="M110.77037,79.360913 L171.831111,60.0214348 L171.831111,70.6526087 L169.634568,71.7564783 L169.45284,64.0531304 L113.733333,81.8376957 L110.77037,79.360913" id="Fill-26" sketch:type="MSShapeGroup"></path>
            <path d="M171.831111,60.0214348 C171.831111,60.0214348 180.621235,60.2073913 186.476049,61.8572609 C192.334815,63.5071304 202.582716,68.6387391 202.582716,68.6387391 L202.215309,71.3885217 C202.219259,71.3885217 184.646914,61.3112609 170.922469,62.9571739 L171.831111,60.0214348" id="Fill-27" sketch:type="MSShapeGroup"></path>
            <path d="M82.1283951,60.4091739 L77.0241975,33.8648696 L73.4054321,37.8213913 L68.3012346,36.0053478 L71.9239506,26.1140435 L88.3822222,22.8222174 L97.1091358,59.4200435 L94.8019753,61.3943478 L86.0790123,25.7896087 L73.5674074,28.2624348 L70.7703704,34.5216522 L72.9116049,35.3485652 L78.8375309,29.4137826 L86.0790123,63.0402609 L82.1283951,60.4091739" id="Fill-28" sketch:type="MSShapeGroup"></path>
            <path d="M91.1832099,66.3439565 C91.1832099,66.3439565 97.437037,55.4595652 102.70321,51.1746522 C107.973333,46.8857826 119.493333,43.7561739 124.925432,51.3368696 C130.357531,58.9254783 128.054321,70.4587391 123.443951,76.5596957 L119.98716,77.5448696 C119.98716,77.5448696 125.751111,67.9898696 125.257284,60.5713913 C124.763457,53.152913 121.96642,49.141 114.720988,48.7018261 C103.85679,48.0450435 93.3204938,67.6575217 93.3204938,67.6575217 L91.1832099,66.3439565" id="Fill-29" sketch:type="MSShapeGroup"></path>
            <path d="M98.5906173,70.7950435 C98.5906173,70.7950435 103.035062,60.0728696 108.135309,57.9363478 C113.239506,55.7879565 117.687901,58.0985652 117.849877,63.3765652 C118.011852,68.6426957 110.77037,79.360913 110.77037,79.360913 L109.122963,78.3757391 C109.122963,78.3757391 114.555062,68.3222174 115.542716,65.3548261 C116.53037,62.3874348 113.899259,59.9106522 110.276543,60.5713913 C106.653827,61.2242174 100.893827,72.6031739 100.893827,72.6031739 L98.5906173,70.7950435" id="Fill-30" sketch:type="MSShapeGroup"></path>
            <path d="M103.528889,74.9098261 C103.528889,74.9098261 107.973333,62.055087 115.380741,61.2242174 L114.22716,59.9106522 C114.22716,59.9106522 105.998025,62.7158261 102.209383,73.263913 L103.528889,74.9098261" id="Fill-31" sketch:type="MSShapeGroup"></path>
            <path d="M121.962469,48.7018261 L132.498765,58.2568261 C132.498765,58.2568261 134.474074,67.0007391 130.851358,73.9246522 L127.560494,75.2461304 C127.560494,75.2461304 132.170864,66.6683913 130.851358,59.7405217 L125.091358,53.9798261 L121.962469,48.7018261" id="Fill-32" sketch:type="MSShapeGroup"></path>
            <path d="M88.3822222,22.8222174 L95.4617284,28.2624348 L102.047407,53.6474783 L99.7402469,55.958087 L93.814321,29.4137826 L88.2202469,25.6194783 L88.3822222,22.8222174" id="Fill-33" sketch:type="MSShapeGroup"></path>
            <path d="M97.2711111,37.6591739 C97.2711111,37.6591739 100.893827,28.4246522 108.135309,25.7896087 C115.380741,23.1466522 126.079012,26.4463913 131.017284,36.6700435 L129.369877,37.4890435 C129.369877,37.4890435 123.281975,29.4137826 118.011852,27.7678696 C112.745679,26.1140435 103.197037,28.9192174 98.2587654,40.4564348 L97.2711111,37.6591739" id="Fill-34" sketch:type="MSShapeGroup"></path>
            <path d="M103.690864,50.5178696 C103.690864,50.5178696 104.844444,40.9549565 110.276543,37.1646087 C115.708642,33.3703043 126.406914,41.1171739 122.950123,51.3368696 L120.974815,47.8709565 C120.974815,47.8709565 120.484938,42.9292609 118.343704,40.4564348 C116.202469,37.9836087 110.114568,37.3268261 106.491852,49.6909565 L103.690864,50.5178696" id="Fill-35" sketch:type="MSShapeGroup"></path>
            <path d="M112.745679,47.8709565 C112.745679,47.8709565 113.737284,41.4455652 117.849877,39.305087 L115.708642,38.3159565 C115.708642,38.3159565 112.579753,38.8105217 111.098272,48.7018261 L112.745679,47.8709565" id="Fill-36" sketch:type="MSShapeGroup"></path>
            <path d="M123.937778,52.1637826 C123.937778,52.1637826 124.431605,43.2616087 128.382222,38.3159565 C132.33284,33.3703043 138.918519,27.2693478 147.641481,33.2041304 C156.368395,39.1428696 161.962469,48.5396087 158.177778,64.8602609 L154.720988,66.6683913 C154.720988,66.6683913 158.671605,56.2825217 155.214815,45.8966522 C151.758025,35.5107826 131.345185,21.8291304 126.079012,52.8205652 L123.937778,52.1637826" id="Fill-37" sketch:type="MSShapeGroup"></path>
            <path d="M141.881481,30.8974783 L155.214815,31.8866087 C155.214815,31.8866087 174.967901,37.8213913 166.900741,62.8780435 L164.26963,63.8711304 C164.26963,63.8711304 172.004938,40.4564348 155.214815,34.5216522 L145.504198,33.7026522 L141.881481,30.8974783" id="Fill-38" sketch:type="MSShapeGroup"></path>
            <path d="M141.466667,43.0993913 C136.876049,43.0993913 133.158519,48.2586957 133.158519,54.6366087 C133.158519,61.0105652 136.876049,66.1777826 141.466667,66.1777826 C146.061235,66.1777826 149.782716,61.0105652 149.782716,54.6366087 C149.782716,48.2586957 146.061235,43.0993913 141.466667,43.0993913 L141.466667,43.0993913 Z M141.55358,62.9373913 C138.09679,62.9373913 135.295802,59.052087 135.295802,54.2567826 C135.295802,49.4575217 138.09679,45.5722174 141.55358,45.5722174 C145.00642,45.5722174 147.807407,49.4575217 147.807407,54.2567826 C147.807407,59.052087 145.00642,62.9373913 141.55358,62.9373913 L141.55358,62.9373913 Z" id="Fill-39" sketch:type="MSShapeGroup"></path>
            <path d="M143.035062,45.2398696 C143.035062,45.2398696 139.084444,48.5356522 138.590617,52.3220435 C138.09679,56.1203043 139.084444,61.5565652 143.528889,63.701 L145.01037,62.707913 C145.01037,62.707913 136.283457,55.7879565 144.350617,45.7344348 L143.035062,45.2398696" id="Fill-40" sketch:type="MSShapeGroup"></path>
            <path d="M118.343704,25.7896087 L132.170864,29.576 L135.295802,33.5325217 L133.652346,34.5216522 L131.017284,31.3920435 L122.622222,29.0814348 L118.343704,25.7896087" id="Fill-41" sketch:type="MSShapeGroup"></path>
            <path d="M128.054321,29.2515652 L128.220247,4.19095652 L141.387654,4.68552174 L156.202469,16.3928696 L151.758025,22.8222174 L141.059753,19.027913 L141.55358,32.2189565 L138.424691,32.3811739 L138.752593,15.8983043 L150.77037,20.3493913 L153.567407,17.0496522 L140.727901,7.15834783 L130.689383,6.826 L130.357531,29.9083478 L128.054321,29.2515652" id="Fill-42" sketch:type="MSShapeGroup"></path>
            <path d="M128.220247,4.19095652 L122.128395,10.7825217 L120.974815,27.4355217 L123.281975,28.2624348 L124.597531,10.9526522 L128.714074,6.007 L128.220247,4.19095652" id="Fill-43" sketch:type="MSShapeGroup"></path>
            <path d="M151.758025,22.8222174 L146.325926,24.8004783 L139.412346,22.652087 L139.24642,20.5116087 L145.504198,22.652087 L149.948642,21.3385217 L151.758025,22.8222174" id="Fill-44" sketch:type="MSShapeGroup"></path>
            <path d="M73.4054321,37.8213913 L78.505679,37.9836087 L78.9995062,36.6700435 L73.8992593,36.0053478 L73.4054321,37.8213913" id="Fill-45" sketch:type="MSShapeGroup"></path>
            <path d="M96.0385185,33.5325217 L102.948148,30.8104348 L97.2711111,37.6591739 L96.0385185,33.5325217" id="Fill-46" sketch:type="MSShapeGroup"></path>
            <path d="M74.0296296,85.2442609 C74.1955556,85.8852174 74.3061728,86.549913 74.3061728,87.2541739 C74.3061728,91.1078261 71.6592593,94.2295217 68.3802469,94.2295217 C65.1091358,94.2295217 62.454321,91.1078261 62.454321,87.2541739 C62.454321,83.8436522 64.5323457,81.0147391 67.2701235,80.3975217 L66.8316049,77.4538696 C62.8177778,78.1976957 59.7402469,82.2531304 59.7402469,87.1908696 C59.7402469,92.6548261 63.497284,97.0821739 68.1353086,97.0821739 C72.7733333,97.0821739 76.5303704,92.6548261 76.5303704,87.1908696 C76.5303704,87.0326087 76.4987654,86.8822609 76.4908642,86.724 L74.0296296,85.2442609" id="Fill-47" sketch:type="MSShapeGroup"></path>
            <path d="M64.1846914,69.3865217 C64.1846914,69.3865217 50.851358,74.0868696 52.5777778,87.9307391 C54.3081481,101.782522 62.2093827,108.21187 73.8162963,105.244478 C85.4192593,102.277087 89.6148148,96.3423043 89.6148148,96.3423043 L78.7506173,88.6745652 L75.542716,86.6963043 C75.542716,86.6963043 75.7876543,91.1473913 73.0735802,92.8803478 C70.3555556,94.6093478 68.1353086,96.8368696 64.6785185,93.374913 C61.2217284,89.9129565 59.9851852,89.4183913 61.4666667,85.2126087 C62.9481481,81.0107826 66.4088889,78.7832609 66.4088889,78.7832609 L67.6414815,78.7832609 L64.1846914,69.3865217" id="Fill-48" sketch:type="MSShapeGroup"></path>
            <path d="M130.851358,125.984565 C118.003951,125.984565 107.586173,132.853087 107.586173,141.331913 C107.586173,149.806783 118.003951,156.679261 130.851358,156.679261 C143.706667,156.679261 154.124444,149.806783 154.124444,141.331913 C154.124444,132.853087 143.706667,125.984565 130.851358,125.984565 L130.851358,125.984565 Z M131.076543,153.680217 C120.563951,153.680217 112.038519,148.054043 112.038519,141.122217 C112.038519,134.190391 120.563951,128.564217 131.076543,128.564217 C141.593086,128.564217 150.118519,134.190391 150.118519,141.122217 C150.118519,148.054043 141.593086,153.680217 131.076543,153.680217 L131.076543,153.680217 Z" id="Fill-49" sketch:type="MSShapeGroup"></path>
            <path d="M130.057284,132.57613 C123.289877,132.57613 117.794568,136.200304 117.794568,140.659304 C117.794568,145.126217 123.289877,148.750391 130.057284,148.750391 C136.824691,148.750391 142.308148,145.126217 142.308148,140.659304 C142.308148,136.200304 136.824691,132.57613 130.057284,132.57613 L130.057284,132.57613 Z M130.171852,146.578261 C125.126914,146.578261 121.030123,143.879913 121.030123,140.548522 C121.030123,137.221087 125.126914,134.522739 130.171852,134.522739 C135.21679,134.522739 139.30963,137.221087 139.30963,140.548522 C139.30963,143.879913 135.21679,146.578261 130.171852,146.578261 L130.171852,146.578261 Z" id="Fill-50" sketch:type="MSShapeGroup"></path>
            <path d="M107.787654,141.502043 L107.957531,155.80487 C107.957531,155.80487 118.165926,163.531957 128.157037,163.765391 C138.152099,163.986957 146.104691,161.482478 152.457284,156.485391 L153.899259,141.355652 L150.628148,144.243913 L149.391605,155.061043 C149.391605,155.061043 143.607901,159.99087 131.345185,159.99087 C119.09037,159.99087 111.244444,154.242043 111.244444,154.242043 L111.66321,145.33987 L107.787654,141.502043" id="Fill-51" sketch:type="MSShapeGroup"></path>
            <path d="M119.72642,140.96 C119.72642,140.96 129.508148,133.50987 140.921481,141.098478 L140.388148,143.005522 C140.388148,143.005522 130.511605,136.872913 120.718025,142.922435 L119.72642,140.96" id="Fill-52" sketch:type="MSShapeGroup"></path>
            <path d="M27.4558025,1.55195652 C16.0385185,-1.60534783 5.09925926,1.93178261 3.02123457,9.46895652 C0.943209877,16.9942609 8.51259259,25.663 19.9338272,28.8163478 C31.3511111,31.9776087 42.2903704,28.4365217 44.3683951,20.9033043 C46.4464198,13.378 38.877037,4.71321739 27.4558025,1.55195652 L27.4558025,1.55195652 Z M20.8661728,26.2050435 C11.5269136,23.6253913 5.33234568,16.5392609 7.03111111,10.375 C8.72987654,4.21865217 17.6819753,1.31456522 27.0212346,3.89817391 C36.3604938,6.48573913 42.5550617,13.5797826 40.8602469,19.7361304 C39.1614815,25.8964348 30.2014815,28.7926087 20.8661728,26.2050435 L20.8661728,26.2050435 Z" id="Fill-53" sketch:type="MSShapeGroup"></path>
            <path d="M25.1288889,7.20978261 C19.12,5.54804348 13.3520988,7.41156522 12.2538272,11.376 C11.1595062,15.3483478 15.1575309,19.9141739 21.1664198,21.575913 C27.1832099,23.2376522 32.9432099,21.3741304 34.0375309,17.4017826 C35.1279012,13.4373478 31.145679,8.87152174 25.1288889,7.20978261 L25.1288889,7.20978261 Z M21.8024691,19.6846957 C17.3185185,18.4383913 14.3437037,15.0397391 15.1575309,12.0802609 C15.9753086,9.12078261 20.2735802,7.72808696 24.7535802,8.97043478 C29.2414815,10.2088261 32.2083951,13.6074783 31.3945679,16.5669565 C30.5767901,19.5303913 26.2864198,20.9191304 21.8024691,19.6846957 L21.8024691,19.6846957 Z" id="Fill-54" sketch:type="MSShapeGroup"></path>
            <path d="M3.15950617,9.66282609 L-0.190617284,22.4186522 C-0.190617284,22.4186522 6.97975309,31.7916522 15.8054321,34.4504348 C24.6232099,37.1092174 32.3032099,36.8362174 39.1693827,33.9558696 L44.162963,20.8637391 L40.5520988,22.6362609 L36.7990123,31.942 C36.7990123,31.942 30.4503704,34.8975217 19.5585185,31.8866087 C8.66666667,28.8717391 3.11209877,21.833087 3.11209877,21.833087 L5.66024691,14.0268696 L3.15950617,9.66282609" id="Fill-55" sketch:type="MSShapeGroup"></path>
            <path d="M13.897284,12.1158696 C13.897284,12.1158696 24.4177778,7.90613043 32.694321,17.4492609 L31.7540741,19.02 C31.7540741,19.02 24.4849383,11.1386087 14.3002469,14.1099565 L13.897284,12.1158696" id="Fill-56" sketch:type="MSShapeGroup"></path>
            <path d="M171.831111,60.0214348 L167.355062,57.4853043 L166.900741,62.8780435 C166.900741,62.8780435 170.641975,60.7613043 171.831111,60.0214348" id="Fill-57" sketch:type="MSShapeGroup"></path>
        </g>
    </g>
</svg>