<?xml version="1.0" encoding="UTF-8" standalone="no"?>
<svg width="156px" height="277px" viewBox="0 0 156 277" version="1.1" xmlns="http://www.w3.org/2000/svg" xmlns:xlink="http://www.w3.org/1999/xlink" xmlns:sketch="http://www.bohemiancoding.com/sketch/ns">
    <!-- Generator: Sketch Beta 3.1 (8657) - http://www.bohemiancoding.com/sketch -->
    <title>Fill 1 + Fill 2 + Fill 3 + 3€</title>
    <desc>Created with Sketch Beta.</desc>
    <defs>
        <linearGradient x1="19.866049%" y1="4.12174811%" x2="84.844255%" y2="97.4830182%" id="linearGradient-1">
            <stop stop-color="#A57BB7" offset="0%"></stop>
            <stop stop-color="#312F5C" offset="100%"></stop>
        </linearGradient>
        <linearGradient x1="-501.487512%" y1="-877.243672%" x2="282.124695%" y2="399.891157%" id="linearGradient-2">
            <stop stop-color="#A57BB7" offset="0%"></stop>
            <stop stop-color="#312F5C" offset="100%"></stop>
        </linearGradient>
    </defs>
    <g id="Page-1" stroke="none" stroke-width="1" fill="none" fill-rule="evenodd" sketch:type="MSPage">
        <g id="Fill-1-+-Fill-2-+-Fill-3-+-3€" sketch:type="MSLayerGroup">
            <g id="Fill-1-+-Fill-2-+-Fill-3" sketch:type="MSShapeGroup">
                <path d="M144.93627,116.213772 C152.144697,104.663924 156.296225,91.1023196 156.296225,76.5948829 C156.296225,34.4216329 121.214629,0.237553797 77.930764,0.237553797 C34.6521573,0.237553797 -0.434696629,34.4216329 -0.434696629,76.5948829 C-0.434696629,93.4533133 5.17604494,109.031057 14.6718876,121.663484 C18.5333258,130.735234 27.5208539,151.797753 30.6355955,158.696456 C34.6468989,167.581494 44.6764719,190.794269 49.2600674,199.391788 C53.8445393,207.989307 61.2948539,219.165731 61.2948539,219.165731 L70.5216404,233.430354 L69.7915955,233.402304 L74.7616854,270.465079 C74.7616854,270.465079 72.0842697,271.612525 79.3452809,274.284348 C86.6062921,276.962307 107.236854,276.578364 107.236854,276.578364 L122.898202,258.236756 C122.898202,258.236756 124.808764,254.797047 123.282944,249.065953 C121.97973,244.188649 117.638899,222.723778 116.372494,216.427288 C120.949079,200.938079 137.010944,147.498994 138.370247,141.78806 C139.256292,138.067845 142.54982,125.370551 144.93627,116.213772 L144.93627,116.213772 Z M104.344719,148.500927 L103.127393,157.837405 C103.127393,157.837405 99.6892584,171.592734 99.6892584,181.336823 C99.6892584,188.989386 98.4526517,197.698231 97.9215506,201.087098 C93.1591685,198.732598 86.8753483,199.423345 82.3522247,201.916345 L82.7842921,201.398285 C82.7842921,201.398285 73.0421798,181.05018 70.1763371,169.300472 C68.3577978,161.842509 67.1176854,155.659975 66.4533708,152.134361 C70.2,152.669953 74.0316404,152.951335 77.930764,152.951335 C87.2004944,152.951335 96.091618,151.379623 104.344719,148.500927 L104.344719,148.500927 Z M120.411843,250.709544 C120.449528,251.160108 120.467056,251.605411 120.470562,252.035813 L120.259348,251.79563 L120.411843,250.709544 L120.411843,250.709544 Z M118.923708,250.276513 L114.539933,245.290513 L115.937798,235.812028 L117.340921,237.126025 C118.178764,241.187231 119.010472,245.014389 119.545955,246.949006 L118.923708,250.276513 L118.923708,250.276513 Z M95.1039101,272.562741 L93.9996404,271.494187 L98.4693034,266.236446 L103.802225,271.323253 L103.962607,272.4295 C102.147573,272.492614 98.7357303,272.586408 95.1039101,272.562741 L95.1039101,272.562741 Z M78.1998202,268.553253 L77.4785393,263.309538 L79.7913708,260.483437 L84.2557753,264.866348 L79.6581573,270.232785 C78.0192809,269.280816 78.1998202,268.553253 78.1998202,268.553253 L78.1998202,268.553253 Z M74.0000899,237.986829 L84.2189663,238.291003 L78.7940225,244.143066 L74.2332135,239.689152 L74.0000899,237.986829 L74.0000899,237.986829 Z M108.648742,228.991342 L109.191236,229.498006 L107.668921,237.474905 L104.314045,233.660019 L108.648742,228.991342 L108.648742,228.991342 Z M80.0525393,245.372911 L85.8806292,238.779259 L90.9751685,243.772272 L85.1996629,250.400111 L80.0525393,245.372911 L80.0525393,245.372911 Z M83.6861124,252.137497 L79.2532584,257.224304 L76.242809,254.310544 L75.692427,250.30544 L78.4697528,247.162892 L83.6861124,252.137497 L83.6861124,252.137497 Z M92.3590112,245.128345 L97.1459326,249.819813 L91.4326517,256.488851 L86.7806966,251.943772 L92.3590112,245.128345 L92.3590112,245.128345 Z M98.7304719,251.373117 L101.286944,253.879266 L102.08973,259.442057 L98.4824494,263.374405 L92.9286742,257.949237 L98.7304719,251.373117 L98.7304719,251.373117 Z M103.498112,244.581358 L102.371933,235.751544 L102.705843,235.391269 L107.167618,240.102022 L105.417438,249.271073 L103.932809,247.98688 L103.65236,245.792794 L103.798719,245.626244 L103.498112,244.581358 L103.498112,244.581358 Z M104.625169,253.420813 L104.206247,250.135383 L105.103685,250.912035 L104.625169,253.420813 L104.625169,253.420813 Z M100.889933,251.127674 L99.8575281,250.09506 L100.617371,249.23338 L100.889933,251.127674 L100.889933,251.127674 Z M102.402607,261.611598 L103.34036,268.119345 L99.8049438,264.666487 L102.402607,261.611598 L102.402607,261.611598 Z M105.491056,260.213449 L106.904697,252.468845 L110.797685,255.834921 L109.473438,264.070411 L105.536629,260.571095 L105.491056,260.213449 L105.491056,260.213449 Z M107.20618,250.818241 L108.839798,241.867459 L112.433933,245.662184 L111.067618,254.158896 L107.20618,250.818241 L107.20618,250.818241 Z M109.301663,239.333259 L110.818719,231.021506 L114.27,234.250835 L112.810787,243.323462 L109.301663,239.333259 L109.301663,239.333259 Z M111.267438,228.56357 L111.810809,225.584943 L114.489978,222.700111 C114.489978,222.700111 114.848427,224.587392 115.383034,227.330218 L114.717843,231.46418 L111.267438,228.56357 L111.267438,228.56357 Z M99.1029438,238.733677 L100.189685,246.267025 L98.2703596,248.50757 L93.4983371,243.735456 L97.6288315,238.689848 L99.1029438,238.733677 L99.1029438,238.733677 Z M92.1670787,242.404804 L88.1706742,238.408465 L95.4606067,238.624981 L92.1670787,242.404804 L92.1670787,242.404804 Z M74.7765843,243.640785 L77.1560225,245.90938 L75.3550112,247.851886 L74.7765843,243.640785 L74.7765843,243.640785 Z M77.9710787,258.696085 L76.9982697,259.811975 L76.669618,257.418028 L77.9710787,258.696085 L77.9710787,258.696085 Z M81.042,258.955554 L85.3346292,253.710085 L90.0006067,258.160494 L85.5677528,263.334959 L81.042,258.955554 L81.042,258.955554 Z M91.489618,259.580557 L97.0758202,264.907547 L92.4291236,269.974193 L86.9761348,264.697168 L91.489618,259.580557 L91.489618,259.580557 Z M105.847753,263.006241 L109.127258,266.219791 L108.761798,268.494522 L106.82582,270.678965 L105.847753,263.006241 L105.847753,263.006241 Z M112.737169,257.511823 L115.996517,260.330035 L111.587326,265.305516 L112.737169,257.511823 L112.737169,257.511823 Z M116.953551,259.250085 L112.986944,255.819142 L114.208652,247.53544 L118.574022,252.144509 L117.322517,258.833709 L116.953551,259.250085 L116.953551,259.250085 Z M116.373371,232.856193 L116.405798,232.636171 L116.375124,232.360047 C116.414562,232.559032 116.454876,232.757139 116.495191,232.957877 L116.373371,232.856193 L116.373371,232.856193 Z M99.2142472,234.547997 L77.6529438,233.708231 C78.2725618,211.568392 80.8421798,205.943364 85.3617978,203.117263 C89.9471461,200.251715 98.2563371,203.690547 100.834719,209.135877 C102.809258,213.304902 104.447258,223.178725 105.106315,227.580921 L99.2142472,234.547997 L99.2142472,234.547997 Z M57.8567191,208.276826 C51.4510787,198.133892 29.1465843,148.975158 20.7883146,128.84094 C31.704809,140.172519 46.1295506,148.256361 62.3745843,151.444491 C63.5112809,156.591782 65.6190337,165.912481 67.0247865,170.733684 C69.0308764,177.611348 75.0473933,190.220984 75.9062697,192.514123 C76.6494607,194.495199 80.1673483,200.956487 81.1121124,202.681601 C79.2357303,203.957028 77.7782697,205.570816 77.0534831,207.416022 C74.756427,213.262826 74.7415281,224.732028 74.9027865,230.53062 L72.4234382,232.471373 C69.3647865,227.237301 62.9144494,216.287035 57.8567191,208.276826 L57.8567191,208.276826 Z M81.3899326,271.030475 L85.6334831,266.218915 L91.021618,271.509089 L90.1644944,272.442649 C87.3205618,272.312038 84.7456854,272.062212 83.1699101,271.612525 C82.4863146,271.417047 81.8991236,271.222446 81.3899326,271.030475 L81.3899326,271.030475 Z M119.638854,256.219741 L119.999056,253.649601 L120.393438,254.065978 C120.31982,254.965351 120.220787,255.56318 120.220787,255.56318 L119.638854,256.219741 L119.638854,256.219741 Z M113.55573,217.589636 L112.90018,218.365411 L107.420022,217.924491 C106.656674,214.340146 105.29036,209.985285 102.840809,205.697044 C102.056427,204.324316 101.058202,203.21807 99.9188764,202.336228 C99.8803146,199.919491 99.8908315,196.073047 100.261551,193.660693 C100.834719,189.934342 101.694472,182.197627 101.694472,179.331203 C101.694472,176.464778 103.699685,170.446165 105.420067,164.71507 C106.588315,160.820415 107.824921,152.109816 108.498876,146.923956 C120.672135,141.89588 131.266989,133.953168 139.369348,123.99607 C134.48427,143.911142 124.784225,177.772639 122.610742,184.775655 C120.228674,192.455392 114.425124,214.308589 113.55573,217.589636 L113.55573,217.589636 Z" id="Fill-1" fill="url(#linearGradient-1)"></path>
                <path d="M91.6833034,208.638854 C87.0497528,209.198114 83.8631461,214.366443 84.5660225,220.183443 C85.2645169,225.995184 89.5939551,230.25362 94.2275056,229.693484 C98.8610562,229.134225 102.047663,223.966772 101.345663,218.149772 C100.647169,212.337155 96.3168539,208.078718 91.6833034,208.638854 L91.6833034,208.638854 Z M94.0478427,227.45557 C90.4615955,227.894737 87.1137303,224.598788 86.571236,220.093155 C86.0243596,215.592782 88.4966966,211.59469 92.0776854,211.159905 C95.6683146,210.725997 99.0170562,214.02107 99.5595506,218.525826 C100.101169,223.021816 97.6332135,227.025168 94.0478427,227.45557 L94.0478427,227.45557 Z" id="Fill-2" fill="url(#linearGradient-2)"></path>
                <path d="M93.5290112,216.014418 C92.0242247,216.014418 90.8068989,217.61681 90.8068989,219.596133 C90.8068989,221.576332 92.0242247,223.178725 93.5290112,223.178725 C95.0337978,223.178725 96.2502472,221.576332 96.2502472,219.596133 C96.2502472,217.61681 95.0337978,216.014418 93.5290112,216.014418" id="Fill-3" fill="url(#linearGradient-2)"></path>
            </g>
            <!-- <path d="M47.44,91.384 C50.896,95.416 56.296,97.864 63.712,97.864 C73.216,97.864 81.424,93.112 81.424,84.472 C81.424,78.712 77.824,75.112 72.64,73.528 L72.64,73.24 C77.536,71.08 79.984,67.768 79.984,63.376 C79.984,55.096 73.504,50.488 63.424,50.488 C57.808,50.488 53.056,52.648 48.592,56.392 L54.784,63.88 C57.664,61.432 59.824,60.136 62.848,60.136 C65.944,60.136 67.6,61.576 67.6,64.312 C67.6,67.48 65.296,69.496 57.664,69.496 L57.664,78.136 C67.24,78.136 69.04,80.152 69.04,83.608 C69.04,86.488 66.448,87.928 62.416,87.928 C59.176,87.928 55.864,86.2 53.056,83.608 L47.44,91.384 Z M106.98,90.75 C105.28,93.05 103.53,94.3 101.08,94.3 C96.98,94.3 94.33,90.9 93.48,85.25 L104.13,85.25 L104.13,82.85 L93.23,82.85 C93.18,82.25 93.18,81.6 93.18,80.95 C93.18,80.45 93.18,79.95 93.23,79.5 L106.13,79.5 L106.13,77.05 L93.43,77.05 C94.23,71.3 96.98,67.8 101.38,67.8 C103.48,67.8 105.13,69 106.53,70.75 L108.98,68.4 C107.23,66.2 104.53,64.5 101.53,64.5 C94.98,64.5 90.38,69.2 89.23,77.05 L86.03,77.3 L86.03,79.5 L88.98,79.5 C88.93,80 88.93,80.55 88.93,81.1 C88.93,81.7 88.93,82.3 88.98,82.9 L86.03,83.1 L86.03,85.25 L89.23,85.25 C90.38,93.05 94.83,97.6 100.83,97.6 C104.48,97.6 107.23,95.85 109.43,92.95 L106.98,90.75 Z" id="3€" fill="#FFFFFF" sketch:type="MSShapeGroup"></path> -->
        </g>
    </g>
</svg>