<?xml version="1.0" encoding="UTF-8" standalone="no"?>
<svg width="402px" height="237px" viewBox="0 0 402 237" version="1.1" xmlns="http://www.w3.org/2000/svg" xmlns:xlink="http://www.w3.org/1999/xlink" xmlns:sketch="http://www.bohemiancoding.com/sketch/ns">
    <!-- Generator: Sketch Beta 3.1 (8657) - http://www.bohemiancoding.com/sketch -->
    <title>section-4-scheme1 2</title>
    <desc>Created with Sketch Beta.</desc>
    <defs></defs>
    <g id="Page-1" stroke="none" stroke-width="1" fill="none" fill-rule="evenodd" sketch:type="MSPage">
        <g id="section-4-scheme1-2" sketch:type="MSLayerGroup" transform="translate(1.000000, 1.000000)">
            <g id="Page-1" sketch:type="MSShapeGroup">
                <g id="Group">
                    <path d="M366.21164,144.078288 L274.620106,144.078288 L274.620106,52.4558108 L366.21164,52.4558108 L366.21164,144.078288 L366.21164,144.078288 Z" id="Fill-1" fill="#BBBDBF"></path>
                    <path d="M366.21164,144.078288 L274.620106,144.078288 L274.620106,52.4558108 L366.21164,52.4558108 L366.21164,144.078288 L366.21164,144.078288 Z" id="Stroke-2" stroke="#FEFEFE"></path>
                    <path d="M400.905185,-0.297666667 L309.315767,-0.297666667 L274.619471,52.4545405 L366.211005,52.4545405 L400.905185,-0.297666667 L400.905185,-0.297666667 Z" id="Fill-3" fill="#D1D2D4"></path>
                    <path d="M400.905185,-0.297666667 L309.315767,-0.297666667 L274.619471,52.4545405 L366.211005,52.4545405 L400.905185,-0.297666667 L400.905185,-0.297666667 Z" id="Stroke-4" stroke="#FEFEFE"></path>
                    <path d="M366.21164,235.698649 L274.620106,235.698649 L274.620106,144.078288 L366.21164,144.078288 L366.21164,235.698649 L366.21164,235.698649 Z" id="Fill-6" fill="#BBBDBF"></path>
                    <path d="M366.21164,235.698649 L274.620106,235.698649 L274.620106,144.078288 L366.21164,144.078288 L366.21164,235.698649 L366.21164,235.698649 Z" id="Stroke-7" stroke="#FEFEFE"></path>
                    <path d="M366.212063,144.077653 L400.906243,91.3233288 L400.906243,-0.297031532 L366.212063,52.4551757 L366.212063,144.077653 L366.212063,144.077653 Z" id="Fill-9" fill="#A6A9AB"></path>
                    <path d="M366.212063,144.077653 L400.906243,91.3233288 L400.906243,-0.297031532 L366.212063,52.4551757 L366.212063,144.077653 L366.212063,144.077653 Z" id="Stroke-10" stroke="#FEFEFE"></path>
                    <path d="M366.212063,235.69886 L400.906243,182.946653 L400.906243,91.3241757 L366.212063,144.0785 L366.212063,235.69886 L366.212063,235.69886 Z" id="Fill-12" fill="#A6A9AB"></path>
                    <path d="M366.212063,235.69886 L400.906243,182.946653 L400.906243,91.3241757 L366.212063,144.0785 L366.212063,235.69886 L366.212063,235.69886 Z" id="Stroke-13" stroke="#FEFEFE"></path>
                    <path d="M91.4391534,144.078288 L-0.152380952,144.078288 L-0.152380952,52.4558108 L91.4391534,52.4558108 L91.4391534,144.078288 L91.4391534,144.078288 Z" id="Fill-15" fill="#D1D2D4"></path>
                    <path d="M91.4391534,144.078288 L-0.152380952,144.078288 L-0.152380952,52.4558108 L91.4391534,52.4558108 L91.4391534,144.078288 L91.4391534,144.078288 Z" id="Stroke-16" stroke="#FEFEFE"></path>
                    <path d="M126.132698,-0.297666667 L34.541164,-0.297666667 L-0.153015873,52.4545405 L91.4385185,52.4545405 L126.132698,-0.297666667 L126.132698,-0.297666667 Z" id="Fill-18" fill="#E6E7E7"></path>
                    <path d="M126.132698,-0.297666667 L34.541164,-0.297666667 L-0.153015873,52.4545405 L91.4385185,52.4545405 L126.132698,-0.297666667 L126.132698,-0.297666667 Z" id="Stroke-19" stroke="#FEFEFE"></path>
                    <path d="M91.4391534,235.698649 L-0.152380952,235.698649 L-0.152380952,144.078288 L91.4391534,144.078288 L91.4391534,235.698649 L91.4391534,235.698649 Z" id="Fill-21" fill="#D1D2D4"></path>
                    <path d="M91.4391534,235.698649 L-0.152380952,235.698649 L-0.152380952,144.078288 L91.4391534,144.078288 L91.4391534,235.698649 L91.4391534,235.698649 Z" id="Stroke-22" stroke="#FEFEFE"></path>
                    <path d="M91.4393651,144.077653 L126.133545,91.3233288 L126.133545,-0.297031532 L91.4393651,52.4551757 L91.4393651,144.077653 L91.4393651,144.077653 Z" id="Fill-24" fill="#BBBDBF"></path>
                    <path d="M91.4393651,144.077653 L126.133545,91.3233288 L126.133545,-0.297031532 L91.4393651,52.4551757 L91.4393651,144.077653 L91.4393651,144.077653 Z" id="Stroke-25" stroke="#FEFEFE"></path>
                    <path d="M91.4393651,235.69886 L126.133545,182.946653 L126.133545,91.3241757 L91.4393651,144.0785 L91.4393651,235.69886 L91.4393651,235.69886 Z" id="Fill-27" fill="#BBBDBF"></path>
                    <path d="M91.4393651,235.69886 L126.133545,182.946653 L126.133545,91.3241757 L91.4393651,144.0785 L91.4393651,235.69886 L91.4393651,235.69886 Z" id="Stroke-28" stroke="#FEFEFE"></path>
                    <path d="M30.6175661,78.6517477 L25.3540741,75.2664775 L25.3540741,98.4827838 L30.6175661,101.868054 L30.6175661,78.6517477 L30.6175661,78.6517477 Z" id="Fill-30" fill="#FEFEFE"></path>
                    <path d="M45.7693122,106.161779 L42.5502646,104.061599 L42.5502646,77.7310135 L36.0656085,81.4296171 L36.0656085,104.643806 L45.7693122,110.819437 L45.7693122,106.161779 L45.7693122,106.161779 Z" id="Fill-31" fill="#FEFEFE"></path>
                    <path d="M45.7238095,106.163896 L48.9428571,104.059482 L48.9428571,77.7288964 L55.4338624,81.4296171 L55.4338624,104.643806 L45.7238095,110.819437 L45.7238095,106.163896 L45.7238095,106.163896 Z" id="Fill-32" fill="#FEFEFE"></path>
                    <path d="M25.5312169,81.6186757 L45.4190476,69.9575946 L45.3449735,63.8687658 L25.4550265,75.5298468 L25.5312169,81.6186757 L25.5312169,81.6186757 Z" id="Fill-33" fill="#FEFEFE"></path>
                    <path d="M60.0404233,78.6506892 L65.3039153,75.2654189 L65.3039153,98.4817252 L60.0404233,101.866995 L60.0404233,78.6506892 L60.0404233,78.6506892 Z" id="Fill-34" fill="#FEFEFE"></path>
                    <path d="M65.1269841,81.6176171 L45.237037,69.956536 L45.3132275,63.8698243 L65.2031746,75.5309054 L65.1269841,81.6176171 L65.1269841,81.6176171 Z" id="Fill-35" fill="#FEFEFE"></path>
                    <path d="M228.825608,144.077653 L137.234074,144.075536 L137.234074,52.4551757 L228.825608,52.4551757 L228.825608,144.077653 L228.825608,144.077653 Z" id="Fill-36" fill="#A6A9AB"></path>
                    <path d="M228.825608,144.077653 L137.234074,144.075536 L137.234074,52.4551757 L228.825608,52.4551757 L228.825608,144.077653 L228.825608,144.077653 Z" id="Stroke-37" stroke="#FEFEFE"></path>
                    <path d="M263.518942,-0.297666667 L171.927407,-0.297666667 L137.233228,52.4545405 L228.824762,52.4545405 L263.518942,-0.297666667 L263.518942,-0.297666667 Z" id="Fill-38" fill="#BBBDBF"></path>
                    <path d="M263.518942,-0.297666667 L171.927407,-0.297666667 L137.233228,52.4545405 L228.824762,52.4545405 L263.518942,-0.297666667 L263.518942,-0.297666667 Z" id="Stroke-39" stroke="#FEFEFE"></path>
                    <path d="M228.825608,235.69886 L137.234074,235.69886 L137.234074,144.076383 L228.825608,144.0785 L228.825608,235.69886 L228.825608,235.69886 Z" id="Fill-41" fill="#A6A9AB"></path>
                    <path d="M228.825608,235.69886 L137.234074,235.69886 L137.234074,144.076383 L228.825608,144.0785 L228.825608,235.69886 L228.825608,235.69886 Z" id="Stroke-42" stroke="#FEFEFE"></path>
                    <path d="M228.825608,144.077653 L263.519788,91.3254459 L263.519788,-0.297031532 L228.825608,52.4551757 L228.825608,144.077653 L228.825608,144.077653 Z" id="Fill-44" fill="#939597"></path>
                    <path d="M228.825608,144.077653 L263.519788,91.3254459 L263.519788,-0.297031532 L228.825608,52.4551757 L228.825608,144.077653 L228.825608,144.077653 Z" id="Stroke-45" stroke="#FEFEFE"></path>
                    <path d="M228.825608,235.69886 L263.519788,182.946653 L263.519788,91.3262928 L228.825608,144.0785 L228.825608,235.69886 L228.825608,235.69886 Z" id="Fill-47" fill="#939597"></path>
                    <path d="M228.825608,235.69886 L263.519788,182.946653 L263.519788,91.3262928 L228.825608,144.0785 L228.825608,235.69886 L228.825608,235.69886 Z" id="Stroke-48" stroke="#FEFEFE"></path>
                    <path d="M169.293545,78.6517477 L164.030053,75.2664775 L164.030053,98.4827838 L169.293545,101.868054 L169.293545,78.6517477 L169.293545,78.6517477 Z" id="Fill-50" fill="#FEFEFE"></path>
                    <path d="M184.447407,106.161779 L181.22836,104.059482 L181.22836,77.7310135 L174.743704,81.4296171 L174.743704,104.643806 L184.447407,110.819437 L184.447407,106.161779 L184.447407,106.161779 Z" id="Fill-51" fill="#FEFEFE"></path>
                    <path d="M184.399788,106.161779 L187.618836,104.059482 L187.618836,77.7288964 L194.111958,81.4296171 L194.111958,104.643806 L184.399788,110.819437 L184.399788,106.161779 L184.399788,106.161779 Z" id="Fill-52" fill="#FEFEFE"></path>
                    <path d="M164.207196,81.6186757 L184.097143,69.9575946 L184.020952,63.8687658 L164.131005,75.5298468 L164.207196,81.6186757 L164.207196,81.6186757 Z" id="Fill-53" fill="#FEFEFE"></path>
                    <path d="M198.716614,78.6506892 L203.980106,75.267536 L203.980106,98.4817252 L198.716614,101.866995 L198.716614,78.6506892 L198.716614,78.6506892 Z" id="Fill-54" fill="#FEFEFE"></path>
                    <path d="M203.802963,81.6176171 L183.913016,69.956536 L183.989206,63.8698243 L203.879153,75.5309054 L203.802963,81.6176171 L203.802963,81.6176171 Z" id="Fill-55" fill="#FEFEFE"></path>
                    <path d="M306.35746,78.6496306 L301.093968,75.2685946 L301.093968,98.4827838 L306.35746,101.865937 L306.35746,78.6496306 L306.35746,78.6496306 Z" id="Fill-56" fill="#FEFEFE"></path>
                    <path d="M321.511323,106.162838 L318.292275,104.058423 L318.292275,77.729955 L311.807619,81.4306757 L311.807619,104.644865 L321.511323,110.818378 L321.511323,106.162838 L321.511323,106.162838 Z" id="Fill-57" fill="#FEFEFE"></path>
                    <path d="M321.463704,106.162838 L324.682751,104.060541 L324.682751,77.7320721 L331.175873,81.4306757 L331.175873,104.644865 L321.463704,110.818378 L321.463704,106.162838 L321.463704,106.162838 Z" id="Fill-58" fill="#FEFEFE"></path>
                    <path d="M301.271111,81.6165586 L321.161058,69.9554775 L321.084868,63.8687658 L301.194921,75.5298468 L301.271111,81.6165586 L301.271111,81.6165586 Z" id="Fill-59" fill="#FEFEFE"></path>
                    <path d="M335.780529,78.6496306 L341.044021,75.2664775 L341.044021,98.4827838 L335.780529,101.865937 L335.780529,78.6496306 L335.780529,78.6496306 Z" id="Fill-60" fill="#FEFEFE"></path>
                    <path d="M340.866878,81.6165586 L320.979048,69.9554775 L321.053122,63.8687658 L340.943069,75.5298468 L340.866878,81.6165586 L340.866878,81.6165586 Z" id="Fill-61" fill="#FEFEFE"></path>
                </g>
            </g>
        </g>
        <path d="M8.984,132 L11.144,132 C13.472,132 14.9,130.644 14.9,128.04 C14.9,125.448 13.472,124.152 11.072,124.152 L8.984,124.152 L8.984,132 Z M10.376,130.872 L10.376,125.28 L10.976,125.28 C12.56,125.28 13.472,126.12 13.472,128.04 C13.472,129.972 12.56,130.872 10.976,130.872 L10.376,130.872 Z M16.46,132 L21.296,132 L21.296,130.824 L17.852,130.824 L17.852,128.508 L20.672,128.508 L20.672,127.332 L17.852,127.332 L17.852,125.328 L21.176,125.328 L21.176,124.152 L16.46,124.152 L16.46,132 Z M24.26,132 L25.916,132 L28.34,124.152 L26.924,124.152 L25.832,128.1 C25.58,128.988 25.4,129.756 25.136,130.656 L25.088,130.656 C24.824,129.756 24.656,128.988 24.404,128.1 L23.3,124.152 L21.824,124.152 L24.26,132 Z M29.264,132 L34.1,132 L34.1,130.824 L30.656,130.824 L30.656,128.508 L33.476,128.508 L33.476,127.332 L30.656,127.332 L30.656,125.328 L33.98,125.328 L33.98,124.152 L29.264,124.152 L29.264,132 Z M35.672,132 L40.316,132 L40.316,130.824 L37.064,130.824 L37.064,124.152 L35.672,124.152 L35.672,132 Z M44.336,132.144 C46.376,132.144 47.792,130.584 47.792,128.04 C47.792,125.508 46.376,124.008 44.336,124.008 C42.284,124.008 40.868,125.508 40.868,128.04 C40.868,130.584 42.284,132.144 44.336,132.144 L44.336,132.144 Z M44.336,130.932 C43.1,130.932 42.296,129.804 42.296,128.04 C42.296,126.288 43.1,125.22 44.336,125.22 C45.56,125.22 46.364,126.288 46.364,128.04 C46.364,129.804 45.56,130.932 44.336,130.932 L44.336,130.932 Z M49.34,132 L50.732,132 L50.732,129.12 L51.98,129.12 C53.66,129.12 54.956,128.316 54.956,126.576 C54.956,124.752 53.696,124.152 51.98,124.152 L49.34,124.152 L49.34,132 Z M50.732,128.004 L50.732,125.268 L51.86,125.268 C53,125.268 53.588,125.592 53.588,126.576 C53.588,127.536 53.036,128.004 51.86,128.004 L50.732,128.004 Z M56.396,132 L57.668,132 L57.668,128.412 C57.668,127.68 57.56,126.636 57.5,125.916 L57.548,125.916 L58.172,127.704 L59.528,131.268 L60.164,131.268 L61.52,127.704 L62.156,125.916 L62.204,125.916 C62.132,126.636 62.024,127.68 62.024,128.412 L62.024,132 L63.332,132 L63.332,124.152 L61.796,124.152 L60.416,128.016 L59.9,129.504 L59.852,129.504 L59.336,128.016 L57.92,124.152 L56.396,124.152 L56.396,132 Z M65.3,132 L70.136,132 L70.136,130.824 L66.692,130.824 L66.692,128.508 L69.512,128.508 L69.512,127.332 L66.692,127.332 L66.692,125.328 L70.016,125.328 L70.016,124.152 L65.3,124.152 L65.3,132 Z M71.708,132 L73.028,132 L73.028,128.568 C73.028,127.692 72.92,126.744 72.848,125.916 L72.896,125.916 L73.712,127.584 L76.148,132 L77.576,132 L77.576,124.152 L76.256,124.152 L76.256,127.56 C76.256,128.436 76.364,129.432 76.436,130.236 L76.388,130.236 L75.572,128.568 L73.136,124.152 L71.708,124.152 L71.708,132 Z M81.128,132 L82.52,132 L82.52,125.328 L84.776,125.328 L84.776,124.152 L78.86,124.152 L78.86,125.328 L81.128,125.328 L81.128,132 Z" id="DEVELOPMENT-2" fill="#FFFFFF" sketch:type="MSShapeGroup"></path>
        <path d="M20.476,194 L23.716,194 C27.208,194 29.35,191.966 29.35,188.06 C29.35,184.172 27.208,182.228 23.608,182.228 L20.476,182.228 L20.476,194 Z M22.564,192.308 L22.564,183.92 L23.464,183.92 C25.84,183.92 27.208,185.18 27.208,188.06 C27.208,190.958 25.84,192.308 23.464,192.308 L22.564,192.308 Z M33.49,189.176 L33.904,187.736 C34.282,186.494 34.624,185.162 34.948,183.848 L35.02,183.848 C35.362,185.144 35.722,186.494 36.082,187.736 L36.496,189.176 L33.49,189.176 Z M37.882,194 L40.096,194 L36.262,182.228 L33.814,182.228 L29.962,194 L32.104,194 L33.022,190.814 L36.964,190.814 L37.882,194 Z M43.156,194 L45.244,194 L45.244,183.992 L48.628,183.992 L48.628,182.228 L39.754,182.228 L39.754,183.992 L43.156,183.992 L43.156,194 Z M51.814,189.176 L52.228,187.736 C52.606,186.494 52.948,185.162 53.272,183.848 L53.344,183.848 C53.686,185.144 54.046,186.494 54.406,187.736 L54.82,189.176 L51.814,189.176 Z M56.206,194 L58.42,194 L54.586,182.228 L52.138,182.228 L48.286,194 L50.428,194 L51.346,190.814 L55.288,190.814 L56.206,194 Z M65.494,189.176 L65.908,187.736 C66.286,186.494 66.628,185.162 66.952,183.848 L67.024,183.848 C67.366,185.144 67.726,186.494 68.086,187.736 L68.5,189.176 L65.494,189.176 Z M69.886,194 L72.1,194 L68.266,182.228 L65.818,182.228 L61.966,194 L64.108,194 L65.026,190.814 L68.968,190.814 L69.886,194 Z" id="DATA-A-2" fill="#FFFFFF" sketch:type="MSShapeGroup"></path>
        <path d="M158.476,194 L161.716,194 C165.208,194 167.35,191.966 167.35,188.06 C167.35,184.172 165.208,182.228 161.608,182.228 L158.476,182.228 L158.476,194 Z M160.564,192.308 L160.564,183.92 L161.464,183.92 C163.84,183.92 165.208,185.18 165.208,188.06 C165.208,190.958 163.84,192.308 161.464,192.308 L160.564,192.308 Z M171.49,189.176 L171.904,187.736 C172.282,186.494 172.624,185.162 172.948,183.848 L173.02,183.848 C173.362,185.144 173.722,186.494 174.082,187.736 L174.496,189.176 L171.49,189.176 Z M175.882,194 L178.096,194 L174.262,182.228 L171.814,182.228 L167.962,194 L170.104,194 L171.022,190.814 L174.964,190.814 L175.882,194 Z M181.156,194 L183.244,194 L183.244,183.992 L186.628,183.992 L186.628,182.228 L177.754,182.228 L177.754,183.992 L181.156,183.992 L181.156,194 Z M189.814,189.176 L190.228,187.736 C190.606,186.494 190.948,185.162 191.272,183.848 L191.344,183.848 C191.686,185.144 192.046,186.494 192.406,187.736 L192.82,189.176 L189.814,189.176 Z M194.206,194 L196.42,194 L192.586,182.228 L190.138,182.228 L186.286,194 L188.428,194 L189.346,190.814 L193.288,190.814 L194.206,194 Z M201.514,194 L205.582,194 C208.174,194 210.1,192.902 210.1,190.544 C210.1,188.96 209.146,188.042 207.454,187.754 L207.454,187.682 C208.84,187.322 209.47,186.242 209.47,185.126 C209.47,182.966 207.688,182.228 205.276,182.228 L201.514,182.228 L201.514,194 Z M203.602,187.106 L203.602,183.848 L205.132,183.848 C206.662,183.848 207.418,184.298 207.418,185.378 C207.418,186.476 206.734,187.106 205.078,187.106 L203.602,187.106 Z M203.602,192.38 L203.602,188.6 L205.366,188.6 C207.112,188.6 208.048,189.176 208.048,190.4 C208.048,191.732 207.094,192.38 205.366,192.38 L203.602,192.38 Z" id="DATA-B-2" fill="#FFFFFF" sketch:type="MSShapeGroup"></path>
        <path d="M296.476,194 L299.716,194 C303.208,194 305.35,191.966 305.35,188.06 C305.35,184.172 303.208,182.228 299.608,182.228 L296.476,182.228 L296.476,194 Z M298.564,192.308 L298.564,183.92 L299.464,183.92 C301.84,183.92 303.208,185.18 303.208,188.06 C303.208,190.958 301.84,192.308 299.464,192.308 L298.564,192.308 Z M309.49,189.176 L309.904,187.736 C310.282,186.494 310.624,185.162 310.948,183.848 L311.02,183.848 C311.362,185.144 311.722,186.494 312.082,187.736 L312.496,189.176 L309.49,189.176 Z M313.882,194 L316.096,194 L312.262,182.228 L309.814,182.228 L305.962,194 L308.104,194 L309.022,190.814 L312.964,190.814 L313.882,194 Z M319.156,194 L321.244,194 L321.244,183.992 L324.628,183.992 L324.628,182.228 L315.754,182.228 L315.754,183.992 L319.156,183.992 L319.156,194 Z M327.814,189.176 L328.228,187.736 C328.606,186.494 328.948,185.162 329.272,183.848 L329.344,183.848 C329.686,185.144 330.046,186.494 330.406,187.736 L330.82,189.176 L327.814,189.176 Z M332.206,194 L334.42,194 L330.586,182.228 L328.138,182.228 L324.286,194 L326.428,194 L327.346,190.814 L331.288,190.814 L332.206,194 Z M338.884,188.15 C338.884,192.056 341.242,194.216 344.23,194.216 C345.724,194.216 346.948,193.604 347.902,192.506 L346.75,191.228 C346.084,191.966 345.31,192.398 344.266,192.398 C342.304,192.398 341.026,190.778 341.026,188.096 C341.026,185.45 342.412,183.83 344.338,183.83 C345.238,183.83 345.904,184.208 346.516,184.802 L347.668,183.506 C346.93,182.714 345.76,182.012 344.32,182.012 C341.296,182.012 338.884,184.298 338.884,188.15 L338.884,188.15 Z" id="DATA-C-2" fill="#FFFFFF" sketch:type="MSShapeGroup"></path>
        <path d="M164.38,132 L165.772,132 L165.772,125.328 L168.028,125.328 L168.028,124.152 L162.112,124.152 L162.112,125.328 L164.38,125.328 L164.38,132 Z M169.312,132 L174.148,132 L174.148,130.824 L170.704,130.824 L170.704,128.508 L173.524,128.508 L173.524,127.332 L170.704,127.332 L170.704,125.328 L174.028,125.328 L174.028,124.152 L169.312,124.152 L169.312,132 Z M175.18,130.992 C175.924,131.724 176.944,132.144 178,132.144 C179.764,132.144 180.82,131.088 180.82,129.816 C180.82,128.676 180.172,128.088 179.236,127.692 L178.18,127.248 C177.532,126.984 176.932,126.756 176.932,126.144 C176.932,125.568 177.412,125.22 178.156,125.22 C178.828,125.22 179.368,125.472 179.86,125.892 L180.58,125.004 C179.968,124.392 179.08,124.008 178.156,124.008 C176.632,124.008 175.528,124.968 175.528,126.216 C175.528,127.368 176.332,127.98 177.112,128.304 L178.18,128.772 C178.9,129.072 179.404,129.276 179.404,129.924 C179.404,130.536 178.912,130.932 178.036,130.932 C177.304,130.932 176.548,130.572 175.984,130.044 L175.18,130.992 Z M183.568,132 L184.96,132 L184.96,125.328 L187.216,125.328 L187.216,124.152 L181.3,124.152 L181.3,125.328 L183.568,125.328 L183.568,132 Z M188.5,132 L189.892,132 L189.892,124.152 L188.5,124.152 L188.5,132 Z M191.848,132 L193.168,132 L193.168,128.568 C193.168,127.692 193.06,126.744 192.988,125.916 L193.036,125.916 L193.852,127.584 L196.288,132 L197.716,132 L197.716,124.152 L196.396,124.152 L196.396,127.56 C196.396,128.436 196.504,129.432 196.576,130.236 L196.528,130.236 L195.712,128.568 L193.276,124.152 L191.848,124.152 L191.848,132 Z M199.264,128.1 C199.264,130.704 200.848,132.144 202.936,132.144 C204.004,132.144 204.928,131.712 205.468,131.208 L205.468,127.752 L202.744,127.752 L202.744,128.892 L204.22,128.892 L204.22,130.584 C203.968,130.812 203.536,130.932 203.104,130.932 C201.532,130.932 200.692,129.852 200.692,128.064 C200.692,126.3 201.628,125.22 203.02,125.22 C203.752,125.22 204.184,125.484 204.58,125.868 L205.348,125.004 C204.856,124.5 204.1,124.008 203.008,124.008 C200.896,124.008 199.264,125.532 199.264,128.1 L199.264,128.1 Z" id="TESTING-2" fill="#FFFFFF" sketch:type="MSShapeGroup"></path>
        <path d="M289.98,132.024 L291.372,132.024 L291.372,129.144 L292.62,129.144 C294.3,129.144 295.596,128.34 295.596,126.6 C295.596,124.776 294.336,124.176 292.62,124.176 L289.98,124.176 L289.98,132.024 Z M291.372,128.028 L291.372,125.292 L292.5,125.292 C293.64,125.292 294.228,125.616 294.228,126.6 C294.228,127.56 293.676,128.028 292.5,128.028 L291.372,128.028 Z M298.428,125.292 L299.532,125.292 C300.612,125.292 301.188,125.604 301.188,126.504 C301.188,127.392 300.612,127.848 299.532,127.848 L298.428,127.848 L298.428,125.292 Z M302.868,132.024 L300.996,128.748 C301.944,128.424 302.568,127.704 302.568,126.504 C302.568,124.752 301.308,124.176 299.676,124.176 L297.036,124.176 L297.036,132.024 L298.428,132.024 L298.428,128.952 L299.616,128.952 L301.308,132.024 L302.868,132.024 Z M307.236,132.168 C309.276,132.168 310.692,130.608 310.692,128.064 C310.692,125.532 309.276,124.032 307.236,124.032 C305.184,124.032 303.768,125.532 303.768,128.064 C303.768,130.608 305.184,132.168 307.236,132.168 L307.236,132.168 Z M307.236,130.956 C306,130.956 305.196,129.828 305.196,128.064 C305.196,126.312 306,125.244 307.236,125.244 C308.46,125.244 309.264,126.312 309.264,128.064 C309.264,129.828 308.46,130.956 307.236,130.956 L307.236,130.956 Z M312.24,132.024 L314.4,132.024 C316.728,132.024 318.156,130.668 318.156,128.064 C318.156,125.472 316.728,124.176 314.328,124.176 L312.24,124.176 L312.24,132.024 Z M313.632,130.896 L313.632,125.304 L314.232,125.304 C315.816,125.304 316.728,126.144 316.728,128.064 C316.728,129.996 315.816,130.896 314.232,130.896 L313.632,130.896 Z M319.668,128.58 C319.668,131.16 320.832,132.168 322.656,132.168 C324.468,132.168 325.62,131.16 325.62,128.58 L325.62,124.176 L324.276,124.176 L324.276,128.688 C324.276,130.392 323.616,130.956 322.656,130.956 C321.708,130.956 321.06,130.392 321.06,128.688 L321.06,124.176 L319.668,124.176 L319.668,128.58 Z M327.12,128.124 C327.12,130.728 328.692,132.168 330.684,132.168 C331.68,132.168 332.496,131.76 333.132,131.028 L332.364,130.176 C331.92,130.668 331.404,130.956 330.708,130.956 C329.4,130.956 328.548,129.876 328.548,128.088 C328.548,126.324 329.472,125.244 330.756,125.244 C331.356,125.244 331.8,125.496 332.208,125.892 L332.976,125.028 C332.484,124.5 331.704,124.032 330.744,124.032 C328.728,124.032 327.12,125.556 327.12,128.124 L327.12,128.124 Z M335.82,132.024 L337.212,132.024 L337.212,125.352 L339.468,125.352 L339.468,124.176 L333.552,124.176 L333.552,125.352 L335.82,125.352 L335.82,132.024 Z M340.752,132.024 L342.144,132.024 L342.144,124.176 L340.752,124.176 L340.752,132.024 Z M347.148,132.168 C349.188,132.168 350.604,130.608 350.604,128.064 C350.604,125.532 349.188,124.032 347.148,124.032 C345.096,124.032 343.68,125.532 343.68,128.064 C343.68,130.608 345.096,132.168 347.148,132.168 L347.148,132.168 Z M347.148,130.956 C345.912,130.956 345.108,129.828 345.108,128.064 C345.108,126.312 345.912,125.244 347.148,125.244 C348.372,125.244 349.176,126.312 349.176,128.064 C349.176,129.828 348.372,130.956 347.148,130.956 L347.148,130.956 Z M352.152,132.024 L353.472,132.024 L353.472,128.592 C353.472,127.716 353.364,126.768 353.292,125.94 L353.34,125.94 L354.156,127.608 L356.592,132.024 L358.02,132.024 L358.02,124.176 L356.7,124.176 L356.7,127.584 C356.7,128.46 356.808,129.456 356.88,130.26 L356.832,130.26 L356.016,128.592 L353.58,124.176 L352.152,124.176 L352.152,132.024 Z" id="PRODUCTION-2" fill="#FFFFFF" sketch:type="MSShapeGroup"></path>
    </g>
</svg>